G04 DipTrace 2.4.0.1*
%INBottomSilk.gbr*%
%MOIN*%
%ADD29C,0.0154*%
%ADD30C,0.0093*%
%FSLAX44Y44*%
G04*
G70*
G90*
G75*
G01*
%LNBotSilk*%
%LPD*%
X12523Y8034D2*
D29*
X12618Y8130D1*
X12762Y8178D1*
X12953D1*
X13096Y8130D1*
X13193Y8034D1*
Y7939D1*
X13144Y7843D1*
X13096Y7796D1*
X13001Y7748D1*
X12714Y7652D1*
X12618Y7604D1*
X12570Y7556D1*
X12523Y7461D1*
Y7317D1*
X12618Y7222D1*
X12762Y7173D1*
X12953D1*
X13096Y7222D1*
X13193Y7317D1*
X11640Y7843D2*
Y7173D1*
Y7699D2*
X11735Y7796D1*
X11831Y7843D1*
X11974D1*
X12070Y7796D1*
X12165Y7699D1*
X12214Y7556D1*
Y7461D1*
X12165Y7317D1*
X12070Y7222D1*
X11974Y7173D1*
X11831D1*
X11735Y7222D1*
X11640Y7317D1*
X11331Y7843D2*
X11140Y7173D1*
X10949Y7843D1*
X10758Y7173D1*
X10567Y7843D1*
X9684D2*
Y7173D1*
Y7699D2*
X9779Y7796D1*
X9875Y7843D1*
X10018D1*
X10114Y7796D1*
X10209Y7699D1*
X10258Y7556D1*
Y7461D1*
X10209Y7317D1*
X10114Y7222D1*
X10018Y7173D1*
X9875D1*
X9779Y7222D1*
X9684Y7317D1*
X9375Y8178D2*
X9328Y8130D1*
X9279Y8178D1*
X9328Y8227D1*
X9375Y8178D1*
X9328Y7843D2*
Y7173D1*
X8970Y7843D2*
X8444D1*
X8970Y7173D1*
X8444D1*
X7115Y7938D2*
Y7986D1*
X7067Y8082D1*
X7020Y8129D1*
X6923Y8177D1*
X6732D1*
X6637Y8129D1*
X6590Y8082D1*
X6541Y7986D1*
Y7891D1*
X6590Y7794D1*
X6685Y7652D1*
X7163Y7173D1*
X6493D1*
X5897Y8177D2*
X6041Y8129D1*
X6137Y7986D1*
X6185Y7747D1*
Y7603D1*
X6137Y7364D1*
X6041Y7221D1*
X5897Y7173D1*
X5802D1*
X5659Y7221D1*
X5563Y7364D1*
X5515Y7603D1*
Y7747D1*
X5563Y7986D1*
X5659Y8129D1*
X5802Y8177D1*
X5897D1*
X5563Y7986D2*
X6137Y7364D1*
X5206Y7986D2*
X5110Y8034D1*
X4966Y8177D1*
Y7173D1*
X4179D2*
Y8177D1*
X4657Y7508D1*
X3940D1*
X13332Y6527D2*
D30*
X13074D1*
X12988Y6556D1*
X12958Y6584D1*
X12930Y6641D1*
Y6699D1*
X12958Y6756D1*
X12988Y6785D1*
X13074Y6814D1*
X13332D1*
Y6211D1*
X13131Y6527D2*
X12930Y6211D1*
X12745Y6498D2*
X12486D1*
X12400Y6527D1*
X12371Y6556D1*
X12343Y6613D1*
Y6699D1*
X12371Y6756D1*
X12400Y6785D1*
X12486Y6814D1*
X12745D1*
Y6211D1*
X12158Y6814D2*
X12129Y6785D1*
X12100Y6814D1*
X12129Y6843D1*
X12158Y6814D1*
X12129Y6613D2*
Y6211D1*
X11331Y6814D2*
X11303Y6785D1*
X11274Y6814D1*
X11303Y6843D1*
X11331Y6814D1*
X11303Y6613D2*
Y6211D1*
X11088Y6613D2*
Y6211D1*
Y6498D2*
X11002Y6584D1*
X10944Y6613D1*
X10859D1*
X10801Y6584D1*
X10773Y6498D1*
Y6211D1*
X10501Y6814D2*
Y6326D1*
X10473Y6240D1*
X10415Y6211D1*
X10358D1*
X10587Y6613D2*
X10386D1*
X10173Y6440D2*
X9828D1*
Y6498D1*
X9857Y6556D1*
X9885Y6584D1*
X9943Y6613D1*
X10029D1*
X10086Y6584D1*
X10144Y6527D1*
X10173Y6440D1*
Y6383D1*
X10144Y6297D1*
X10086Y6240D1*
X10029Y6211D1*
X9943D1*
X9885Y6240D1*
X9828Y6297D1*
X9643Y6613D2*
Y6211D1*
Y6440D2*
X9614Y6527D1*
X9557Y6584D1*
X9499Y6613D1*
X9413D1*
X8998Y6814D2*
X9055D1*
X9113Y6785D1*
X9142Y6699D1*
Y6211D1*
X9228Y6613D2*
X9027D1*
X8469D2*
Y6211D1*
Y6527D2*
X8526Y6584D1*
X8584Y6613D1*
X8669D1*
X8727Y6584D1*
X8784Y6527D1*
X8813Y6440D1*
Y6383D1*
X8784Y6297D1*
X8727Y6240D1*
X8669Y6211D1*
X8584D1*
X8526Y6240D1*
X8469Y6297D1*
X7939Y6527D2*
X7996Y6584D1*
X8054Y6613D1*
X8140D1*
X8197Y6584D1*
X8254Y6527D1*
X8283Y6440D1*
Y6383D1*
X8254Y6297D1*
X8197Y6240D1*
X8140Y6211D1*
X8054D1*
X7996Y6240D1*
X7939Y6297D1*
X7753Y6440D2*
X7409D1*
Y6498D1*
X7438Y6556D1*
X7466Y6584D1*
X7524Y6613D1*
X7610D1*
X7667Y6584D1*
X7725Y6527D1*
X7753Y6440D1*
Y6383D1*
X7725Y6297D1*
X7667Y6240D1*
X7610Y6211D1*
X7524D1*
X7466Y6240D1*
X7409Y6297D1*
M02*
