G04 DipTrace 2.0*
%INTop Paste.gbr*%
%MOIN*%
%ADD10C,0.0098*%
%ADD11C,0.006*%
%ADD12C,0.003*%
%ADD13C,0.0374*%
%ADD14C,0.008*%
%ADD15C,0.0093*%
%FSLAX44Y44*%
%SFA1B1*%
%OFA0B0*%
G04*
G70*
G90*
G75*
G01*
%LNTopPaste*%
%LPD*%
G36*
X5929Y5364D2*
X5927Y5384D1*
X5922Y5403D1*
X5913Y5421D1*
X5902Y5438D1*
X5888Y5452D1*
X5871Y5463D1*
X5853Y5472D1*
X5834Y5477D1*
X5814Y5479D1*
D1*
X5794Y5477D1*
X5775Y5472D1*
X5757Y5463D1*
X5740Y5452D1*
X5726Y5438D1*
X5715Y5421D1*
X5706Y5403D1*
X5701Y5384D1*
X5699Y5364D1*
D1*
X5701Y5344D1*
X5706Y5325D1*
X5715Y5307D1*
X5726Y5290D1*
X5740Y5276D1*
X5757Y5265D1*
X5775Y5256D1*
X5794Y5251D1*
X5814Y5249D1*
D1*
X5834Y5251D1*
X5853Y5256D1*
X5871Y5265D1*
X5888Y5276D1*
X5902Y5290D1*
X5913Y5307D1*
X5922Y5325D1*
X5927Y5344D1*
X5929Y5364D1*
G37*
G36*
X6429D2*
X6427Y5384D1*
X6422Y5403D1*
X6413Y5421D1*
X6402Y5438D1*
X6388Y5452D1*
X6371Y5463D1*
X6353Y5472D1*
X6334Y5477D1*
X6314Y5479D1*
D1*
X6294Y5477D1*
X6275Y5472D1*
X6257Y5463D1*
X6240Y5452D1*
X6226Y5438D1*
X6215Y5421D1*
X6206Y5403D1*
X6201Y5384D1*
X6199Y5364D1*
D1*
X6201Y5344D1*
X6206Y5325D1*
X6215Y5307D1*
X6226Y5290D1*
X6240Y5276D1*
X6257Y5265D1*
X6275Y5256D1*
X6294Y5251D1*
X6314Y5249D1*
D1*
X6334Y5251D1*
X6353Y5256D1*
X6371Y5265D1*
X6388Y5276D1*
X6402Y5290D1*
X6413Y5307D1*
X6422Y5325D1*
X6427Y5344D1*
X6429Y5364D1*
G37*
G36*
X6929D2*
X6927Y5384D1*
X6922Y5403D1*
X6913Y5421D1*
X6902Y5438D1*
X6888Y5452D1*
X6871Y5463D1*
X6853Y5472D1*
X6834Y5477D1*
X6814Y5479D1*
D1*
X6794Y5477D1*
X6775Y5472D1*
X6757Y5463D1*
X6740Y5452D1*
X6726Y5438D1*
X6715Y5421D1*
X6706Y5403D1*
X6701Y5384D1*
X6699Y5364D1*
D1*
X6701Y5344D1*
X6706Y5325D1*
X6715Y5307D1*
X6726Y5290D1*
X6740Y5276D1*
X6757Y5265D1*
X6775Y5256D1*
X6794Y5251D1*
X6814Y5249D1*
D1*
X6834Y5251D1*
X6853Y5256D1*
X6871Y5265D1*
X6888Y5276D1*
X6902Y5290D1*
X6913Y5307D1*
X6922Y5325D1*
X6927Y5344D1*
X6929Y5364D1*
G37*
G36*
Y4864D2*
X6927Y4884D1*
X6922Y4903D1*
X6913Y4921D1*
X6902Y4938D1*
X6888Y4952D1*
X6871Y4963D1*
X6853Y4972D1*
X6834Y4977D1*
X6814Y4979D1*
D1*
X6794Y4977D1*
X6775Y4972D1*
X6757Y4963D1*
X6740Y4952D1*
X6726Y4938D1*
X6715Y4921D1*
X6706Y4903D1*
X6701Y4884D1*
X6699Y4864D1*
D1*
X6701Y4844D1*
X6706Y4825D1*
X6715Y4807D1*
X6726Y4790D1*
X6740Y4776D1*
X6757Y4765D1*
X6775Y4756D1*
X6794Y4751D1*
X6814Y4749D1*
D1*
X6834Y4751D1*
X6853Y4756D1*
X6871Y4765D1*
X6888Y4776D1*
X6902Y4790D1*
X6913Y4807D1*
X6922Y4825D1*
X6927Y4844D1*
X6929Y4864D1*
G37*
G36*
X6429D2*
X6427Y4884D1*
X6422Y4903D1*
X6413Y4921D1*
X6402Y4938D1*
X6388Y4952D1*
X6371Y4963D1*
X6353Y4972D1*
X6334Y4977D1*
X6314Y4979D1*
D1*
X6294Y4977D1*
X6275Y4972D1*
X6257Y4963D1*
X6240Y4952D1*
X6226Y4938D1*
X6215Y4921D1*
X6206Y4903D1*
X6201Y4884D1*
X6199Y4864D1*
D1*
X6201Y4844D1*
X6206Y4825D1*
X6215Y4807D1*
X6226Y4790D1*
X6240Y4776D1*
X6257Y4765D1*
X6275Y4756D1*
X6294Y4751D1*
X6314Y4749D1*
D1*
X6334Y4751D1*
X6353Y4756D1*
X6371Y4765D1*
X6388Y4776D1*
X6402Y4790D1*
X6413Y4807D1*
X6422Y4825D1*
X6427Y4844D1*
X6429Y4864D1*
G37*
G36*
X5929D2*
X5927Y4884D1*
X5922Y4903D1*
X5913Y4921D1*
X5902Y4938D1*
X5888Y4952D1*
X5871Y4963D1*
X5853Y4972D1*
X5834Y4977D1*
X5814Y4979D1*
D1*
X5794Y4977D1*
X5775Y4972D1*
X5757Y4963D1*
X5740Y4952D1*
X5726Y4938D1*
X5715Y4921D1*
X5706Y4903D1*
X5701Y4884D1*
X5699Y4864D1*
D1*
X5701Y4844D1*
X5706Y4825D1*
X5715Y4807D1*
X5726Y4790D1*
X5740Y4776D1*
X5757Y4765D1*
X5775Y4756D1*
X5794Y4751D1*
X5814Y4749D1*
D1*
X5834Y4751D1*
X5853Y4756D1*
X5871Y4765D1*
X5888Y4776D1*
X5902Y4790D1*
X5913Y4807D1*
X5922Y4825D1*
X5927Y4844D1*
X5929Y4864D1*
G37*
M02*
