G04 DipTrace 2.0*
%INTop.gbr*%
%MOIN*%
%ADD10C,0.0098*%
%ADD11C,0.006*%
%ADD12C,0.003*%
%ADD13C,0.0374*%
%ADD14C,0.008*%
%ADD15C,0.0093*%
%FSLAX44Y44*%
%SFA1B1*%
%OFA0B0*%
G04*
G70*
G90*
G75*
G01*
%LNTop*%
%LPD*%
G36*
X5969Y5364D2*
X5967Y5391D1*
X5960Y5417D1*
X5948Y5442D1*
X5933Y5464D1*
X5914Y5483D1*
X5892Y5498D1*
X5867Y5510D1*
X5841Y5517D1*
X5814Y5519D1*
D1*
X5787Y5517D1*
X5761Y5510D1*
X5736Y5498D1*
X5714Y5483D1*
X5695Y5464D1*
X5680Y5442D1*
X5668Y5417D1*
X5661Y5391D1*
X5659Y5364D1*
D1*
X5661Y5337D1*
X5668Y5311D1*
X5680Y5286D1*
X5695Y5264D1*
X5714Y5245D1*
X5736Y5230D1*
X5761Y5218D1*
X5787Y5211D1*
X5814Y5209D1*
D1*
X5841Y5211D1*
X5867Y5218D1*
X5892Y5230D1*
X5914Y5245D1*
X5933Y5264D1*
X5948Y5286D1*
X5960Y5311D1*
X5967Y5337D1*
X5969Y5364D1*
G37*
G36*
X6469D2*
X6467Y5391D1*
X6460Y5417D1*
X6448Y5442D1*
X6433Y5464D1*
X6414Y5483D1*
X6392Y5498D1*
X6367Y5510D1*
X6341Y5517D1*
X6314Y5519D1*
D1*
X6287Y5517D1*
X6261Y5510D1*
X6236Y5498D1*
X6214Y5483D1*
X6195Y5464D1*
X6180Y5442D1*
X6168Y5417D1*
X6161Y5391D1*
X6159Y5364D1*
D1*
X6161Y5337D1*
X6168Y5311D1*
X6180Y5286D1*
X6195Y5264D1*
X6214Y5245D1*
X6236Y5230D1*
X6261Y5218D1*
X6287Y5211D1*
X6314Y5209D1*
D1*
X6341Y5211D1*
X6367Y5218D1*
X6392Y5230D1*
X6414Y5245D1*
X6433Y5264D1*
X6448Y5286D1*
X6460Y5311D1*
X6467Y5337D1*
X6469Y5364D1*
G37*
G36*
X6969D2*
X6967Y5391D1*
X6960Y5417D1*
X6948Y5442D1*
X6933Y5464D1*
X6914Y5483D1*
X6892Y5498D1*
X6867Y5510D1*
X6841Y5517D1*
X6814Y5519D1*
D1*
X6787Y5517D1*
X6761Y5510D1*
X6736Y5498D1*
X6714Y5483D1*
X6695Y5464D1*
X6680Y5442D1*
X6668Y5417D1*
X6661Y5391D1*
X6659Y5364D1*
D1*
X6661Y5337D1*
X6668Y5311D1*
X6680Y5286D1*
X6695Y5264D1*
X6714Y5245D1*
X6736Y5230D1*
X6761Y5218D1*
X6787Y5211D1*
X6814Y5209D1*
D1*
X6841Y5211D1*
X6867Y5218D1*
X6892Y5230D1*
X6914Y5245D1*
X6933Y5264D1*
X6948Y5286D1*
X6960Y5311D1*
X6967Y5337D1*
X6969Y5364D1*
G37*
G36*
Y4864D2*
X6967Y4891D1*
X6960Y4917D1*
X6948Y4942D1*
X6933Y4964D1*
X6914Y4983D1*
X6892Y4998D1*
X6867Y5010D1*
X6841Y5017D1*
X6814Y5019D1*
D1*
X6787Y5017D1*
X6761Y5010D1*
X6736Y4998D1*
X6714Y4983D1*
X6695Y4964D1*
X6680Y4942D1*
X6668Y4917D1*
X6661Y4891D1*
X6659Y4864D1*
D1*
X6661Y4837D1*
X6668Y4811D1*
X6680Y4786D1*
X6695Y4764D1*
X6714Y4745D1*
X6736Y4730D1*
X6761Y4718D1*
X6787Y4711D1*
X6814Y4709D1*
D1*
X6841Y4711D1*
X6867Y4718D1*
X6892Y4730D1*
X6914Y4745D1*
X6933Y4764D1*
X6948Y4786D1*
X6960Y4811D1*
X6967Y4837D1*
X6969Y4864D1*
G37*
G36*
X6469D2*
X6467Y4891D1*
X6460Y4917D1*
X6448Y4942D1*
X6433Y4964D1*
X6414Y4983D1*
X6392Y4998D1*
X6367Y5010D1*
X6341Y5017D1*
X6314Y5019D1*
D1*
X6287Y5017D1*
X6261Y5010D1*
X6236Y4998D1*
X6214Y4983D1*
X6195Y4964D1*
X6180Y4942D1*
X6168Y4917D1*
X6161Y4891D1*
X6159Y4864D1*
D1*
X6161Y4837D1*
X6168Y4811D1*
X6180Y4786D1*
X6195Y4764D1*
X6214Y4745D1*
X6236Y4730D1*
X6261Y4718D1*
X6287Y4711D1*
X6314Y4709D1*
D1*
X6341Y4711D1*
X6367Y4718D1*
X6392Y4730D1*
X6414Y4745D1*
X6433Y4764D1*
X6448Y4786D1*
X6460Y4811D1*
X6467Y4837D1*
X6469Y4864D1*
G37*
G36*
X5969D2*
X5967Y4891D1*
X5960Y4917D1*
X5948Y4942D1*
X5933Y4964D1*
X5914Y4983D1*
X5892Y4998D1*
X5867Y5010D1*
X5841Y5017D1*
X5814Y5019D1*
D1*
X5787Y5017D1*
X5761Y5010D1*
X5736Y4998D1*
X5714Y4983D1*
X5695Y4964D1*
X5680Y4942D1*
X5668Y4917D1*
X5661Y4891D1*
X5659Y4864D1*
D1*
X5661Y4837D1*
X5668Y4811D1*
X5680Y4786D1*
X5695Y4764D1*
X5714Y4745D1*
X5736Y4730D1*
X5761Y4718D1*
X5787Y4711D1*
X5814Y4709D1*
D1*
X5841Y4711D1*
X5867Y4718D1*
X5892Y4730D1*
X5914Y4745D1*
X5933Y4764D1*
X5948Y4786D1*
X5960Y4811D1*
X5967Y4837D1*
X5969Y4864D1*
G37*
M02*
