G04 DipTrace 2.0*
%INTop Paste.gbr*%
%MOIN*%
%ADD10C,0.0098*%
%ADD11C,0.0055*%
%ADD12C,0.003*%
%ADD13C,0.0374*%
%ADD14C,0.0935*%
%ADD15C,0.008*%
%ADD16C,0.0093*%
%FSLAX44Y44*%
%SFA1B1*%
%OFA0B0*%
G04*
G70*
G90*
G75*
G01*
%LNTopPaste*%
%LPD*%
G36*
X6350Y7125D2*
X6348Y7145D1*
X6343Y7164D1*
X6334Y7182D1*
X6323Y7199D1*
X6309Y7213D1*
X6292Y7224D1*
X6274Y7233D1*
X6255Y7238D1*
X6235Y7240D1*
D1*
X6215Y7238D1*
X6195Y7233D1*
X6177Y7224D1*
X6161Y7213D1*
X6147Y7199D1*
X6135Y7182D1*
X6127Y7164D1*
X6122Y7145D1*
X6120Y7125D1*
D1*
X6122Y7105D1*
X6127Y7086D1*
X6135Y7068D1*
X6147Y7051D1*
X6161Y7037D1*
X6177Y7026D1*
X6195Y7017D1*
X6215Y7012D1*
X6235Y7010D1*
D1*
X6255Y7012D1*
X6274Y7017D1*
X6292Y7026D1*
X6309Y7037D1*
X6323Y7051D1*
X6334Y7068D1*
X6343Y7086D1*
X6348Y7105D1*
X6350Y7125D1*
G37*
G36*
X6850D2*
X6848Y7145D1*
X6843Y7164D1*
X6834Y7182D1*
X6823Y7199D1*
X6809Y7213D1*
X6792Y7224D1*
X6774Y7233D1*
X6755Y7238D1*
X6735Y7240D1*
D1*
X6715Y7238D1*
X6695Y7233D1*
X6677Y7224D1*
X6661Y7213D1*
X6647Y7199D1*
X6635Y7182D1*
X6627Y7164D1*
X6622Y7145D1*
X6620Y7125D1*
D1*
X6622Y7105D1*
X6627Y7086D1*
X6635Y7068D1*
X6647Y7051D1*
X6661Y7037D1*
X6677Y7026D1*
X6695Y7017D1*
X6715Y7012D1*
X6735Y7010D1*
D1*
X6755Y7012D1*
X6774Y7017D1*
X6792Y7026D1*
X6809Y7037D1*
X6823Y7051D1*
X6834Y7068D1*
X6843Y7086D1*
X6848Y7105D1*
X6850Y7125D1*
G37*
G36*
X7350D2*
X7348Y7145D1*
X7343Y7164D1*
X7334Y7182D1*
X7323Y7199D1*
X7309Y7213D1*
X7292Y7224D1*
X7274Y7233D1*
X7255Y7238D1*
X7235Y7240D1*
D1*
X7215Y7238D1*
X7195Y7233D1*
X7177Y7224D1*
X7161Y7213D1*
X7147Y7199D1*
X7135Y7182D1*
X7127Y7164D1*
X7122Y7145D1*
X7120Y7125D1*
D1*
X7122Y7105D1*
X7127Y7086D1*
X7135Y7068D1*
X7147Y7051D1*
X7161Y7037D1*
X7177Y7026D1*
X7195Y7017D1*
X7215Y7012D1*
X7235Y7010D1*
D1*
X7255Y7012D1*
X7274Y7017D1*
X7292Y7026D1*
X7309Y7037D1*
X7323Y7051D1*
X7334Y7068D1*
X7343Y7086D1*
X7348Y7105D1*
X7350Y7125D1*
G37*
G36*
Y6625D2*
X7348Y6645D1*
X7343Y6664D1*
X7334Y6682D1*
X7323Y6699D1*
X7309Y6713D1*
X7292Y6724D1*
X7274Y6733D1*
X7255Y6738D1*
X7235Y6740D1*
D1*
X7215Y6738D1*
X7195Y6733D1*
X7177Y6724D1*
X7161Y6713D1*
X7147Y6699D1*
X7135Y6682D1*
X7127Y6664D1*
X7122Y6645D1*
X7120Y6625D1*
D1*
X7122Y6605D1*
X7127Y6586D1*
X7135Y6568D1*
X7147Y6551D1*
X7161Y6537D1*
X7177Y6526D1*
X7195Y6517D1*
X7215Y6512D1*
X7235Y6510D1*
D1*
X7255Y6512D1*
X7274Y6517D1*
X7292Y6526D1*
X7309Y6537D1*
X7323Y6551D1*
X7334Y6568D1*
X7343Y6586D1*
X7348Y6605D1*
X7350Y6625D1*
G37*
G36*
X6850D2*
X6848Y6645D1*
X6843Y6664D1*
X6834Y6682D1*
X6823Y6699D1*
X6809Y6713D1*
X6792Y6724D1*
X6774Y6733D1*
X6755Y6738D1*
X6735Y6740D1*
D1*
X6715Y6738D1*
X6695Y6733D1*
X6677Y6724D1*
X6661Y6713D1*
X6647Y6699D1*
X6635Y6682D1*
X6627Y6664D1*
X6622Y6645D1*
X6620Y6625D1*
D1*
X6622Y6605D1*
X6627Y6586D1*
X6635Y6568D1*
X6647Y6551D1*
X6661Y6537D1*
X6677Y6526D1*
X6695Y6517D1*
X6715Y6512D1*
X6735Y6510D1*
D1*
X6755Y6512D1*
X6774Y6517D1*
X6792Y6526D1*
X6809Y6537D1*
X6823Y6551D1*
X6834Y6568D1*
X6843Y6586D1*
X6848Y6605D1*
X6850Y6625D1*
G37*
G36*
X6350D2*
X6348Y6645D1*
X6343Y6664D1*
X6334Y6682D1*
X6323Y6699D1*
X6309Y6713D1*
X6292Y6724D1*
X6274Y6733D1*
X6255Y6738D1*
X6235Y6740D1*
D1*
X6215Y6738D1*
X6195Y6733D1*
X6177Y6724D1*
X6161Y6713D1*
X6147Y6699D1*
X6135Y6682D1*
X6127Y6664D1*
X6122Y6645D1*
X6120Y6625D1*
D1*
X6122Y6605D1*
X6127Y6586D1*
X6135Y6568D1*
X6147Y6551D1*
X6161Y6537D1*
X6177Y6526D1*
X6195Y6517D1*
X6215Y6512D1*
X6235Y6510D1*
D1*
X6255Y6512D1*
X6274Y6517D1*
X6292Y6526D1*
X6309Y6537D1*
X6323Y6551D1*
X6334Y6568D1*
X6343Y6586D1*
X6348Y6605D1*
X6350Y6625D1*
G37*
M02*
