G04 DipTrace 2.0*
%INTop.gbr*%
%MOIN*%
%ADD10C,0.0098*%
%ADD11C,0.0055*%
%ADD12C,0.003*%
%ADD13C,0.0374*%
%ADD14C,0.0935*%
%ADD15C,0.008*%
%ADD16C,0.0093*%
%FSLAX44Y44*%
%SFA1B1*%
%OFA0B0*%
G04*
G70*
G90*
G75*
G01*
%LNTop*%
%LPD*%
G36*
X6390Y7125D2*
X6387Y7152D1*
X6380Y7178D1*
X6369Y7203D1*
X6353Y7225D1*
X6334Y7244D1*
X6312Y7259D1*
X6288Y7271D1*
X6262Y7278D1*
X6235Y7280D1*
D1*
X6208Y7278D1*
X6182Y7271D1*
X6157Y7259D1*
X6135Y7244D1*
X6116Y7225D1*
X6101Y7203D1*
X6089Y7178D1*
X6082Y7152D1*
X6080Y7125D1*
D1*
X6082Y7098D1*
X6089Y7072D1*
X6101Y7047D1*
X6116Y7025D1*
X6135Y7006D1*
X6157Y6991D1*
X6182Y6979D1*
X6208Y6972D1*
X6235Y6970D1*
D1*
X6262Y6972D1*
X6288Y6979D1*
X6312Y6991D1*
X6334Y7006D1*
X6353Y7025D1*
X6369Y7047D1*
X6380Y7072D1*
X6387Y7098D1*
X6390Y7125D1*
G37*
G36*
X6890D2*
X6887Y7152D1*
X6880Y7178D1*
X6869Y7203D1*
X6853Y7225D1*
X6834Y7244D1*
X6812Y7259D1*
X6788Y7271D1*
X6762Y7278D1*
X6735Y7280D1*
D1*
X6708Y7278D1*
X6682Y7271D1*
X6657Y7259D1*
X6635Y7244D1*
X6616Y7225D1*
X6601Y7203D1*
X6589Y7178D1*
X6582Y7152D1*
X6580Y7125D1*
D1*
X6582Y7098D1*
X6589Y7072D1*
X6601Y7047D1*
X6616Y7025D1*
X6635Y7006D1*
X6657Y6991D1*
X6682Y6979D1*
X6708Y6972D1*
X6735Y6970D1*
D1*
X6762Y6972D1*
X6788Y6979D1*
X6812Y6991D1*
X6834Y7006D1*
X6853Y7025D1*
X6869Y7047D1*
X6880Y7072D1*
X6887Y7098D1*
X6890Y7125D1*
G37*
G36*
X7390D2*
X7387Y7152D1*
X7380Y7178D1*
X7369Y7203D1*
X7353Y7225D1*
X7334Y7244D1*
X7312Y7259D1*
X7288Y7271D1*
X7262Y7278D1*
X7235Y7280D1*
D1*
X7208Y7278D1*
X7182Y7271D1*
X7157Y7259D1*
X7135Y7244D1*
X7116Y7225D1*
X7101Y7203D1*
X7089Y7178D1*
X7082Y7152D1*
X7080Y7125D1*
D1*
X7082Y7098D1*
X7089Y7072D1*
X7101Y7047D1*
X7116Y7025D1*
X7135Y7006D1*
X7157Y6991D1*
X7182Y6979D1*
X7208Y6972D1*
X7235Y6970D1*
D1*
X7262Y6972D1*
X7288Y6979D1*
X7312Y6991D1*
X7334Y7006D1*
X7353Y7025D1*
X7369Y7047D1*
X7380Y7072D1*
X7387Y7098D1*
X7390Y7125D1*
G37*
G36*
Y6625D2*
X7387Y6652D1*
X7380Y6678D1*
X7369Y6703D1*
X7353Y6725D1*
X7334Y6744D1*
X7312Y6759D1*
X7288Y6771D1*
X7262Y6778D1*
X7235Y6780D1*
D1*
X7208Y6778D1*
X7182Y6771D1*
X7157Y6759D1*
X7135Y6744D1*
X7116Y6725D1*
X7101Y6703D1*
X7089Y6678D1*
X7082Y6652D1*
X7080Y6625D1*
D1*
X7082Y6598D1*
X7089Y6572D1*
X7101Y6547D1*
X7116Y6525D1*
X7135Y6506D1*
X7157Y6491D1*
X7182Y6479D1*
X7208Y6472D1*
X7235Y6470D1*
D1*
X7262Y6472D1*
X7288Y6479D1*
X7312Y6491D1*
X7334Y6506D1*
X7353Y6525D1*
X7369Y6547D1*
X7380Y6572D1*
X7387Y6598D1*
X7390Y6625D1*
G37*
G36*
X6890D2*
X6887Y6652D1*
X6880Y6678D1*
X6869Y6703D1*
X6853Y6725D1*
X6834Y6744D1*
X6812Y6759D1*
X6788Y6771D1*
X6762Y6778D1*
X6735Y6780D1*
D1*
X6708Y6778D1*
X6682Y6771D1*
X6657Y6759D1*
X6635Y6744D1*
X6616Y6725D1*
X6601Y6703D1*
X6589Y6678D1*
X6582Y6652D1*
X6580Y6625D1*
D1*
X6582Y6598D1*
X6589Y6572D1*
X6601Y6547D1*
X6616Y6525D1*
X6635Y6506D1*
X6657Y6491D1*
X6682Y6479D1*
X6708Y6472D1*
X6735Y6470D1*
D1*
X6762Y6472D1*
X6788Y6479D1*
X6812Y6491D1*
X6834Y6506D1*
X6853Y6525D1*
X6869Y6547D1*
X6880Y6572D1*
X6887Y6598D1*
X6890Y6625D1*
G37*
G36*
X6390D2*
X6387Y6652D1*
X6380Y6678D1*
X6369Y6703D1*
X6353Y6725D1*
X6334Y6744D1*
X6312Y6759D1*
X6288Y6771D1*
X6262Y6778D1*
X6235Y6780D1*
D1*
X6208Y6778D1*
X6182Y6771D1*
X6157Y6759D1*
X6135Y6744D1*
X6116Y6725D1*
X6101Y6703D1*
X6089Y6678D1*
X6082Y6652D1*
X6080Y6625D1*
D1*
X6082Y6598D1*
X6089Y6572D1*
X6101Y6547D1*
X6116Y6525D1*
X6135Y6506D1*
X6157Y6491D1*
X6182Y6479D1*
X6208Y6472D1*
X6235Y6470D1*
D1*
X6262Y6472D1*
X6288Y6479D1*
X6312Y6491D1*
X6334Y6506D1*
X6353Y6525D1*
X6369Y6547D1*
X6380Y6572D1*
X6387Y6598D1*
X6390Y6625D1*
G37*
M02*
