G04 DipTrace 2.4.0.2*
%INBottom.gbr*%
%MOIN*%
%ADD13C,0.013*%
%ADD14C,0.025*%
%ADD15R,0.0591X0.0591*%
%ADD16C,0.0591*%
%ADD17C,0.063*%
%ADD18R,0.063X0.063*%
%ADD19R,0.0709X0.0709*%
%ADD20C,0.0709*%
%ADD22C,0.079*%
%ADD23O,0.0394X0.0787*%
%ADD24C,0.06*%
%ADD25C,0.06*%
%FSLAX44Y44*%
G04*
G70*
G90*
G75*
G01*
%LNBottom*%
%LPD*%
X8440Y4940D2*
D13*
Y6940D1*
X9190Y7690D1*
X10940Y7940D2*
Y6440D1*
X10190Y5690D1*
Y4440D1*
X10065Y4315D1*
X7815D1*
X7190Y4940D1*
Y5440D1*
X5526Y14316D2*
D14*
X10394D1*
X10830D2*
X11956D1*
X12424D2*
X13499D1*
X14381D2*
X14540D1*
X5526Y14068D2*
X10050D1*
X11174D2*
X11624D1*
X12756D2*
X13370D1*
X5526Y13819D2*
X9940D1*
X11283D2*
X11519D1*
X12861D2*
X13366D1*
X5526Y13570D2*
X9936D1*
X11287D2*
X11515D1*
X12865D2*
X13495D1*
X14385D2*
X14540D1*
X4340Y13322D2*
X4507D1*
X5373D2*
X10038D1*
X11190D2*
X11616D1*
X12764D2*
X13507D1*
X14373D2*
X14540D1*
X5510Y13073D2*
X10343D1*
X10881D2*
X11933D1*
X12447D2*
X13370D1*
X5514Y12824D2*
X13366D1*
X4340Y12575D2*
X4491D1*
X5389D2*
X13491D1*
X14389D2*
X14540D1*
X4340Y12327D2*
X4511D1*
X5369D2*
X10327D1*
X10904D2*
X11901D1*
X12479D2*
X13511D1*
X14369D2*
X14540D1*
X5506Y12078D2*
X5753D1*
X6627D2*
X6753D1*
X7627D2*
X7753D1*
X8627D2*
X8753D1*
X9627D2*
X10034D1*
X11194D2*
X11608D1*
X12772D2*
X13374D1*
X5514Y11829D2*
X5618D1*
X9764D2*
X9940D1*
X11291D2*
X11515D1*
X12865D2*
X13366D1*
X4340Y11581D2*
X4483D1*
X5397D2*
X5612D1*
X9768D2*
X9944D1*
X11283D2*
X11519D1*
X12861D2*
X13483D1*
X14397D2*
X14540D1*
X4340Y11332D2*
X4515D1*
X5365D2*
X5729D1*
X6651D2*
X6728D1*
X7651D2*
X7728D1*
X8651D2*
X8728D1*
X9651D2*
X10058D1*
X11174D2*
X11632D1*
X12748D2*
X13515D1*
X14365D2*
X14540D1*
X5506Y11083D2*
X10421D1*
X10807D2*
X11995D1*
X12385D2*
X13374D1*
X5514Y10835D2*
X13366D1*
X4340Y10586D2*
X4479D1*
X5401D2*
X13479D1*
X14401D2*
X14540D1*
X4340Y10337D2*
X4519D1*
X5361D2*
X13519D1*
X14361D2*
X14540D1*
X5506Y10089D2*
X10819D1*
X11059D2*
X11319D1*
X11559D2*
X13374D1*
X5518Y9840D2*
X10499D1*
X11881D2*
X13362D1*
X4340Y9591D2*
X4476D1*
X5404D2*
X10452D1*
X11928D2*
X13476D1*
X14404D2*
X14540D1*
X4340Y9343D2*
X4526D1*
X5354D2*
X10452D1*
X12936D2*
X13526D1*
X14354D2*
X14540D1*
X5502Y9094D2*
X10479D1*
X13065D2*
X13378D1*
X5518Y8845D2*
X10683D1*
X11697D2*
X11804D1*
X13076D2*
X13362D1*
X4340Y8596D2*
X4472D1*
X5408D2*
X11901D1*
X12979D2*
X13472D1*
X14408D2*
X14540D1*
X4340Y8348D2*
X4530D1*
X5350D2*
X12233D1*
X12647D2*
X13530D1*
X14350D2*
X14540D1*
X5502Y8099D2*
X5776D1*
X6604D2*
X6779D1*
X7604D2*
X7779D1*
X8604D2*
X8779D1*
X9604D2*
X13378D1*
X5518Y7850D2*
X5625D1*
X9756D2*
X13362D1*
X4340Y7602D2*
X4468D1*
X5412D2*
X5608D1*
X9772D2*
X13468D1*
X14412D2*
X14540D1*
X4340Y7353D2*
X4538D1*
X5342D2*
X5710D1*
X9670D2*
X13538D1*
X14342D2*
X14540D1*
X5502Y7104D2*
X6011D1*
X6869D2*
X8128D1*
X10045D2*
X13378D1*
X5518Y6856D2*
X5858D1*
X7022D2*
X8085D1*
X10045D2*
X13362D1*
X4340Y6607D2*
X4464D1*
X5416D2*
X5843D1*
X7037D2*
X8085D1*
X10045D2*
X13464D1*
X14416D2*
X14540D1*
X4340Y6358D2*
X4542D1*
X5338D2*
X5940D1*
X6940D2*
X8085D1*
X10045D2*
X13542D1*
X14338D2*
X14540D1*
X5498Y6110D2*
X8085D1*
X8795D2*
X13382D1*
X5518Y5861D2*
X5761D1*
X7119D2*
X8085D1*
X8795D2*
X13362D1*
X4340Y5612D2*
X4460D1*
X5420D2*
X5702D1*
X7178D2*
X8085D1*
X8795D2*
X13460D1*
X14420D2*
X14540D1*
X4340Y5364D2*
X5702D1*
X7178D2*
X7854D1*
X9830D2*
X10335D1*
X11545D2*
X13354D1*
X4340Y5115D2*
X5722D1*
X7158D2*
X7854D1*
X9998D2*
X10335D1*
X11545D2*
X11796D1*
X13084D2*
X13354D1*
X4340Y4866D2*
X5897D1*
X6983D2*
X7854D1*
X10022D2*
X10335D1*
X11545D2*
X11796D1*
X13084D2*
X13354D1*
X4340Y4617D2*
X7854D1*
X9924D2*
X10335D1*
X11545D2*
X11796D1*
X13084D2*
X13354D1*
X4340Y4369D2*
X10335D1*
X11545D2*
X11796D1*
X13084D2*
X14540D1*
X8005Y5500D2*
X8110D1*
Y6940D1*
X8136Y7065D1*
X8126Y7040D1*
X8078Y7136D1*
X7959Y7174D1*
X7852Y7237D1*
X7761Y7323D1*
X7689Y7429D1*
X7635Y7342D1*
X7548Y7253D1*
X7443Y7185D1*
X7326Y7142D1*
X7202Y7125D1*
X7078Y7136D1*
X6959Y7174D1*
X6852Y7237D1*
X6761Y7323D1*
X6689Y7429D1*
X6635Y7342D1*
X6556Y7261D1*
X6698Y7210D1*
X6803Y7142D1*
X6891Y7054D1*
X6959Y6949D1*
X7002Y6833D1*
X7020Y6690D1*
X7007Y6566D1*
X6967Y6448D1*
X6903Y6341D1*
X6817Y6250D1*
X6715Y6179D1*
X6599Y6132D1*
X6476Y6111D1*
X6351Y6117D1*
X6231Y6149D1*
X6120Y6206D1*
X6024Y6286D1*
X5947Y6384D1*
X5893Y6497D1*
X5865Y6618D1*
X5862Y6743D1*
X5887Y6865D1*
X5937Y6979D1*
X6011Y7080D1*
X6072Y7134D1*
X5959Y7174D1*
X5852Y7237D1*
X5761Y7323D1*
X5691Y7426D1*
X5645Y7542D1*
X5626Y7665D1*
X5634Y7789D1*
X5669Y7909D1*
X5730Y8018D1*
X5813Y8111D1*
X5915Y8183D1*
X6030Y8232D1*
X6153Y8254D1*
X6277Y8248D1*
X6398Y8216D1*
X6508Y8157D1*
X6603Y8076D1*
X6688Y7951D1*
X6730Y8018D1*
X6813Y8111D1*
X6915Y8183D1*
X7030Y8232D1*
X7153Y8254D1*
X7277Y8248D1*
X7398Y8216D1*
X7508Y8157D1*
X7603Y8076D1*
X7688Y7951D1*
X7730Y8018D1*
X7813Y8111D1*
X7915Y8183D1*
X8030Y8232D1*
X8153Y8254D1*
X8277Y8248D1*
X8398Y8216D1*
X8508Y8157D1*
X8603Y8076D1*
X8688Y7951D1*
X8730Y8018D1*
X8813Y8111D1*
X8915Y8183D1*
X9030Y8232D1*
X9153Y8254D1*
X9277Y8248D1*
X9398Y8216D1*
X9508Y8157D1*
X9603Y8076D1*
X9677Y7976D1*
X9728Y7862D1*
X9755Y7690D1*
X9741Y7566D1*
X9701Y7448D1*
X9635Y7342D1*
X9567Y7272D1*
X10020Y7270D1*
Y6110D1*
X8860D1*
Y6895D1*
X8769Y6802D1*
X8770Y5499D1*
X9000Y5500D1*
Y5285D1*
X9081Y5370D1*
X9185Y5439D1*
X9301Y5483D1*
X9425Y5500D1*
X9549Y5490D1*
X9668Y5452D1*
X9776Y5389D1*
X9867Y5303D1*
X9936Y5200D1*
X9982Y5084D1*
X10000Y4940D1*
X9986Y4816D1*
X9945Y4698D1*
X9879Y4592D1*
X9792Y4504D1*
X9686Y4437D1*
X9569Y4395D1*
X9445Y4380D1*
X9321Y4393D1*
X9203Y4432D1*
X9096Y4497D1*
X9001Y4594D1*
X9000Y4380D1*
X7880D1*
Y5500D1*
X8005D1*
X10485Y5520D2*
X11520D1*
Y4360D1*
X10360D1*
Y5520D1*
X10485D1*
X11946Y5209D2*
X13059D1*
X13065Y4315D1*
X14565D1*
Y14565D1*
X4315D1*
Y4315D1*
X11819D1*
X11821Y5209D1*
X11946D1*
X13047Y8816D2*
X13010Y8697D1*
X12949Y8587D1*
X12868Y8493D1*
X12770Y8416D1*
X12658Y8360D1*
X12537Y8328D1*
X12413Y8321D1*
X12289Y8339D1*
X12172Y8382D1*
X12066Y8447D1*
X11974Y8532D1*
X11902Y8633D1*
X11851Y8748D1*
X11825Y8869D1*
X11823Y8983D1*
X11758Y8908D1*
X11657Y8835D1*
X11540Y8792D1*
X11415Y8782D1*
X11293Y8805D1*
X11192Y8855D1*
X11040Y8792D1*
X10915Y8782D1*
X10793Y8805D1*
X10681Y8861D1*
X10588Y8944D1*
X10521Y9048D1*
X10484Y9168D1*
X10478Y9243D1*
X10481Y9686D1*
X10511Y9807D1*
X10572Y9915D1*
X10660Y10004D1*
X10768Y10065D1*
X10889Y10096D1*
X11013Y10093D1*
X11133Y10057D1*
X11188Y10021D1*
X11268Y10065D1*
X11389Y10096D1*
X11513Y10093D1*
X11633Y10057D1*
X11738Y9990D1*
X11821Y9897D1*
X11877Y9786D1*
X11902Y9637D1*
Y9246D1*
X11964Y9336D1*
X12053Y9423D1*
X12157Y9491D1*
X12274Y9537D1*
X12397Y9558D1*
X12521Y9554D1*
X12643Y9525D1*
X12756Y9473D1*
X12856Y9399D1*
X12940Y9306D1*
X13003Y9198D1*
X13043Y9080D1*
X13059Y8940D1*
X13047Y8816D1*
X12838Y13566D2*
X12803Y13446D1*
X12746Y13335D1*
X12669Y13236D1*
X12576Y13154D1*
X12468Y13091D1*
X12350Y13050D1*
X12227Y13031D1*
X12102Y13036D1*
X11980Y13064D1*
X11866Y13115D1*
X11764Y13186D1*
X11677Y13275D1*
X11608Y13379D1*
X11560Y13495D1*
X11534Y13617D1*
X11532Y13741D1*
X11553Y13864D1*
X11598Y13981D1*
X11663Y14087D1*
X11747Y14180D1*
X11847Y14254D1*
X11960Y14309D1*
X12080Y14341D1*
X12205Y14350D1*
X12329Y14335D1*
X12448Y14298D1*
X12558Y14238D1*
X12654Y14159D1*
X12734Y14063D1*
X12795Y13954D1*
X12834Y13836D1*
X12850Y13690D1*
X12838Y13566D1*
Y11597D2*
X12803Y11477D1*
X12746Y11366D1*
X12669Y11268D1*
X12576Y11186D1*
X12468Y11123D1*
X12350Y11081D1*
X12227Y11063D1*
X12102Y11067D1*
X11980Y11096D1*
X11866Y11146D1*
X11764Y11218D1*
X11677Y11307D1*
X11608Y11411D1*
X11560Y11526D1*
X11534Y11648D1*
X11532Y11773D1*
X11553Y11896D1*
X11598Y12013D1*
X11663Y12119D1*
X11747Y12211D1*
X11847Y12286D1*
X11960Y12340D1*
X12080Y12372D1*
X12205Y12381D1*
X12329Y12367D1*
X12448Y12329D1*
X12558Y12270D1*
X12654Y12191D1*
X12734Y12095D1*
X12795Y11986D1*
X12834Y11867D1*
X12850Y11721D1*
X12838Y11597D1*
X11263D2*
X11228Y11477D1*
X11171Y11366D1*
X11095Y11268D1*
X11001Y11186D1*
X10893Y11123D1*
X10775Y11081D1*
X10652Y11063D1*
X10527Y11067D1*
X10406Y11096D1*
X10292Y11146D1*
X10189Y11218D1*
X10102Y11307D1*
X10033Y11411D1*
X9985Y11526D1*
X9959Y11648D1*
X9957Y11773D1*
X9979Y11896D1*
X10023Y12013D1*
X10088Y12119D1*
X10173Y12211D1*
X10273Y12286D1*
X10385Y12340D1*
X10506Y12372D1*
X10630Y12381D1*
X10754Y12367D1*
X10873Y12329D1*
X10983Y12270D1*
X11079Y12191D1*
X11159Y12095D1*
X11220Y11986D1*
X11259Y11867D1*
X11275Y11721D1*
X11263Y11597D1*
X11261Y13561D2*
X11226Y13442D1*
X11169Y13331D1*
X11092Y13232D1*
X10998Y13150D1*
X10890Y13087D1*
X10773Y13045D1*
X10649Y13027D1*
X10525Y13032D1*
X10403Y13060D1*
X10289Y13111D1*
X10186Y13182D1*
X10099Y13271D1*
X10030Y13375D1*
X9982Y13490D1*
X9957Y13612D1*
X9955Y13737D1*
X9976Y13860D1*
X10020Y13977D1*
X10086Y14083D1*
X10170Y14175D1*
X10270Y14250D1*
X10382Y14304D1*
X10503Y14337D1*
X10627Y14346D1*
X10751Y14331D1*
X10870Y14293D1*
X10980Y14234D1*
X11077Y14155D1*
X11157Y14059D1*
X11217Y13950D1*
X11256Y13831D1*
X11273Y13686D1*
X11261Y13561D1*
X9741Y11566D2*
X9701Y11448D1*
X9635Y11342D1*
X9548Y11253D1*
X9443Y11185D1*
X9326Y11142D1*
X9202Y11125D1*
X9078Y11136D1*
X8959Y11174D1*
X8852Y11237D1*
X8761Y11323D1*
X8689Y11429D1*
X8635Y11342D1*
X8548Y11253D1*
X8443Y11185D1*
X8326Y11142D1*
X8202Y11125D1*
X8078Y11136D1*
X7959Y11174D1*
X7852Y11237D1*
X7761Y11323D1*
X7689Y11429D1*
X7635Y11342D1*
X7548Y11253D1*
X7443Y11185D1*
X7326Y11142D1*
X7202Y11125D1*
X7078Y11136D1*
X6959Y11174D1*
X6852Y11237D1*
X6761Y11323D1*
X6689Y11429D1*
X6635Y11342D1*
X6548Y11253D1*
X6443Y11185D1*
X6326Y11142D1*
X6202Y11125D1*
X6078Y11136D1*
X5959Y11174D1*
X5852Y11237D1*
X5761Y11323D1*
X5691Y11426D1*
X5645Y11542D1*
X5626Y11665D1*
X5634Y11789D1*
X5669Y11909D1*
X5730Y12018D1*
X5813Y12111D1*
X5915Y12183D1*
X6030Y12232D1*
X6153Y12254D1*
X6277Y12248D1*
X6398Y12216D1*
X6508Y12157D1*
X6603Y12076D1*
X6688Y11951D1*
X6730Y12018D1*
X6813Y12111D1*
X6915Y12183D1*
X7030Y12232D1*
X7153Y12254D1*
X7277Y12248D1*
X7398Y12216D1*
X7508Y12157D1*
X7603Y12076D1*
X7688Y11951D1*
X7730Y12018D1*
X7813Y12111D1*
X7915Y12183D1*
X8030Y12232D1*
X8153Y12254D1*
X8277Y12248D1*
X8398Y12216D1*
X8508Y12157D1*
X8603Y12076D1*
X8688Y11951D1*
X8730Y12018D1*
X8813Y12111D1*
X8915Y12183D1*
X9030Y12232D1*
X9153Y12254D1*
X9277Y12248D1*
X9398Y12216D1*
X9508Y12157D1*
X9603Y12076D1*
X9677Y11976D1*
X9728Y11862D1*
X9755Y11690D1*
X9741Y11566D1*
X6440Y6021D2*
X6518Y6065D1*
X6639Y6096D1*
X6763Y6093D1*
X6883Y6057D1*
X6988Y5990D1*
X7071Y5897D1*
X7127Y5786D1*
X7152Y5637D1*
X7148Y5243D1*
X7135Y5120D1*
X7086Y5005D1*
X7008Y4908D1*
X6907Y4835D1*
X6790Y4792D1*
X6665Y4782D1*
X6543Y4805D1*
X6442Y4855D1*
X6290Y4792D1*
X6165Y4782D1*
X6043Y4805D1*
X5931Y4861D1*
X5838Y4944D1*
X5771Y5048D1*
X5734Y5168D1*
X5728Y5243D1*
X5731Y5686D1*
X5761Y5807D1*
X5822Y5915D1*
X5910Y6004D1*
X6018Y6065D1*
X6139Y6096D1*
X6263Y6093D1*
X6383Y6057D1*
X6438Y6021D1*
X4505Y14500D2*
X5500D1*
Y13380D1*
X5285D1*
X5367Y13303D1*
X5436Y13200D1*
X5482Y13084D1*
X5500Y12940D1*
X5486Y12816D1*
X5445Y12698D1*
X5379Y12592D1*
X5292Y12504D1*
X5190Y12439D1*
X5276Y12389D1*
X5367Y12303D1*
X5436Y12200D1*
X5482Y12084D1*
X5500Y11940D1*
X5486Y11816D1*
X5445Y11698D1*
X5379Y11592D1*
X5292Y11504D1*
X5190Y11439D1*
X5276Y11389D1*
X5367Y11303D1*
X5436Y11200D1*
X5482Y11084D1*
X5500Y10940D1*
X5486Y10816D1*
X5445Y10698D1*
X5379Y10592D1*
X5292Y10504D1*
X5190Y10439D1*
X5276Y10389D1*
X5367Y10303D1*
X5436Y10200D1*
X5482Y10084D1*
X5500Y9940D1*
X5486Y9816D1*
X5445Y9698D1*
X5379Y9592D1*
X5292Y9504D1*
X5190Y9439D1*
X5276Y9389D1*
X5367Y9303D1*
X5436Y9200D1*
X5482Y9084D1*
X5500Y8940D1*
X5486Y8816D1*
X5445Y8698D1*
X5379Y8592D1*
X5292Y8504D1*
X5190Y8439D1*
X5276Y8389D1*
X5367Y8303D1*
X5436Y8200D1*
X5482Y8084D1*
X5500Y7940D1*
X5486Y7816D1*
X5445Y7698D1*
X5379Y7592D1*
X5292Y7504D1*
X5190Y7439D1*
X5276Y7389D1*
X5367Y7303D1*
X5436Y7200D1*
X5482Y7084D1*
X5500Y6940D1*
X5486Y6816D1*
X5445Y6698D1*
X5379Y6592D1*
X5292Y6504D1*
X5190Y6439D1*
X5276Y6389D1*
X5367Y6303D1*
X5436Y6200D1*
X5482Y6084D1*
X5500Y5940D1*
X5486Y5816D1*
X5445Y5698D1*
X5379Y5592D1*
X5292Y5504D1*
X5186Y5437D1*
X5069Y5395D1*
X4945Y5380D1*
X4821Y5393D1*
X4703Y5432D1*
X4596Y5497D1*
X4507Y5584D1*
X4439Y5689D1*
X4396Y5806D1*
X4380Y5930D1*
X4391Y6054D1*
X4430Y6173D1*
X4494Y6280D1*
X4581Y6370D1*
X4688Y6440D1*
X4596Y6497D1*
X4507Y6584D1*
X4439Y6689D1*
X4396Y6806D1*
X4380Y6930D1*
X4391Y7054D1*
X4430Y7173D1*
X4494Y7280D1*
X4581Y7370D1*
X4688Y7440D1*
X4596Y7497D1*
X4507Y7584D1*
X4439Y7689D1*
X4396Y7806D1*
X4380Y7930D1*
X4391Y8054D1*
X4430Y8173D1*
X4494Y8280D1*
X4581Y8370D1*
X4688Y8440D1*
X4596Y8497D1*
X4507Y8584D1*
X4439Y8689D1*
X4396Y8806D1*
X4380Y8930D1*
X4391Y9054D1*
X4430Y9173D1*
X4494Y9280D1*
X4581Y9370D1*
X4688Y9440D1*
X4596Y9497D1*
X4507Y9584D1*
X4439Y9689D1*
X4396Y9806D1*
X4380Y9930D1*
X4391Y10054D1*
X4430Y10173D1*
X4494Y10280D1*
X4581Y10370D1*
X4688Y10440D1*
X4596Y10497D1*
X4507Y10584D1*
X4439Y10689D1*
X4396Y10806D1*
X4380Y10930D1*
X4391Y11054D1*
X4430Y11173D1*
X4494Y11280D1*
X4581Y11370D1*
X4688Y11440D1*
X4596Y11497D1*
X4507Y11584D1*
X4439Y11689D1*
X4396Y11806D1*
X4380Y11930D1*
X4391Y12054D1*
X4430Y12173D1*
X4494Y12280D1*
X4581Y12370D1*
X4688Y12440D1*
X4596Y12497D1*
X4507Y12584D1*
X4439Y12689D1*
X4396Y12806D1*
X4380Y12930D1*
X4391Y13054D1*
X4430Y13173D1*
X4494Y13280D1*
X4597Y13381D1*
X4380Y13380D1*
Y14500D1*
X4505D1*
X13505Y5500D2*
X13595D1*
X13507Y5584D1*
X13439Y5689D1*
X13396Y5806D1*
X13380Y5930D1*
X13391Y6054D1*
X13430Y6173D1*
X13494Y6280D1*
X13581Y6370D1*
X13688Y6440D1*
X13596Y6497D1*
X13507Y6584D1*
X13439Y6689D1*
X13396Y6806D1*
X13380Y6930D1*
X13391Y7054D1*
X13430Y7173D1*
X13494Y7280D1*
X13581Y7370D1*
X13688Y7440D1*
X13596Y7497D1*
X13507Y7584D1*
X13439Y7689D1*
X13396Y7806D1*
X13380Y7930D1*
X13391Y8054D1*
X13430Y8173D1*
X13494Y8280D1*
X13581Y8370D1*
X13688Y8440D1*
X13596Y8497D1*
X13507Y8584D1*
X13439Y8689D1*
X13396Y8806D1*
X13380Y8930D1*
X13391Y9054D1*
X13430Y9173D1*
X13494Y9280D1*
X13581Y9370D1*
X13688Y9440D1*
X13596Y9497D1*
X13507Y9584D1*
X13439Y9689D1*
X13396Y9806D1*
X13380Y9930D1*
X13391Y10054D1*
X13430Y10173D1*
X13494Y10280D1*
X13581Y10370D1*
X13688Y10440D1*
X13596Y10497D1*
X13507Y10584D1*
X13439Y10689D1*
X13396Y10806D1*
X13380Y10930D1*
X13391Y11054D1*
X13430Y11173D1*
X13494Y11280D1*
X13581Y11370D1*
X13688Y11440D1*
X13596Y11497D1*
X13507Y11584D1*
X13439Y11689D1*
X13396Y11806D1*
X13380Y11930D1*
X13391Y12054D1*
X13430Y12173D1*
X13494Y12280D1*
X13581Y12370D1*
X13688Y12440D1*
X13596Y12497D1*
X13507Y12584D1*
X13439Y12689D1*
X13396Y12806D1*
X13380Y12930D1*
X13391Y13054D1*
X13430Y13173D1*
X13494Y13280D1*
X13581Y13370D1*
X13688Y13440D1*
X13596Y13497D1*
X13507Y13584D1*
X13439Y13689D1*
X13396Y13806D1*
X13380Y13930D1*
X13391Y14054D1*
X13430Y14173D1*
X13494Y14280D1*
X13581Y14370D1*
X13685Y14439D1*
X13801Y14483D1*
X13925Y14500D1*
X14049Y14490D1*
X14168Y14452D1*
X14276Y14389D1*
X14367Y14303D1*
X14436Y14200D1*
X14482Y14084D1*
X14500Y13940D1*
X14486Y13816D1*
X14445Y13698D1*
X14379Y13592D1*
X14292Y13504D1*
X14190Y13439D1*
X14276Y13389D1*
X14367Y13303D1*
X14436Y13200D1*
X14482Y13084D1*
X14500Y12940D1*
X14486Y12816D1*
X14445Y12698D1*
X14379Y12592D1*
X14292Y12504D1*
X14190Y12439D1*
X14276Y12389D1*
X14367Y12303D1*
X14436Y12200D1*
X14482Y12084D1*
X14500Y11940D1*
X14486Y11816D1*
X14445Y11698D1*
X14379Y11592D1*
X14292Y11504D1*
X14190Y11439D1*
X14276Y11389D1*
X14367Y11303D1*
X14436Y11200D1*
X14482Y11084D1*
X14500Y10940D1*
X14486Y10816D1*
X14445Y10698D1*
X14379Y10592D1*
X14292Y10504D1*
X14190Y10439D1*
X14276Y10389D1*
X14367Y10303D1*
X14436Y10200D1*
X14482Y10084D1*
X14500Y9940D1*
X14486Y9816D1*
X14445Y9698D1*
X14379Y9592D1*
X14292Y9504D1*
X14190Y9439D1*
X14276Y9389D1*
X14367Y9303D1*
X14436Y9200D1*
X14482Y9084D1*
X14500Y8940D1*
X14486Y8816D1*
X14445Y8698D1*
X14379Y8592D1*
X14292Y8504D1*
X14190Y8439D1*
X14276Y8389D1*
X14367Y8303D1*
X14436Y8200D1*
X14482Y8084D1*
X14500Y7940D1*
X14486Y7816D1*
X14445Y7698D1*
X14379Y7592D1*
X14292Y7504D1*
X14190Y7439D1*
X14276Y7389D1*
X14367Y7303D1*
X14436Y7200D1*
X14482Y7084D1*
X14500Y6940D1*
X14486Y6816D1*
X14445Y6698D1*
X14379Y6592D1*
X14292Y6504D1*
X14190Y6439D1*
X14276Y6389D1*
X14367Y6303D1*
X14436Y6200D1*
X14482Y6084D1*
X14500Y5940D1*
X14486Y5816D1*
X14445Y5698D1*
X14379Y5592D1*
X14288Y5502D1*
X14500Y5500D1*
Y4380D1*
X13380D1*
Y5500D1*
X13505D1*
D15*
X8440Y4940D3*
D16*
X9440D3*
D17*
X10940Y7940D3*
D18*
Y4940D3*
D19*
X12440Y4590D3*
D20*
Y8940D3*
D22*
X12190Y13690D3*
Y11721D3*
X10615D3*
X10613Y13686D3*
G36*
X10243Y9145D2*
X10342Y9046D1*
X10538D1*
X10637Y9145D1*
Y9735D1*
X10538Y9834D1*
X10342D1*
X10243Y9735D1*
Y9145D1*
G37*
D23*
X10940Y9440D3*
X11440D3*
D24*
X9190Y7690D3*
D25*
Y11690D3*
D17*
X6440Y6690D3*
D18*
X9440D3*
G36*
X7387Y5735D2*
X7288Y5834D1*
X7092D1*
X6993Y5735D1*
Y5145D1*
X7092Y5046D1*
X7288D1*
X7387Y5145D1*
Y5735D1*
G37*
D23*
X6690Y5440D3*
X6190D3*
D24*
X8190Y7690D3*
D25*
Y11690D3*
D24*
X7190D3*
D25*
Y7690D3*
D24*
X6190Y11690D3*
D25*
Y7690D3*
D15*
X4940Y13940D3*
D16*
Y12940D3*
Y11940D3*
Y10940D3*
Y9940D3*
Y8940D3*
Y7940D3*
Y6940D3*
Y5940D3*
Y4940D3*
D15*
X13940D3*
D16*
Y5940D3*
Y6940D3*
Y7940D3*
Y8940D3*
Y9940D3*
Y10940D3*
Y11940D3*
Y12940D3*
Y13940D3*
M02*
