G04 DipTrace 2.4.0.2*
%INBottomSilk.gbr*%
%MOIN*%
%ADD52C,0.0154*%
%FSLAX44Y44*%
G04*
G70*
G90*
G75*
G01*
%LNBotSilk*%
%LPD*%
X9769Y10784D2*
D52*
X9864Y10880D1*
X10007Y10928D1*
X10199D1*
X10342Y10880D1*
X10438Y10784D1*
Y10689D1*
X10390Y10593D1*
X10342Y10546D1*
X10247Y10498D1*
X9960Y10402D1*
X9864Y10354D1*
X9816Y10306D1*
X9769Y10211D1*
Y10067D1*
X9864Y9972D1*
X10007Y9923D1*
X10199D1*
X10342Y9972D1*
X10438Y10067D1*
X8886Y10593D2*
Y9923D1*
Y10449D2*
X8981Y10546D1*
X9077Y10593D1*
X9220D1*
X9316Y10546D1*
X9411Y10449D1*
X9460Y10306D1*
Y10211D1*
X9411Y10067D1*
X9316Y9972D1*
X9220Y9923D1*
X9077D1*
X8981Y9972D1*
X8886Y10067D1*
X8577Y10593D2*
X8386Y9923D1*
X8195Y10593D1*
X8004Y9923D1*
X7812Y10593D1*
X6930D2*
Y9923D1*
Y10449D2*
X7025Y10546D1*
X7121Y10593D1*
X7264D1*
X7360Y10546D1*
X7455Y10449D1*
X7504Y10306D1*
Y10211D1*
X7455Y10067D1*
X7360Y9972D1*
X7264Y9923D1*
X7121D1*
X7025Y9972D1*
X6930Y10067D1*
X6621Y10928D2*
X6574Y10880D1*
X6525Y10928D1*
X6574Y10977D1*
X6621Y10928D1*
X6574Y10593D2*
Y9923D1*
X6216Y10593D2*
X5690D1*
X6216Y9923D1*
X5690D1*
X9136Y9534D2*
X9231Y9630D1*
X9375Y9678D1*
X9566D1*
X9710Y9630D1*
X9806Y9534D1*
Y9439D1*
X9757Y9343D1*
X9710Y9296D1*
X9615Y9248D1*
X9327Y9152D1*
X9231Y9104D1*
X9184Y9056D1*
X9136Y8961D1*
Y8817D1*
X9231Y8722D1*
X9375Y8673D1*
X9566D1*
X9710Y8722D1*
X9806Y8817D1*
X8779Y9343D2*
X8492Y8673D1*
X8587Y8482D1*
X8684Y8386D1*
X8779Y8338D1*
X8827D1*
X8205Y9343D2*
X8492Y8673D1*
X7896Y9056D2*
X7322D1*
Y9152D1*
X7370Y9248D1*
X7418Y9296D1*
X7514Y9343D1*
X7657D1*
X7752Y9296D1*
X7849Y9199D1*
X7896Y9056D1*
Y8961D1*
X7849Y8817D1*
X7752Y8722D1*
X7657Y8673D1*
X7514D1*
X7418Y8722D1*
X7322Y8817D1*
X6440Y9678D2*
Y8673D1*
Y9199D2*
X6535Y9296D1*
X6631Y9343D1*
X6775D1*
X6870Y9296D1*
X6966Y9199D1*
X7014Y9056D1*
Y8961D1*
X6966Y8817D1*
X6870Y8722D1*
X6775Y8673D1*
X6631D1*
X6535Y8722D1*
X6440Y8817D1*
M02*
