M48
INCH
T01C0.0276
T02C0.0354
T03C0.038
T04C0.0394
T05C0.0472
T06C0.051
%
T01
X+010440Y+009440
X+010940Y+009440
X+011440Y+009440
X+007190Y+005440
X+006690Y+005440
X+006190Y+005440
T02
X+008440Y+004940
X+009440Y+004940
X+013940Y+004940
X+013940Y+005940
X+013940Y+006940
X+013940Y+007940
X+013940Y+008940
X+013940Y+009940
X+013940Y+010940
X+013940Y+011940
X+013940Y+012940
X+013940Y+013940
X+004940Y+013940
X+004940Y+012940
X+004940Y+011940
X+004940Y+010940
X+004940Y+009940
X+004940Y+008940
X+004940Y+007940
X+004940Y+006940
X+004940Y+005940
X+004940Y+004940
T03
X+009190Y+007690
X+008190Y+007690
X+007190Y+007690
X+006190Y+007690
X+006190Y+011690
X+007190Y+011690
X+008190Y+011690
X+009190Y+011690
T04
X+010940Y+007940
X+009440Y+006690
X+010940Y+004940
X+006440Y+006690
T05
X+012440Y+004590
X+012440Y+008940
T06
X+012190Y+013690
X+010613Y+013686
X+010615Y+011721
X+012190Y+011721
T00
M30
