G04 DipTrace 2.4.0.2*
%INTopSilk.gbr*%
%MOIN*%
%ADD10C,0.0098*%
%ADD21C,0.0197*%
%ADD50C,0.0077*%
%ADD51C,0.0108*%
%ADD52C,0.0154*%
%FSLAX44Y44*%
G04*
G70*
G90*
G75*
G01*
%LNTopSilk*%
%LPD*%
X9940Y4440D2*
D10*
Y5440D1*
X7940Y4440D2*
X9940D1*
X7940D2*
Y5440D1*
X9940D1*
X11540Y4738D2*
Y8142D1*
X10340Y4738D2*
Y8142D1*
X11540D2*
G03X10340Y8142I-600J-2D01*
G01*
Y4738D2*
G03X11540Y4738I600J2D01*
G01*
X12991Y5819D2*
X11889D1*
Y5839D2*
Y7691D1*
X12991Y6117D2*
X11889D1*
X12991Y7691D2*
X11889D1*
X12991Y5839D2*
Y7691D1*
X9335Y12706D2*
X9340Y12850D1*
X9355Y12993D1*
X9380Y13135D1*
X9415Y13275D1*
X9459Y13412D1*
X9513Y13546D1*
X9576Y13675D1*
X9649Y13800D1*
X9729Y13920D1*
X9818Y14033D1*
X9915Y14140D1*
X10018Y14240D1*
X10129Y14333D1*
X10246Y14418D1*
X10368Y14494D1*
X10495Y14562D1*
X10627Y14620D1*
X10763Y14670D1*
X10901Y14709D1*
X11042Y14739D1*
X11185Y14759D1*
X11329Y14769D1*
X11473D1*
X11617Y14759D1*
X11760Y14739D1*
X11901Y14709D1*
X12040Y14670D1*
X12175Y14620D1*
X12307Y14562D1*
X12434Y14494D1*
X12557Y14418D1*
X12673Y14333D1*
X12784Y14240D1*
X12888Y14140D1*
X12984Y14033D1*
X13073Y13920D1*
X13154Y13800D1*
X13226Y13675D1*
X13289Y13546D1*
X13343Y13412D1*
X13388Y13275D1*
X13422Y13135D1*
X13447Y12993D1*
X13463Y12850D1*
X13468Y12706D1*
X13463Y12562D1*
X13447Y12418D1*
X13422Y12276D1*
X13388Y12137D1*
X13343Y11999D1*
X13289Y11866D1*
X13226Y11736D1*
X13154Y11611D1*
X13073Y11492D1*
X12984Y11378D1*
X12888Y11271D1*
X12784Y11171D1*
X12673Y11079D1*
X12557Y10994D1*
X12434Y10917D1*
X12307Y10850D1*
X12175Y10791D1*
X12040Y10742D1*
X11901Y10702D1*
X11760Y10672D1*
X11617Y10652D1*
X11473Y10642D1*
X11329D1*
X11185Y10652D1*
X11042Y10672D1*
X10901Y10702D1*
X10763Y10742D1*
X10627Y10791D1*
X10495Y10850D1*
X10368Y10917D1*
X10246Y10994D1*
X10129Y11079D1*
X10018Y11171D1*
X9915Y11271D1*
X9818Y11378D1*
X9729Y11492D1*
X9649Y11611D1*
X9576Y11736D1*
X9513Y11866D1*
X9459Y11999D1*
X9415Y12137D1*
X9380Y12276D1*
X9355Y12418D1*
X9340Y12562D1*
X9335Y12706D1*
D21*
X10911Y14379D3*
X10184Y8909D2*
D10*
G02X11696Y8909I756J666D01*
G01*
X10184D1*
X9690Y10688D2*
Y8692D1*
X8690D2*
X9690D1*
X8690Y10688D2*
Y8692D1*
Y10688D2*
X9690D1*
X9642Y7290D2*
X6238D1*
X9642Y6090D2*
X6238D1*
Y7290D2*
G03X6238Y6090I2J-600D01*
G01*
X9642D2*
G03X9642Y7290I-2J600D01*
G01*
X7446Y5971D2*
G02X5934Y5971I-756J-666D01*
G01*
X7446D1*
X8690Y10688D2*
Y8692D1*
X7690D2*
X8690D1*
X7690Y10688D2*
Y8692D1*
Y10688D2*
X8690D1*
X6690Y8692D2*
Y10688D1*
X7690D2*
X6690D1*
X7690Y8692D2*
Y10688D1*
Y8692D2*
X6690D1*
X5690D2*
Y10688D1*
X6690D2*
X5690D1*
X6690Y8692D2*
Y10688D1*
Y8692D2*
X5690D1*
X4440Y4440D2*
X5440D1*
X4440Y14440D2*
Y4440D1*
Y14440D2*
X5440D1*
Y13690D1*
Y4440D1*
X14440Y14440D2*
X13440D1*
X14440Y4440D2*
Y14440D1*
Y4440D2*
X13440D1*
Y5190D1*
Y14440D1*
G36*
X12940Y14940D2*
X14940Y12940D1*
Y14940D1*
X12940D1*
G37*
X10778Y6482D2*
D50*
X10731Y6458D1*
X10682Y6410D1*
X10659Y6363D1*
Y6267D1*
X10682Y6219D1*
X10731Y6172D1*
X10778Y6147D1*
X10850Y6123D1*
X10970D1*
X11041Y6147D1*
X11089Y6172D1*
X11137Y6219D1*
X11161Y6267D1*
Y6363D1*
X11137Y6410D1*
X11089Y6458D1*
X11041Y6482D1*
X10755Y6637D2*
X10731Y6685D1*
X10659Y6757D1*
X11161D1*
X12159Y6460D2*
X12661D1*
Y6628D1*
X12637Y6699D1*
X12589Y6748D1*
X12541Y6771D1*
X12470Y6795D1*
X12350D1*
X12278Y6771D1*
X12231Y6748D1*
X12182Y6699D1*
X12159Y6628D1*
Y6460D1*
X12255Y6949D2*
X12231Y6998D1*
X12159Y7069D1*
X12661D1*
X11121Y12987D2*
Y12485D1*
X11407D1*
X11562Y12891D2*
X11610Y12915D1*
X11682Y12987D1*
Y12485D1*
X10755Y10401D2*
X10707Y10378D1*
X10659Y10330D1*
X10636Y10282D1*
X10611Y10210D1*
Y10091D1*
X10636Y10019D1*
X10659Y9971D1*
X10707Y9923D1*
X10755Y9900D1*
X10851D1*
X10899Y9923D1*
X10946Y9971D1*
X10970Y10019D1*
X10994Y10091D1*
Y10210D1*
X10970Y10282D1*
X10946Y10330D1*
X10899Y10378D1*
X10851Y10401D1*
X10755D1*
X10827Y9995D2*
X10970Y9852D1*
X11149Y10305D2*
X11197Y10330D1*
X11269Y10401D1*
Y9899D1*
X9411Y9136D2*
X8909D1*
X9244Y8896D1*
Y9255D1*
X9363Y9433D2*
X9387Y9409D1*
X9411Y9433D1*
X9387Y9457D1*
X9363Y9433D1*
X9411Y9708D2*
X8909Y9947D1*
Y9612D1*
X9411Y10484D2*
X8909D1*
X9411Y10292D1*
X8909Y10101D1*
X9411D1*
X7875Y6852D2*
X7851Y6899D1*
X7803Y6948D1*
X7755Y6971D1*
X7660D1*
X7612Y6948D1*
X7564Y6899D1*
X7540Y6852D1*
X7516Y6780D1*
Y6660D1*
X7540Y6589D1*
X7564Y6541D1*
X7612Y6493D1*
X7660Y6469D1*
X7755D1*
X7803Y6493D1*
X7851Y6541D1*
X7875Y6589D1*
X8053Y6851D2*
Y6875D1*
X8077Y6923D1*
X8101Y6947D1*
X8149Y6971D1*
X8245D1*
X8292Y6947D1*
X8316Y6923D1*
X8340Y6875D1*
Y6828D1*
X8316Y6780D1*
X8268Y6708D1*
X8029Y6469D1*
X8364D1*
X6398Y5791D2*
X6350Y5768D1*
X6302Y5720D1*
X6278Y5672D1*
X6254Y5600D1*
Y5481D1*
X6278Y5409D1*
X6302Y5361D1*
X6350Y5313D1*
X6398Y5289D1*
X6493D1*
X6541Y5313D1*
X6589Y5361D1*
X6613Y5409D1*
X6637Y5481D1*
Y5600D1*
X6613Y5672D1*
X6589Y5720D1*
X6541Y5768D1*
X6493Y5791D1*
X6398D1*
X6469Y5385D2*
X6613Y5241D1*
X6816Y5671D2*
Y5695D1*
X6839Y5743D1*
X6863Y5767D1*
X6911Y5791D1*
X7007D1*
X7054Y5767D1*
X7078Y5743D1*
X7102Y5695D1*
Y5647D1*
X7078Y5599D1*
X7031Y5528D1*
X6791Y5289D1*
X7126D1*
X8029Y9093D2*
X8005D1*
X7957Y9117D1*
X7933Y9141D1*
X7909Y9189D1*
Y9285D1*
X7933Y9332D1*
X7957Y9356D1*
X8005Y9380D1*
X8052D1*
X8100Y9356D1*
X8172Y9308D1*
X8411Y9069D1*
Y9404D1*
X8029Y9583D2*
X8005D1*
X7957Y9607D1*
X7933Y9630D1*
X7909Y9678D1*
Y9774D1*
X7933Y9822D1*
X7957Y9845D1*
X8005Y9870D1*
X8052D1*
X8100Y9845D1*
X8172Y9798D1*
X8411Y9558D1*
Y9893D1*
X7909Y10048D2*
X8411D1*
X8076Y10287D2*
X8315Y10048D1*
X8220Y10143D2*
X8411Y10311D1*
X7005Y8932D2*
X6981Y8980D1*
X6909Y9052D1*
X7411D1*
X6909Y9350D2*
X6933Y9278D1*
X7005Y9230D1*
X7124Y9206D1*
X7196D1*
X7315Y9230D1*
X7387Y9278D1*
X7411Y9350D1*
Y9398D1*
X7387Y9469D1*
X7315Y9517D1*
X7196Y9541D1*
X7124D1*
X7005Y9517D1*
X6933Y9469D1*
X6909Y9398D1*
Y9350D1*
X7005Y9517D2*
X7315Y9230D1*
X6909Y9839D2*
X6933Y9767D1*
X7005Y9719D1*
X7124Y9696D1*
X7196D1*
X7315Y9719D1*
X7387Y9767D1*
X7411Y9839D1*
Y9887D1*
X7387Y9959D1*
X7315Y10006D1*
X7196Y10031D1*
X7124D1*
X7005Y10006D1*
X6933Y9959D1*
X6909Y9887D1*
Y9839D1*
X7005Y10006D2*
X7315Y9719D1*
X6909Y10185D2*
X7411D1*
X7076Y10424D2*
X7315Y10185D1*
X7220Y10281D2*
X7411Y10448D1*
X6005Y9177D2*
X5981Y9225D1*
X5909Y9297D1*
X6411D1*
X5909Y9595D2*
X5933Y9523D1*
X6005Y9475D1*
X6124Y9451D1*
X6196D1*
X6315Y9475D1*
X6387Y9523D1*
X6411Y9595D1*
Y9642D1*
X6387Y9714D1*
X6315Y9762D1*
X6196Y9786D1*
X6124D1*
X6005Y9762D1*
X5933Y9714D1*
X5909Y9642D1*
Y9595D1*
X6005Y9762D2*
X6315Y9475D1*
X5909Y9940D2*
X6411D1*
X6076Y10180D2*
X6315Y9940D1*
X6220Y10036D2*
X6411Y10203D1*
X6169Y14613D2*
D51*
X6136Y14679D1*
X6068Y14746D1*
X6002Y14780D1*
X5868D1*
X5801Y14746D1*
X5734Y14679D1*
X5700Y14613D1*
X5667Y14512D1*
Y14344D1*
X5700Y14244D1*
X5734Y14177D1*
X5801Y14110D1*
X5868Y14076D1*
X6002D1*
X6068Y14110D1*
X6136Y14177D1*
X6169Y14244D1*
Y14344D1*
X6002D1*
X6385Y14780D2*
X6418Y14746D1*
X6452Y14780D1*
X6418Y14814D1*
X6385Y14780D1*
X6418Y14545D2*
Y14076D1*
X6669Y14344D2*
X7070D1*
Y14411D1*
X7037Y14479D1*
X7004Y14512D1*
X6936Y14545D1*
X6836D1*
X6769Y14512D1*
X6702Y14445D1*
X6669Y14344D1*
Y14278D1*
X6702Y14177D1*
X6769Y14110D1*
X6836Y14076D1*
X6936D1*
X7004Y14110D1*
X7070Y14177D1*
X7688Y14512D2*
Y13976D1*
X7655Y13876D1*
X7621Y13842D1*
X7554Y13809D1*
X7454D1*
X7387Y13842D1*
X7688Y14411D2*
X7621Y14478D1*
X7554Y14512D1*
X7454D1*
X7387Y14478D1*
X7320Y14411D1*
X7286Y14311D1*
Y14244D1*
X7320Y14144D1*
X7387Y14076D1*
X7454Y14043D1*
X7554D1*
X7621Y14076D1*
X7688Y14144D1*
X7904Y14344D2*
X8306D1*
Y14411D1*
X8272Y14479D1*
X8239Y14512D1*
X8172Y14545D1*
X8071D1*
X8005Y14512D1*
X7937Y14445D1*
X7904Y14344D1*
Y14278D1*
X7937Y14177D1*
X8005Y14110D1*
X8071Y14076D1*
X8172D1*
X8239Y14110D1*
X8306Y14177D1*
X8522Y14545D2*
Y14076D1*
Y14344D2*
X8556Y14445D1*
X8622Y14512D1*
X8690Y14545D1*
X8790D1*
X7190Y13428D2*
D52*
X7572Y12423D1*
X7955Y13428D1*
X8742Y12423D2*
Y13427D1*
X8264Y12758D1*
X8981D1*
M02*
