M48
INCH
T01C0.0276
T02C0.0354
T03C0.038
T04C0.0394
T05C0.0472
T06C0.05
T07C0.228
%
T01
X+016190Y+005190
X+015690Y+005190
X+015190Y+005190
T02
X+013690Y+010690
X+012690Y+010690
X+011690Y+010690
X+010690Y+010690
X+009690Y+010690
X+008690Y+010690
X+007690Y+010690
X+006690Y+010690
X+005690Y+010690
X+004690Y+010690
X+004690Y+004690
X+005690Y+004690
X+006690Y+004690
X+007690Y+004690
X+008690Y+004690
X+009690Y+004690
X+010690Y+004690
X+011690Y+004690
X+012690Y+004690
X+013690Y+004690
T03
X+009690Y+009690
X+013690Y+009690
T04
X+015190Y+007190
X+015190Y+010190
T05
X+016690Y+010690
X+016690Y+006340
T06
X+008458Y+005922
X+004922Y+005922
X+004922Y+009458
X+008458Y+009458
T07
X+006690Y+007690
T00
M30
