G04 DipTrace 2.4.0.1*
%INBottomSilk.gbr*%
%MOIN*%
%ADD20C,0.0154*%
%FSLAX44Y44*%
G04*
G70*
G90*
G75*
G01*
%LNBotSilk*%
%LPD*%
X7094Y15018D2*
D20*
X6997Y15113D1*
X6950Y15257D1*
Y15448D1*
X6997Y15592D1*
X7094Y15688D1*
X7189D1*
X7285Y15639D1*
X7332Y15592D1*
X7380Y15497D1*
X7476Y15209D1*
X7524Y15113D1*
X7572Y15066D1*
X7667Y15018D1*
X7811D1*
X7906Y15113D1*
X7955Y15257D1*
Y15448D1*
X7906Y15592D1*
X7811Y15688D1*
X7285Y14136D2*
X7955D1*
X7429D2*
X7332Y14231D1*
X7285Y14327D1*
Y14469D1*
X7332Y14566D1*
X7429Y14661D1*
X7572Y14709D1*
X7667D1*
X7811Y14661D1*
X7906Y14566D1*
X7955Y14469D1*
Y14327D1*
X7906Y14231D1*
X7811Y14136D1*
X7285Y13827D2*
X7955Y13636D1*
X7285Y13444D1*
X7955Y13253D1*
X7285Y13062D1*
Y12179D2*
X7955D1*
X7429D2*
X7332Y12274D1*
X7285Y12371D1*
Y12513D1*
X7332Y12609D1*
X7429Y12704D1*
X7572Y12753D1*
X7667D1*
X7811Y12704D1*
X7906Y12609D1*
X7955Y12513D1*
Y12371D1*
X7906Y12274D1*
X7811Y12179D1*
X6950Y11871D2*
X6997Y11823D1*
X6950Y11774D1*
X6901Y11823D1*
X6950Y11871D1*
X7285Y11823D2*
X7955D1*
X7285Y11466D2*
Y10940D1*
X7955Y11466D1*
Y10940D1*
X7094Y8989D2*
X6997Y9084D1*
X6950Y9228D1*
Y9419D1*
X6997Y9563D1*
X7094Y9659D1*
X7189D1*
X7285Y9610D1*
X7332Y9563D1*
X7380Y9467D1*
X7476Y9180D1*
X7524Y9084D1*
X7572Y9036D1*
X7667Y8989D1*
X7811D1*
X7906Y9084D1*
X7955Y9228D1*
Y9419D1*
X7906Y9563D1*
X7811Y9659D1*
X7285Y8631D2*
X7955Y8345D1*
X8146Y8440D1*
X8242Y8536D1*
X8290Y8631D1*
Y8680D1*
X7285Y8058D2*
X7955Y8345D1*
X7572Y7749D2*
Y7175D1*
X7476D1*
X7380Y7223D1*
X7332Y7270D1*
X7285Y7366D1*
Y7510D1*
X7332Y7605D1*
X7429Y7701D1*
X7572Y7749D1*
X7667D1*
X7811Y7701D1*
X7906Y7605D1*
X7955Y7510D1*
Y7366D1*
X7906Y7270D1*
X7811Y7175D1*
X6950Y6293D2*
X7955D1*
X7429D2*
X7332Y6388D1*
X7285Y6484D1*
Y6628D1*
X7332Y6723D1*
X7429Y6819D1*
X7572Y6866D1*
X7667D1*
X7811Y6819D1*
X7906Y6723D1*
X7955Y6628D1*
Y6484D1*
X7906Y6388D1*
X7811Y6293D1*
X10604Y27303D2*
X10556D1*
X10460Y27256D1*
X10413Y27208D1*
X10365Y27112D1*
Y26921D1*
X10413Y26826D1*
X10460Y26778D1*
X10556Y26730D1*
X10651D1*
X10748Y26778D1*
X10890Y26873D1*
X11369Y27352D1*
Y26682D1*
X10365Y26086D2*
X10413Y26230D1*
X10556Y26326D1*
X10795Y26373D1*
X10939D1*
X11178Y26326D1*
X11321Y26230D1*
X11369Y26086D1*
Y25991D1*
X11321Y25847D1*
X11178Y25752D1*
X10939Y25704D1*
X10795D1*
X10556Y25752D1*
X10413Y25847D1*
X10365Y25991D1*
Y26086D1*
X10556Y25752D2*
X11178Y26326D1*
X10556Y25395D2*
X10508Y25299D1*
X10365Y25155D1*
X11369D1*
Y24367D2*
X10365D1*
X11034Y24846D1*
Y24129D1*
X5210Y22492D2*
X5115Y22539D1*
X5019Y22636D1*
X4971Y22731D1*
Y22922D1*
X5019Y23018D1*
X5115Y23113D1*
X5210Y23162D1*
X5354Y23209D1*
X5594D1*
X5736Y23162D1*
X5832Y23113D1*
X5927Y23018D1*
X5976Y22922D1*
Y22731D1*
X5927Y22636D1*
X5832Y22539D1*
X5736Y22492D1*
X5594D1*
Y22731D1*
Y22183D2*
Y21609D1*
X5497D1*
X5401Y21657D1*
X5354Y21705D1*
X5306Y21801D1*
Y21944D1*
X5354Y22039D1*
X5450Y22136D1*
X5594Y22183D1*
X5689D1*
X5832Y22136D1*
X5927Y22039D1*
X5976Y21944D1*
Y21801D1*
X5927Y21705D1*
X5832Y21609D1*
X4971Y21301D2*
X5019Y21253D1*
X4971Y21204D1*
X4923Y21253D1*
X4971Y21301D1*
X5306Y21253D2*
X5976D1*
X5354Y20322D2*
X6120D1*
X6262Y20370D1*
X6311Y20417D1*
X6359Y20513D1*
Y20657D1*
X6311Y20752D1*
X5497Y20322D2*
X5402Y20417D1*
X5354Y20513D1*
Y20657D1*
X5402Y20752D1*
X5497Y20848D1*
X5641Y20896D1*
X5737D1*
X5880Y20848D1*
X5976Y20752D1*
X6024Y20657D1*
Y20513D1*
X5976Y20417D1*
X5880Y20322D1*
X5594Y20013D2*
Y19440D1*
X5497D1*
X5401Y19487D1*
X5354Y19535D1*
X5306Y19631D1*
Y19774D1*
X5354Y19870D1*
X5450Y19966D1*
X5594Y20013D1*
X5689D1*
X5832Y19966D1*
X5927Y19870D1*
X5976Y19774D1*
Y19631D1*
X5927Y19535D1*
X5832Y19440D1*
X5306Y19131D2*
X5976D1*
X5594D2*
X5450Y19082D1*
X5354Y18987D1*
X5306Y18891D1*
Y18747D1*
X4971Y17466D2*
X5976Y17084D1*
X4971Y16701D1*
X5115Y15819D2*
X5020Y15866D1*
X4972Y16010D1*
Y16105D1*
X5020Y16249D1*
X5164Y16345D1*
X5402Y16393D1*
X5641D1*
X5832Y16345D1*
X5929Y16249D1*
X5976Y16105D1*
Y16058D1*
X5929Y15915D1*
X5832Y15819D1*
X5689Y15771D1*
X5641D1*
X5497Y15819D1*
X5402Y15915D1*
X5355Y16058D1*
Y16105D1*
X5402Y16249D1*
X5497Y16345D1*
X5641Y16393D1*
M02*
