G04 DipTrace 2.4.0.1*
%INBottom.gbr*%
%MOIN*%
%ADD13C,0.013*%
%ADD14C,0.007*%
%ADD15C,0.025*%
%ADD24R,0.0591X0.0591*%
%ADD25C,0.0591*%
%ADD28C,0.3*%
%ADD29C,0.1*%
%ADD30C,0.04*%
%ADD32C,0.028*%
%FSLAX44Y44*%
G04*
G70*
G90*
G75*
G01*
%LNBottom*%
%LPD*%
X9565Y12315D2*
D13*
Y12565D1*
X9315Y12815D1*
X7700D1*
X6539Y6815D2*
X7815D1*
X9065Y5565D1*
X7815Y6815D2*
Y10940D1*
X9190Y12315D1*
X9565D1*
X8315Y23315D2*
X6279D1*
X5797Y23797D1*
X7700Y12815D2*
X6815D1*
X6565Y13065D1*
Y13565D1*
X6815Y13815D1*
X7065D1*
X7315Y14065D1*
Y14815D1*
X8565Y16315D2*
Y16565D1*
X6065Y19065D1*
Y20565D1*
X6565Y21065D1*
X8792Y9815D2*
X9565D1*
X10065Y10315D1*
Y11815D1*
Y12815D1*
X9565Y13315D1*
X9065Y13815D1*
X8315D1*
X7815Y13315D1*
X7300D1*
X10815Y11815D2*
X10065D1*
X8565Y12315D2*
X8315D1*
X7815Y11815D1*
X6065D1*
X5815Y12065D1*
Y12800D1*
X5830Y12815D1*
D14*
X5460D1*
X5210Y13065D1*
Y14628D1*
X5002D1*
X4815Y14815D1*
X5505Y13315D2*
D13*
Y14505D1*
X6315Y15315D1*
X9815D1*
X10315Y14815D1*
Y14315D1*
X9815Y13815D1*
X9565D1*
X10815D2*
X10786D1*
X10315Y14286D1*
Y14315D1*
X10065Y15815D2*
X8565D1*
X10815Y8815D2*
X10440D1*
X9940Y8315D1*
X8792D1*
X10815Y8815D2*
X11315Y9315D1*
Y18815D1*
X10565Y19565D1*
X6565D1*
X4815Y9815D2*
X5539D1*
X6539Y8815D1*
X4815Y9815D2*
X4315Y10315D1*
Y26565D1*
X5065Y27315D1*
X5779D1*
X5797Y27333D1*
X6539Y7815D2*
X5815D1*
X5565Y7565D1*
Y6815D1*
X6565Y5815D1*
Y5065D1*
X7065Y4565D1*
X4815Y7815D2*
X6539D1*
X6565Y7315D2*
X5815D1*
Y7065D1*
X6565Y6315D1*
X7065D1*
X7565Y5815D1*
Y5065D1*
X8065Y4565D1*
X10815Y7815D2*
X8792D1*
X10815Y6815D2*
X10065D1*
X9565Y7315D1*
X8792D1*
X10815Y5815D2*
X10565D1*
X9565Y6815D1*
X8792D1*
X4815Y10815D2*
X5039D1*
X6539Y9315D1*
X10815Y9815D2*
X9815Y8815D1*
X8792D1*
X10815Y10815D2*
Y10565D1*
X9565Y9315D1*
X8792D1*
X4815Y12815D2*
X5065D1*
X5565Y12315D1*
Y11315D1*
X6539Y10341D1*
Y10315D1*
X4815Y8815D2*
X6039D1*
X6539Y8315D1*
X9565Y14315D2*
X9065Y14815D1*
X8065D1*
X7815Y14565D1*
Y13930D1*
X7700Y13815D1*
X9065Y4565D2*
X9315D1*
X9565Y4815D1*
Y6065D1*
X9315Y6315D1*
X8815D1*
X8315Y6815D1*
Y11065D1*
X8565Y11315D1*
X8792D1*
D30*
X8315Y23315D3*
X7315Y14815D3*
X8565Y16315D3*
X6565Y21065D3*
D32*
X9565Y13815D3*
D30*
X10065Y15815D3*
X8565D3*
X6565Y19565D3*
X6539Y11315D3*
Y10815D3*
Y10315D3*
Y9815D3*
Y9315D3*
Y8815D3*
Y8315D3*
Y7815D3*
X6565Y7315D3*
X6539Y6815D3*
X8792D3*
Y7315D3*
Y7815D3*
Y8315D3*
Y8815D3*
Y9315D3*
Y9815D3*
Y10315D3*
Y10815D3*
Y11315D3*
X5830Y13815D3*
X5505Y13315D3*
X5830Y12815D3*
X7700D3*
X7300Y13315D3*
X7700Y13815D3*
X6422Y27806D2*
D15*
X8708D1*
X9957D2*
X11279D1*
X6555Y27558D2*
X8575D1*
X10090D2*
X11279D1*
X6586Y27309D2*
X7271D1*
X7860D2*
X8544D1*
X10121D2*
X11279D1*
X10071Y27060D2*
X11279D1*
X5051Y26812D2*
X5212D1*
X9918D2*
X11279D1*
X4805Y26563D2*
X6083D1*
X9047D2*
X11279D1*
X4668Y26314D2*
X5943D1*
X9188D2*
X11279D1*
X5399Y26065D2*
X5849D1*
X9282D2*
X11279D1*
X5399Y25817D2*
X5794D1*
X9336D2*
X11279D1*
X5399Y25568D2*
X5775D1*
X9356D2*
X11279D1*
X5399Y25319D2*
X5794D1*
X9336D2*
X11279D1*
X5399Y25071D2*
X5845D1*
X9286D2*
X11279D1*
X4668Y24822D2*
X5939D1*
X9192D2*
X11279D1*
X4668Y24573D2*
X6079D1*
X9051D2*
X11279D1*
X4668Y24325D2*
X6286D1*
X9911D2*
X11279D1*
X4668Y24076D2*
X6591D1*
X10071D2*
X11279D1*
X4668Y23827D2*
X7232D1*
X7899D2*
X8544D1*
X10121D2*
X11279D1*
X4668Y23579D2*
X8575D1*
X10090D2*
X11279D1*
X4668Y23330D2*
X8700D1*
X9965D2*
X11279D1*
X4668Y23081D2*
X9040D1*
X9625D2*
X11279D1*
X4668Y22833D2*
X11279D1*
X4668Y22584D2*
X11279D1*
X4668Y22335D2*
X11279D1*
X4668Y22086D2*
X11279D1*
X4668Y21838D2*
X11279D1*
X4668Y21589D2*
X11279D1*
X4668Y21340D2*
X11279D1*
X4668Y21092D2*
X11279D1*
X4668Y20843D2*
X11279D1*
X4668Y20594D2*
X11279D1*
X4668Y20346D2*
X11279D1*
X4668Y20097D2*
X11279D1*
X4668Y19848D2*
X6173D1*
X10758D2*
X11279D1*
X4668Y19600D2*
X6075D1*
X11024D2*
X11279D1*
X4668Y19351D2*
X6126D1*
X4668Y19102D2*
X6497D1*
X6633D2*
X10536D1*
X4668Y18854D2*
X10786D1*
X4668Y18605D2*
X10958D1*
X4668Y18356D2*
X10958D1*
X4668Y18107D2*
X10958D1*
X4668Y17859D2*
X10958D1*
X4668Y17610D2*
X10958D1*
X4668Y17361D2*
X10958D1*
X4668Y17113D2*
X10958D1*
X4668Y16864D2*
X10958D1*
X4668Y16615D2*
X10958D1*
X4668Y16367D2*
X10958D1*
X4668Y16118D2*
X8189D1*
X10442D2*
X10958D1*
X4668Y15869D2*
X8079D1*
X10551D2*
X10958D1*
X4668Y15621D2*
X6165D1*
X10512D2*
X10958D1*
X5399Y15372D2*
X5880D1*
X10250D2*
X10732D1*
X5399Y15123D2*
X5630D1*
X5235Y6419D2*
X5470D1*
X4350Y6170D2*
X5720D1*
X4350Y5922D2*
X5607D1*
X4350Y5673D2*
X5489D1*
X4350Y5424D2*
X5497D1*
X4350Y5176D2*
X5638D1*
X4350Y4927D2*
X5614D1*
X4350Y4678D2*
X5493D1*
X4350Y4430D2*
X5497D1*
X4641Y26163D2*
X5375D1*
Y25042D1*
X4645D1*
Y15374D1*
X5375Y15375D1*
Y14879D1*
X5448Y14915D1*
X6082Y15548D1*
X6184Y15618D1*
X6315Y15645D1*
X8131D1*
X8108Y15730D1*
X8102Y15854D1*
X8129Y15976D1*
X8187Y16086D1*
X8273Y16177D1*
X8379Y16241D1*
X8499Y16275D1*
X8624Y16276D1*
X8744Y16244D1*
X8852Y16181D1*
X8887Y16145D1*
X9741D1*
X9773Y16177D1*
X9879Y16241D1*
X9999Y16275D1*
X10124Y16276D1*
X10244Y16244D1*
X10352Y16181D1*
X10439Y16092D1*
X10499Y15983D1*
X10528Y15862D1*
X10530Y15815D1*
X10513Y15691D1*
X10464Y15577D1*
X10387Y15479D1*
X10286Y15406D1*
X10217Y15380D1*
X10405Y15192D1*
X10456Y15245D1*
X10560Y15314D1*
X10676Y15358D1*
X10800Y15375D1*
X10924Y15365D1*
X10987Y15345D1*
X10985Y17940D1*
Y18678D1*
X10427Y19236D1*
X6889Y19235D1*
X6786Y19156D1*
X6670Y19112D1*
X6545Y19100D1*
X6423Y19122D1*
X6310Y19176D1*
X6216Y19258D1*
X6147Y19361D1*
X6108Y19480D1*
X6102Y19604D1*
X6129Y19726D1*
X6187Y19836D1*
X6273Y19927D1*
X6379Y19991D1*
X6499Y20025D1*
X6624Y20026D1*
X6744Y19994D1*
X6852Y19931D1*
X6887Y19895D1*
X10565D1*
X10687Y19872D1*
X10798Y19798D1*
X11304Y19293D1*
X11305Y28055D1*
X9597Y28051D1*
X9710Y27998D1*
X9814Y27928D1*
X9904Y27842D1*
X9979Y27742D1*
X10037Y27631D1*
X10076Y27513D1*
X10098Y27333D1*
X10088Y27208D1*
X10057Y27087D1*
X10008Y26973D1*
X9940Y26868D1*
X9856Y26775D1*
X9759Y26697D1*
X9650Y26636D1*
X9532Y26594D1*
X9409Y26572D1*
X9284Y26569D1*
X9161Y26587D1*
X9042Y26625D1*
X8934Y26680D1*
X9073Y26482D1*
X9187Y26260D1*
X9269Y26024D1*
X9317Y25779D1*
X9330Y25565D1*
X9312Y25316D1*
X9260Y25072D1*
X9173Y24837D1*
X9054Y24618D1*
X8927Y24444D1*
X8990Y24481D1*
X9106Y24528D1*
X9228Y24555D1*
X9353Y24562D1*
X9477Y24549D1*
X9597Y24515D1*
X9710Y24462D1*
X9814Y24392D1*
X9904Y24306D1*
X9979Y24206D1*
X10037Y24096D1*
X10076Y23977D1*
X10098Y23797D1*
X10088Y23673D1*
X10057Y23552D1*
X10008Y23437D1*
X9940Y23332D1*
X9856Y23239D1*
X9759Y23162D1*
X9650Y23101D1*
X9532Y23059D1*
X9409Y23036D1*
X9284Y23034D1*
X9161Y23052D1*
X9042Y23090D1*
X8931Y23146D1*
X8830Y23220D1*
X8743Y23310D1*
X8672Y23412D1*
X8618Y23525D1*
X8583Y23645D1*
X8568Y23769D1*
X8574Y23894D1*
X8600Y24016D1*
X8645Y24132D1*
X8687Y24203D1*
X8531Y24088D1*
X8313Y23966D1*
X8080Y23877D1*
X7836Y23821D1*
X7587Y23800D1*
X7338Y23815D1*
X7093Y23864D1*
X6858Y23948D1*
X6637Y24064D1*
X6434Y24210D1*
X6254Y24383D1*
X6100Y24580D1*
X5976Y24797D1*
X5883Y25029D1*
X5825Y25271D1*
X5801Y25520D1*
X5812Y25770D1*
X5858Y26015D1*
X5939Y26251D1*
X6052Y26474D1*
X6198Y26682D1*
X6114Y26636D1*
X5997Y26594D1*
X5874Y26572D1*
X5749Y26569D1*
X5625Y26587D1*
X5506Y26625D1*
X5395Y26682D1*
X5295Y26756D1*
X5208Y26845D1*
X5147Y26932D1*
X4644Y26427D1*
X4645Y26163D1*
X5811Y5068D2*
X5721Y5122D1*
X5632Y5209D1*
X5564Y5314D1*
X5521Y5431D1*
X5505Y5555D1*
X5516Y5679D1*
X5555Y5798D1*
X5619Y5905D1*
X5706Y5995D1*
X5842Y6076D1*
X5448Y6466D1*
X5329Y6585D1*
X5254Y6467D1*
X5167Y6379D1*
X5061Y6312D1*
X4944Y6270D1*
X4820Y6255D1*
X4696Y6268D1*
X4578Y6307D1*
X4471Y6372D1*
X4382Y6459D1*
X4325Y6548D1*
Y4325D1*
X5555D1*
X5521Y4431D1*
X5505Y4555D1*
X5516Y4679D1*
X5555Y4798D1*
X5619Y4905D1*
X5706Y4995D1*
X5813Y5065D1*
X6446Y26930D2*
X6562Y27017D1*
X6777Y27144D1*
X7007Y27240D1*
X7249Y27302D1*
X7498Y27329D1*
X7747Y27321D1*
X7993Y27277D1*
X8231Y27200D1*
X8455Y27089D1*
X8661Y26948D1*
X8682Y26931D1*
X8618Y27061D1*
X8583Y27180D1*
X8568Y27304D1*
X8574Y27429D1*
X8600Y27551D1*
X8645Y27668D1*
X8709Y27775D1*
X8789Y27871D1*
X8884Y27952D1*
X8990Y28017D1*
X9088Y28056D1*
X6051Y28055D1*
X6175Y27998D1*
X6278Y27928D1*
X6368Y27842D1*
X6444Y27742D1*
X6502Y27631D1*
X6541Y27513D1*
X6562Y27333D1*
X6552Y27208D1*
X6522Y27087D1*
X6445Y26930D1*
D24*
X4815Y25602D3*
D25*
Y24815D3*
D24*
X9065Y5565D3*
D25*
Y4565D3*
X8065Y5565D3*
Y4565D3*
X7065Y5565D3*
Y4565D3*
X6065Y5565D3*
Y4565D3*
D24*
X8565Y14315D3*
D25*
X9565D3*
X8565Y13315D3*
X9565D3*
X8565Y12315D3*
X9565D3*
D24*
X4815Y14815D3*
D25*
Y13815D3*
Y12815D3*
Y11815D3*
Y10815D3*
Y9815D3*
Y8815D3*
Y7815D3*
Y6815D3*
Y5815D3*
D24*
X10815D3*
D25*
Y6815D3*
Y7815D3*
Y8815D3*
Y9815D3*
Y10815D3*
Y11815D3*
Y12815D3*
Y13815D3*
Y14815D3*
D28*
X7565Y25565D3*
D29*
X9333Y23797D3*
X5797D3*
Y27333D3*
X9333D3*
M02*
