G04 DipTrace 2.4.0.1*
%INTop.gbr*%
%MOIN*%
%ADD13C,0.013*%
%ADD15C,0.025*%
%ADD16R,0.063X0.0709*%
%ADD18R,0.0827X0.0551*%
%ADD19R,0.118X0.11*%
%ADD21R,0.0846X0.0374*%
%ADD22R,0.0846X0.128*%
%ADD23R,0.0591X0.0512*%
%ADD24R,0.0591X0.0591*%
%ADD25C,0.0591*%
%ADD26R,0.0512X0.0591*%
%ADD27R,0.0787X0.0236*%
%ADD28C,0.3*%
%ADD29C,0.1*%
%ADD30C,0.04*%
%ADD32C,0.028*%
%FSLAX44Y44*%
G04*
G70*
G90*
G75*
G01*
%LNTop*%
%LPD*%
X5213Y22565D2*
D13*
Y23213D1*
X5797Y23797D1*
X5213Y22565D2*
Y21917D1*
X5565Y21565D1*
X6510D1*
X7626D1*
X7815Y21376D1*
X6539Y6815D2*
X5815D1*
X7700Y12815D2*
X6815D1*
X4815Y5815D2*
X5815Y6815D1*
X4815Y24815D2*
X5516D1*
X5565Y24864D1*
Y24029D1*
X5797Y23797D1*
X9565Y25067D2*
Y25065D1*
X8315Y23815D1*
Y23315D1*
X7071Y27565D2*
X7065D1*
X5565Y26065D1*
Y24864D1*
X7315Y14815D2*
Y15065D1*
X8565Y16315D1*
X6565Y21065D2*
Y21510D1*
X6510Y21565D1*
X7565Y23563D2*
Y25565D1*
X9065Y20030D2*
Y20065D1*
X8565Y20565D1*
X7909D1*
X7815Y20471D1*
X5532D1*
Y17082D1*
X5515Y17065D1*
X6315Y22565D2*
X7315D1*
X7565Y22815D1*
X9065Y21565D2*
Y22065D1*
X8315Y22815D1*
X7565D1*
X8792Y9815D2*
X9515D1*
X7300Y13315D2*
X6815D1*
X6539Y11315D2*
X5815D1*
X5830Y12815D2*
X6315D1*
X5815Y11315D2*
Y12800D1*
X5830Y12815D1*
X9071Y19065D2*
X8565D1*
Y17065D1*
X6815Y15315D1*
X5315D1*
X4815Y14815D1*
X8792Y10815D2*
X9515D1*
X5505Y13315D2*
X6315D1*
X8792Y10815D2*
X8565D1*
X8315Y11065D1*
Y11565D1*
X8565Y11815D1*
X8815D1*
X9065Y12065D1*
Y12815D1*
X8565Y13315D1*
X9565Y13815D2*
X9065D1*
X8565Y13315D1*
X8792Y10315D2*
X9515D1*
X5830Y13815D2*
X6315D1*
X8792Y10315D2*
X8565D1*
X8065Y10815D1*
Y13815D1*
X8565Y14315D1*
X7315D1*
X6815Y14815D1*
X6315D1*
X5815Y14315D1*
Y13830D1*
X5830Y13815D1*
X10815Y12815D2*
X11315Y13315D1*
Y15065D1*
X11065Y15315D1*
X10565D1*
X10065Y15815D1*
X8565D2*
Y14315D1*
X8792Y8315D2*
X9515D1*
X6565Y19565D2*
X7815D1*
X6539Y8815D2*
X5815D1*
X6539Y7815D2*
X5815D1*
X6565Y7315D2*
X5815D1*
X4815Y6815D2*
Y7065D1*
X5065Y7315D1*
X5815D1*
X8792Y7815D2*
X9515D1*
X8792D2*
X8565D1*
X6315Y5565D1*
X6065D1*
X8792Y7315D2*
X9515D1*
X8792D2*
X8565D1*
X7065Y5815D1*
Y5565D1*
X8792Y6815D2*
X9515D1*
X8792D2*
X8565D1*
X8065Y6315D1*
Y5565D1*
X6539Y9315D2*
X5815D1*
X6539Y9815D2*
X5815D1*
X4815Y11815D2*
X4315Y11315D1*
Y10565D1*
X4565Y10315D1*
X5065D1*
X5315Y10065D1*
Y9815D1*
X5815D1*
X8792Y8815D2*
X9515D1*
X8792Y9315D2*
X9515D1*
X6539Y10815D2*
X5815D1*
X4815Y13815D2*
X4315Y13315D1*
Y12565D1*
X4565Y12315D1*
X5065D1*
X5315Y12065D1*
Y11565D1*
X5065Y11315D1*
X5315Y11065D1*
Y10815D1*
X5815D1*
X6539Y10315D2*
X5815D1*
X6539Y8315D2*
X5815D1*
X8792Y11315D2*
X9515D1*
X7700Y13815D2*
X6815D1*
X9515Y11315D2*
X9815D1*
X10065Y11565D1*
Y13815D1*
X9565Y14315D1*
Y17065D2*
Y18811D1*
X9819Y19065D1*
Y23311D1*
X9333Y23797D1*
X10815Y14815D2*
X10065D1*
X9565Y14315D1*
Y17065D1*
Y25815D2*
Y26065D1*
X8065Y27565D1*
X7819D1*
X4815Y25602D2*
Y27565D1*
X5315Y28065D1*
X7319D1*
X7819Y27565D1*
X9565Y25815D2*
X9815D1*
X10065Y25565D1*
Y24529D1*
X9333Y23797D1*
D30*
X8315Y23315D3*
X7315Y14815D3*
X8565Y16315D3*
X6565Y21065D3*
D32*
X9565Y13815D3*
D30*
X10065Y15815D3*
X8565D3*
X6565Y19565D3*
X6539Y11315D3*
Y10815D3*
Y10315D3*
Y9815D3*
Y9315D3*
Y8815D3*
Y8315D3*
Y7815D3*
X6565Y7315D3*
X6539Y6815D3*
X8792D3*
Y7315D3*
Y7815D3*
Y8315D3*
Y8815D3*
Y9315D3*
Y9815D3*
Y10315D3*
Y10815D3*
Y11315D3*
X5830Y13815D3*
X5505Y13315D3*
X5830Y12815D3*
X7700D3*
X7300Y13315D3*
X7700Y13815D3*
X5168Y26563D2*
D15*
X6083D1*
X5168Y26314D2*
X5943D1*
X5399Y26065D2*
X5849D1*
X5399Y25817D2*
X5794D1*
X5399Y25568D2*
X5775D1*
X5399Y25319D2*
X5794D1*
X5399Y25071D2*
X5845D1*
X4350Y24822D2*
X5939D1*
X4350Y24573D2*
X6079D1*
X4350Y24325D2*
X6286D1*
X4350Y24076D2*
X6591D1*
X4350Y23827D2*
X6982D1*
X4350Y23579D2*
X6982D1*
X4350Y23330D2*
X6982D1*
X4350Y23081D2*
X5712D1*
X4350Y22833D2*
X5712D1*
X4350Y22584D2*
X5712D1*
X4350Y22335D2*
X5712D1*
X8149D2*
X8302D1*
X4350Y22086D2*
X5712D1*
X6918D2*
X8361D1*
X4350Y21838D2*
X8361D1*
X4350Y21589D2*
X8361D1*
X4350Y21340D2*
X4818D1*
X6246D2*
X8361D1*
X4350Y21092D2*
X4818D1*
X6246D2*
X8361D1*
X4350Y20843D2*
X4818D1*
X6246D2*
X7103D1*
X8766D2*
X9466D1*
X4350Y20594D2*
X4818D1*
X9028D2*
X9466D1*
X4350Y20346D2*
X4818D1*
X4350Y20097D2*
X4818D1*
X4350Y19848D2*
X4818D1*
X4350Y19600D2*
X4818D1*
X4350Y19351D2*
X5177D1*
X5887D2*
X6126D1*
X4350Y19102D2*
X5177D1*
X5887D2*
X6497D1*
X6633D2*
X8212D1*
X4350Y18854D2*
X5177D1*
X5887D2*
X8208D1*
X4350Y18605D2*
X5177D1*
X5887D2*
X8208D1*
X4350Y18356D2*
X5177D1*
X5887D2*
X8208D1*
X4350Y18107D2*
X5177D1*
X5887D2*
X8208D1*
X4350Y17859D2*
X4634D1*
X6395D2*
X8208D1*
X4350Y17610D2*
X4634D1*
X6395D2*
X8208D1*
X4350Y17361D2*
X4634D1*
X6395D2*
X8208D1*
X4350Y17113D2*
X4634D1*
X6395D2*
X8122D1*
X4350Y16864D2*
X4634D1*
X6395D2*
X7872D1*
X4350Y16615D2*
X4634D1*
X6395D2*
X7622D1*
X4350Y16367D2*
X4634D1*
X6395D2*
X7376D1*
X4350Y16118D2*
X7126D1*
X4350Y15869D2*
X6876D1*
X4350Y15621D2*
X5165D1*
X6754Y12885D2*
X7099D1*
X7500D2*
X7708D1*
X7309Y12636D2*
X7708D1*
X7438Y12388D2*
X7708D1*
X7407Y12139D2*
X7708D1*
X6344Y11890D2*
X6786D1*
X7145D2*
X7708D1*
X6895Y11642D2*
X7708D1*
X7024Y11393D2*
X7708D1*
X6996Y11144D2*
X7708D1*
X10200D2*
X10337D1*
X7020Y10896D2*
X7708D1*
X6996Y10647D2*
X7755D1*
X7020Y10398D2*
X7989D1*
X10200D2*
X10415D1*
X6996Y10149D2*
X8239D1*
X10200D2*
X10341D1*
X7020Y9901D2*
X8310D1*
X7000Y9652D2*
X8333D1*
X7020Y9403D2*
X8310D1*
X10200D2*
X10411D1*
X7000Y9155D2*
X8329D1*
X10200D2*
X10345D1*
X7020Y8906D2*
X8310D1*
X7000Y8657D2*
X8329D1*
X7020Y8409D2*
X8314D1*
X10200D2*
X10404D1*
X7000Y8160D2*
X8329D1*
X10200D2*
X10349D1*
X7020Y7911D2*
X8169D1*
X7004Y7663D2*
X7923D1*
X7043Y7414D2*
X7673D1*
X10200D2*
X10400D1*
X7032Y7165D2*
X7423D1*
X10200D2*
X10353D1*
X5391Y6917D2*
X6302D1*
X6829D2*
X7177D1*
X5379Y6668D2*
X6927D1*
X5235Y6419D2*
X6677D1*
X9059D2*
X10392D1*
X4350Y6170D2*
X6431D1*
X8418D2*
X10232D1*
X4350Y5922D2*
X5607D1*
X8520D2*
X10232D1*
X4350Y5673D2*
X5489D1*
X8641D2*
X10232D1*
X4350Y5424D2*
X5497D1*
X8633D2*
X10232D1*
X4350Y5176D2*
X5638D1*
X8493D2*
X11279D1*
X4350Y4927D2*
X5614D1*
X9516D2*
X11279D1*
X4350Y4678D2*
X5493D1*
X9637D2*
X11279D1*
X4350Y4430D2*
X5497D1*
X9633D2*
X11279D1*
X5860Y23184D2*
X6895D1*
Y22891D1*
X7006Y22895D1*
X7005Y23336D1*
Y23890D1*
X6745Y24002D1*
X6533Y24133D1*
X6341Y24293D1*
X6174Y24479D1*
X6034Y24686D1*
X5926Y24911D1*
X5850Y25149D1*
X5808Y25395D1*
X5802Y25645D1*
X5831Y25893D1*
X5894Y26135D1*
X5992Y26365D1*
X6120Y26579D1*
X6198Y26682D1*
X6114Y26636D1*
X5997Y26594D1*
X5874Y26572D1*
X5749Y26569D1*
X5625Y26587D1*
X5506Y26625D1*
X5395Y26682D1*
X5295Y26756D1*
X5208Y26845D1*
X5143Y26938D1*
X5145Y26163D1*
X5375D1*
Y25042D1*
X4326D1*
X4325Y15371D1*
X4755Y15375D1*
X4907D1*
X5082Y15548D1*
X5184Y15618D1*
X5315Y15645D1*
X6678D1*
X8236Y17203D1*
Y19069D1*
X8128Y19113D1*
X7127D1*
Y19234D1*
X6889Y19235D1*
X6786Y19156D1*
X6670Y19112D1*
X6545Y19100D1*
X6423Y19122D1*
X6310Y19176D1*
X6216Y19258D1*
X6147Y19361D1*
X6108Y19480D1*
X6103Y19569D1*
X5864Y19566D1*
X5862Y18096D1*
Y17881D1*
X6370Y17880D1*
Y16250D1*
X4660D1*
Y17880D1*
X5203D1*
X5202Y19562D1*
X4843Y19566D1*
Y21375D1*
X6220D1*
Y20801D1*
X7129D1*
X7127Y20923D1*
X8503D1*
Y20895D1*
X8565D1*
X8687Y20872D1*
X8798Y20798D1*
X9028Y20569D1*
X9492Y20570D1*
X9489Y21022D1*
X8387Y21024D1*
Y22106D1*
X8555D1*
X8177Y22486D1*
X8125Y22461D1*
Y22294D1*
X7504D1*
X7470Y22274D1*
X7352Y22237D1*
X6897Y22235D1*
X6895Y21946D1*
X5735D1*
Y23184D1*
X5860D1*
X9611Y4441D2*
X9575Y4325D1*
X11305D1*
Y5259D1*
X10875Y5255D1*
X10255D1*
Y6375D1*
X10470D1*
X10382Y6459D1*
X10314Y6564D1*
X10271Y6681D1*
X10255Y6805D1*
X10266Y6929D1*
X10305Y7048D1*
X10369Y7155D1*
X10456Y7245D1*
X10563Y7315D1*
X10471Y7372D1*
X10382Y7459D1*
X10314Y7564D1*
X10271Y7681D1*
X10255Y7805D1*
X10266Y7929D1*
X10305Y8048D1*
X10369Y8155D1*
X10456Y8245D1*
X10563Y8315D1*
X10471Y8372D1*
X10382Y8459D1*
X10314Y8564D1*
X10271Y8681D1*
X10255Y8805D1*
X10266Y8929D1*
X10305Y9048D1*
X10369Y9155D1*
X10456Y9245D1*
X10563Y9315D1*
X10471Y9372D1*
X10382Y9459D1*
X10314Y9564D1*
X10271Y9681D1*
X10255Y9805D1*
X10266Y9929D1*
X10305Y10048D1*
X10369Y10155D1*
X10456Y10245D1*
X10563Y10315D1*
X10471Y10372D1*
X10382Y10459D1*
X10314Y10564D1*
X10271Y10681D1*
X10255Y10805D1*
X10266Y10929D1*
X10305Y11048D1*
X10369Y11155D1*
X10456Y11245D1*
X10563Y11315D1*
X10471Y11372D1*
X10380Y11463D1*
X10298Y11332D1*
X10174Y11207D1*
X10170Y10932D1*
X10174Y10823D1*
X10170Y10432D1*
X10174Y10323D1*
X10170Y9932D1*
X10174Y9823D1*
X10170Y9432D1*
X10174Y9323D1*
X10170Y8932D1*
X10174Y8823D1*
X10170Y8432D1*
X10174Y8323D1*
X10170Y7932D1*
X10174Y7823D1*
X10170Y7432D1*
X10174Y7323D1*
X10170Y6932D1*
X10174Y6823D1*
Y6432D1*
X9053D1*
X9013Y6406D1*
X8897Y6362D1*
X8773Y6350D1*
X8650Y6372D1*
X8611Y6391D1*
X8392Y6176D1*
X8395Y6014D1*
X8492Y5928D1*
X8561Y5825D1*
X8607Y5709D1*
X8625Y5565D1*
X8611Y5441D1*
X8570Y5323D1*
X8504Y5217D1*
X8417Y5129D1*
X8315Y5064D1*
X8401Y5014D1*
X8492Y4928D1*
X8566Y4814D1*
X8619Y4905D1*
X8706Y4995D1*
X8810Y5064D1*
X8926Y5108D1*
X9050Y5125D1*
X9174Y5115D1*
X9293Y5077D1*
X9401Y5014D1*
X9492Y4928D1*
X9561Y4825D1*
X9607Y4709D1*
X9625Y4565D1*
X9611Y4441D1*
X5811Y5068D2*
X5721Y5122D1*
X5632Y5209D1*
X5564Y5314D1*
X5521Y5431D1*
X5505Y5555D1*
X5516Y5679D1*
X5555Y5798D1*
X5619Y5905D1*
X5706Y5995D1*
X5810Y6064D1*
X5926Y6108D1*
X6050Y6125D1*
X6174Y6115D1*
X6293Y6077D1*
X6337Y6051D1*
X8335Y8051D1*
X8374Y8111D1*
X8335Y8230D1*
X8329Y8354D1*
X8356Y8476D1*
X8401Y8562D1*
X8374Y8611D1*
X8335Y8730D1*
X8329Y8854D1*
X8356Y8976D1*
X8401Y9062D1*
X8374Y9111D1*
X8335Y9230D1*
X8329Y9354D1*
X8356Y9476D1*
X8401Y9562D1*
X8374Y9611D1*
X8335Y9730D1*
X8329Y9854D1*
X8356Y9976D1*
X8387Y10034D1*
X8243Y10170D1*
X7832Y10582D1*
X7762Y10684D1*
X7735Y10815D1*
Y13155D1*
X7699Y13077D1*
X7622Y12979D1*
X7521Y12906D1*
X7405Y12862D1*
X7280Y12850D1*
X7158Y12872D1*
X7045Y12926D1*
X7014Y12945D1*
X6937Y12913D1*
X6865Y12898D1*
X6792Y12896D1*
X6725Y12904D1*
X6735Y12802D1*
X6724Y12719D1*
X6716Y12692D1*
X6837Y12748D1*
X6960Y12767D1*
X7084Y12751D1*
X7198Y12702D1*
X7295Y12624D1*
X7367Y12522D1*
X7408Y12404D1*
X7417Y12315D1*
X7400Y12192D1*
X7350Y12078D1*
X7270Y11982D1*
X7168Y11911D1*
X7050Y11871D1*
X6925Y11865D1*
X6804Y11893D1*
X6694Y11953D1*
X6606Y12040D1*
X6566Y12112D1*
X6550Y12078D1*
X6470Y11982D1*
X6368Y11911D1*
X6250Y11871D1*
X6145Y11866D1*
Y11694D1*
X6277Y11698D1*
X6353Y11741D1*
X6473Y11775D1*
X6597Y11776D1*
X6718Y11744D1*
X6825Y11681D1*
X6912Y11592D1*
X6972Y11483D1*
X7001Y11362D1*
X7004Y11315D1*
X6987Y11191D1*
X6931Y11068D1*
X6972Y10983D1*
X7001Y10862D1*
X7004Y10815D1*
X6987Y10691D1*
X6931Y10568D1*
X6972Y10483D1*
X7001Y10362D1*
X7004Y10315D1*
X6987Y10191D1*
X6931Y10068D1*
X6972Y9983D1*
X7001Y9862D1*
X7004Y9815D1*
X6987Y9691D1*
X6931Y9568D1*
X6972Y9483D1*
X7001Y9362D1*
X7004Y9315D1*
X6987Y9191D1*
X6931Y9068D1*
X6972Y8983D1*
X7001Y8862D1*
X7004Y8815D1*
X6987Y8691D1*
X6931Y8568D1*
X6972Y8483D1*
X7001Y8362D1*
X7004Y8315D1*
X6987Y8191D1*
X6931Y8068D1*
X6972Y7983D1*
X7001Y7862D1*
X7004Y7815D1*
X6987Y7691D1*
X6943Y7588D1*
X6999Y7483D1*
X7028Y7362D1*
X7030Y7315D1*
X7013Y7191D1*
X6964Y7077D1*
X6887Y6979D1*
X6786Y6906D1*
X6670Y6862D1*
X6545Y6850D1*
X6423Y6872D1*
X6301Y6934D1*
X5360Y6932D1*
X5375Y6815D1*
X5361Y6691D1*
X5320Y6573D1*
X5254Y6467D1*
X5167Y6379D1*
X5061Y6312D1*
X4944Y6270D1*
X4820Y6255D1*
X4696Y6268D1*
X4578Y6307D1*
X4471Y6372D1*
X4382Y6459D1*
X4325Y6548D1*
Y4325D1*
X5555D1*
X5521Y4431D1*
X5505Y4555D1*
X5516Y4679D1*
X5555Y4798D1*
X5619Y4905D1*
X5706Y4995D1*
X5813Y5065D1*
D16*
X6315Y22565D3*
X5213D3*
D18*
X9065Y21565D3*
Y20030D3*
D19*
X9565Y17065D3*
X5515D3*
D21*
X7815Y19565D3*
Y20471D3*
Y21376D3*
D22*
X5532Y20471D3*
D23*
X7565Y22815D3*
Y23563D3*
D24*
X4815Y25602D3*
D25*
Y24815D3*
D26*
X7819Y27565D3*
X7071D3*
D23*
X9565Y25815D3*
Y25067D3*
D24*
X9065Y5565D3*
D25*
Y4565D3*
X8065Y5565D3*
Y4565D3*
X7065Y5565D3*
Y4565D3*
X6065Y5565D3*
Y4565D3*
D24*
X8565Y14315D3*
D25*
X9565D3*
X8565Y13315D3*
X9565D3*
X8565Y12315D3*
X9565D3*
D26*
X9819Y19065D3*
X9071D3*
G36*
X6815Y13660D2*
X6842Y13662D1*
X6868Y13669D1*
X6893Y13681D1*
X6915Y13696D1*
X6934Y13715D1*
X6949Y13737D1*
X6961Y13762D1*
X6968Y13788D1*
X6970Y13815D1*
D1*
X6968Y13842D1*
X6961Y13868D1*
X6949Y13893D1*
X6934Y13915D1*
X6915Y13934D1*
X6893Y13949D1*
X6868Y13961D1*
X6842Y13968D1*
X6815Y13970D1*
D1*
X6788Y13968D1*
X6762Y13961D1*
X6737Y13949D1*
X6715Y13934D1*
X6696Y13915D1*
X6681Y13893D1*
X6669Y13868D1*
X6662Y13842D1*
X6660Y13815D1*
D1*
X6662Y13788D1*
X6669Y13762D1*
X6681Y13737D1*
X6696Y13715D1*
X6715Y13696D1*
X6737Y13681D1*
X6762Y13669D1*
X6788Y13662D1*
X6815Y13660D1*
G37*
G36*
Y13160D2*
X6842Y13162D1*
X6868Y13169D1*
X6893Y13181D1*
X6915Y13196D1*
X6934Y13215D1*
X6949Y13237D1*
X6961Y13262D1*
X6968Y13288D1*
X6970Y13315D1*
D1*
X6968Y13342D1*
X6961Y13368D1*
X6949Y13393D1*
X6934Y13415D1*
X6915Y13434D1*
X6893Y13449D1*
X6868Y13461D1*
X6842Y13468D1*
X6815Y13470D1*
D1*
X6788Y13468D1*
X6762Y13461D1*
X6737Y13449D1*
X6715Y13434D1*
X6696Y13415D1*
X6681Y13393D1*
X6669Y13368D1*
X6662Y13342D1*
X6660Y13315D1*
D1*
X6662Y13288D1*
X6669Y13262D1*
X6681Y13237D1*
X6696Y13215D1*
X6715Y13196D1*
X6737Y13181D1*
X6762Y13169D1*
X6788Y13162D1*
X6815Y13160D1*
G37*
G36*
Y12660D2*
X6842Y12662D1*
X6868Y12669D1*
X6893Y12681D1*
X6915Y12696D1*
X6934Y12715D1*
X6949Y12737D1*
X6961Y12762D1*
X6968Y12788D1*
X6970Y12815D1*
D1*
X6968Y12842D1*
X6961Y12868D1*
X6949Y12893D1*
X6934Y12915D1*
X6915Y12934D1*
X6893Y12949D1*
X6868Y12961D1*
X6842Y12968D1*
X6815Y12970D1*
D1*
X6788Y12968D1*
X6762Y12961D1*
X6737Y12949D1*
X6715Y12934D1*
X6696Y12915D1*
X6681Y12893D1*
X6669Y12868D1*
X6662Y12842D1*
X6660Y12815D1*
D1*
X6662Y12788D1*
X6669Y12762D1*
X6681Y12737D1*
X6696Y12715D1*
X6715Y12696D1*
X6737Y12681D1*
X6762Y12669D1*
X6788Y12662D1*
X6815Y12660D1*
G37*
G36*
X6315D2*
X6342Y12662D1*
X6368Y12669D1*
X6393Y12681D1*
X6415Y12696D1*
X6434Y12715D1*
X6449Y12737D1*
X6461Y12762D1*
X6468Y12788D1*
X6470Y12815D1*
D1*
X6468Y12842D1*
X6461Y12868D1*
X6449Y12893D1*
X6434Y12915D1*
X6415Y12934D1*
X6393Y12949D1*
X6368Y12961D1*
X6342Y12968D1*
X6315Y12970D1*
D1*
X6288Y12968D1*
X6262Y12961D1*
X6237Y12949D1*
X6215Y12934D1*
X6196Y12915D1*
X6181Y12893D1*
X6169Y12868D1*
X6162Y12842D1*
X6160Y12815D1*
D1*
X6162Y12788D1*
X6169Y12762D1*
X6181Y12737D1*
X6196Y12715D1*
X6215Y12696D1*
X6237Y12681D1*
X6262Y12669D1*
X6288Y12662D1*
X6315Y12660D1*
G37*
G36*
Y13160D2*
X6342Y13162D1*
X6368Y13169D1*
X6393Y13181D1*
X6415Y13196D1*
X6434Y13215D1*
X6449Y13237D1*
X6461Y13262D1*
X6468Y13288D1*
X6470Y13315D1*
D1*
X6468Y13342D1*
X6461Y13368D1*
X6449Y13393D1*
X6434Y13415D1*
X6415Y13434D1*
X6393Y13449D1*
X6368Y13461D1*
X6342Y13468D1*
X6315Y13470D1*
D1*
X6288Y13468D1*
X6262Y13461D1*
X6237Y13449D1*
X6215Y13434D1*
X6196Y13415D1*
X6181Y13393D1*
X6169Y13368D1*
X6162Y13342D1*
X6160Y13315D1*
D1*
X6162Y13288D1*
X6169Y13262D1*
X6181Y13237D1*
X6196Y13215D1*
X6215Y13196D1*
X6237Y13181D1*
X6262Y13169D1*
X6288Y13162D1*
X6315Y13160D1*
G37*
G36*
Y13660D2*
X6342Y13662D1*
X6368Y13669D1*
X6393Y13681D1*
X6415Y13696D1*
X6434Y13715D1*
X6449Y13737D1*
X6461Y13762D1*
X6468Y13788D1*
X6470Y13815D1*
D1*
X6468Y13842D1*
X6461Y13868D1*
X6449Y13893D1*
X6434Y13915D1*
X6415Y13934D1*
X6393Y13949D1*
X6368Y13961D1*
X6342Y13968D1*
X6315Y13970D1*
D1*
X6288Y13968D1*
X6262Y13961D1*
X6237Y13949D1*
X6215Y13934D1*
X6196Y13915D1*
X6181Y13893D1*
X6169Y13868D1*
X6162Y13842D1*
X6160Y13815D1*
D1*
X6162Y13788D1*
X6169Y13762D1*
X6181Y13737D1*
X6196Y13715D1*
X6215Y13696D1*
X6237Y13681D1*
X6262Y13669D1*
X6288Y13662D1*
X6315Y13660D1*
G37*
D24*
X4815Y14815D3*
D25*
Y13815D3*
Y12815D3*
Y11815D3*
Y10815D3*
Y9815D3*
Y8815D3*
Y7815D3*
Y6815D3*
Y5815D3*
D24*
X10815D3*
D25*
Y6815D3*
Y7815D3*
Y8815D3*
Y9815D3*
Y10815D3*
Y11815D3*
Y12815D3*
Y13815D3*
Y14815D3*
D27*
X5815Y11315D3*
Y10815D3*
Y10315D3*
Y9815D3*
Y9315D3*
Y8815D3*
Y8315D3*
Y7815D3*
Y7315D3*
Y6815D3*
X9515D3*
Y7315D3*
Y7815D3*
Y8315D3*
Y8815D3*
Y9315D3*
Y9815D3*
Y10315D3*
Y10815D3*
Y11315D3*
D28*
X7565Y25565D3*
D29*
X9333Y23797D3*
X5797D3*
Y27333D3*
X9333D3*
M02*
