G04 DipTrace 2.4.0.1*
%INBottom.gbr*%
%MOIN*%
%ADD13C,0.013*%
%ADD14C,0.025*%
%ADD20C,0.3*%
%ADD21C,0.1*%
%ADD22C,0.04*%
%FSLAX44Y44*%
G04*
G70*
G90*
G75*
G01*
%LNBottom*%
%LPD*%
X7565Y5565D2*
D13*
X6815Y4815D1*
X5315D1*
X5065Y5065D1*
Y5529D1*
X5047Y5547D1*
X4815Y8315D2*
X4690D1*
Y6815D1*
X6190Y5315D1*
D22*
X7565Y5565D3*
X4815Y8315D3*
X6190Y5315D3*
X8297Y8312D2*
D14*
X9029D1*
X8438Y8063D2*
X9029D1*
X8532Y7814D2*
X9029D1*
X8586Y7565D2*
X9029D1*
X8606Y7317D2*
X9029D1*
X8586Y7068D2*
X9029D1*
X8536Y6819D2*
X9029D1*
X8442Y6571D2*
X9029D1*
X4350Y6322D2*
X4693D1*
X8297D2*
X9029D1*
X4350Y6073D2*
X4939D1*
X4350Y5825D2*
X5189D1*
X4350Y5576D2*
X5439D1*
X7141D2*
X7794D1*
X4350Y5327D2*
X5685D1*
X6680D2*
X7825D1*
X4350Y5079D2*
X5763D1*
X6614D2*
X7954D1*
X4350Y4830D2*
X8294D1*
X8871D2*
X9032D1*
X4350Y4581D2*
X9029D1*
X4350Y4333D2*
X9029D1*
X8576Y7190D2*
X8540Y6943D1*
X8470Y6703D1*
X8368Y6475D1*
X8233Y6265D1*
X8177Y6194D1*
X8240Y6231D1*
X8356Y6278D1*
X8478Y6305D1*
X8603Y6312D1*
X8727Y6299D1*
X8847Y6265D1*
X8960Y6212D1*
X9054Y6149D1*
X9055Y8477D1*
X8900Y8386D1*
X8782Y8344D1*
X8659Y8322D1*
X8534Y8319D1*
X8411Y8337D1*
X8292Y8375D1*
X8184Y8430D1*
X8323Y8232D1*
X8437Y8010D1*
X8519Y7774D1*
X8567Y7529D1*
X8580Y7315D1*
X8576Y7190D1*
X7935Y5952D2*
X7781Y5838D1*
X7563Y5716D1*
X7330Y5627D1*
X7086Y5571D1*
X6837Y5550D1*
X6584Y5565D1*
X6624Y5483D1*
X6653Y5362D1*
X6655Y5315D1*
X6638Y5191D1*
X6589Y5077D1*
X6512Y4979D1*
X6411Y4906D1*
X6295Y4862D1*
X6170Y4850D1*
X6048Y4872D1*
X5935Y4926D1*
X5841Y5008D1*
X5772Y5111D1*
X5733Y5230D1*
X5729Y5311D1*
X4457Y6582D1*
X4387Y6684D1*
X4360Y6815D1*
X4358Y8230D1*
X4352Y8354D1*
X4379Y8476D1*
X4450Y8600D1*
X4386Y8698D1*
X4325Y8837D1*
Y4325D1*
X9055D1*
Y4946D1*
X8900Y4851D1*
X8782Y4809D1*
X8659Y4786D1*
X8534Y4784D1*
X8411Y4802D1*
X8292Y4840D1*
X8181Y4896D1*
X8080Y4970D1*
X7993Y5060D1*
X7922Y5162D1*
X7868Y5275D1*
X7833Y5395D1*
X7818Y5519D1*
X7824Y5644D1*
X7850Y5766D1*
X7895Y5882D1*
X7937Y5953D1*
D20*
X6815Y7315D3*
D21*
X8583Y5547D3*
X5047D3*
Y9083D3*
X8583D3*
M02*
