G04 DipTrace 2.4.0.1*
%INTop.gbr*%
%MOIN*%
%ADD13C,0.013*%
%ADD14C,0.025*%
%ADD15R,0.0709X0.063*%
%ADD17R,0.0256X0.0413*%
%ADD18R,0.0512X0.0591*%
%ADD19R,0.0591X0.0512*%
%ADD20C,0.3*%
%ADD21C,0.1*%
%ADD22C,0.04*%
%FSLAX44Y44*%
G04*
G70*
G90*
G75*
G01*
%LNTop*%
%LPD*%
X5754Y5315D2*
D13*
X5279D1*
X5047Y5547D1*
Y5833D1*
X4815Y6065D1*
Y7061D1*
X8815Y6713D2*
X8713D1*
X7565Y5565D1*
X7313Y9315D2*
Y7813D1*
X6815Y7315D1*
X8815Y7815D2*
X7315D1*
X4815Y7809D2*
Y7815D1*
X6315Y9315D1*
X6565D1*
X4815Y7809D2*
Y8315D1*
X6190Y5315D2*
X6503D1*
X6128Y4409D2*
X7155D1*
X7311Y4565D1*
X5047Y9083D2*
Y9047D1*
X4315Y8315D1*
Y4815D1*
X4815Y4315D1*
X6034D1*
X6128Y4409D1*
X8059Y4565D2*
Y5023D1*
X8583Y5547D1*
D22*
X7565Y5565D3*
X4815Y8315D3*
X6190Y5315D3*
X8586Y7068D2*
D14*
X9029D1*
X8536Y6819D2*
X9029D1*
X8442Y6571D2*
X9029D1*
X8297Y6322D2*
X9029D1*
X9055Y7235D2*
X8579D1*
X8562Y7066D1*
X8510Y6822D1*
X8423Y6587D1*
X8304Y6368D1*
X8177Y6194D1*
X8240Y6231D1*
X8356Y6278D1*
X8478Y6305D1*
X8603Y6312D1*
X8727Y6299D1*
X8847Y6265D1*
X8960Y6212D1*
X9054Y6149D1*
X9055Y7235D1*
D15*
X8815Y7815D3*
Y6713D3*
D17*
X6503Y5315D3*
X5754D3*
X6128Y4409D3*
D18*
X6565Y9315D3*
X7313D3*
D19*
X4815Y7061D3*
Y7809D3*
D18*
X7311Y4565D3*
X8059D3*
D20*
X6815Y7315D3*
D21*
X8583Y5547D3*
X5047D3*
Y9083D3*
X8583D3*
M02*
