G04 DipTrace 2.4.0.1*
%INTopSilk.gbr*%
%MOIN*%
%ADD10C,0.0098*%
%ADD12C,0.003*%
%ADD16C,0.0154*%
%FSLAX44Y44*%
G04*
G70*
G90*
G75*
G01*
%LNTopSilk*%
%LPD*%
X8500Y7307D2*
D10*
X9130D1*
X8500Y7382D2*
X9130D1*
X8500D2*
Y7146D1*
X9130Y7382D2*
Y7146D1*
D16*
X6811Y5462D3*
X6719Y4961D2*
D10*
X5538D1*
Y4764D1*
X6719D1*
Y4961D1*
G36*
X9315Y9815D2*
Y8315D1*
X7815Y9815D1*
X9315D1*
G37*
X8789Y7188D2*
D12*
X8779Y7207D1*
X8760Y7226D1*
X8741Y7235D1*
X8703D1*
X8684Y7226D1*
X8665Y7207D1*
X8655Y7188D1*
X8645Y7159D1*
Y7111D1*
X8655Y7082D1*
X8665Y7063D1*
X8684Y7044D1*
X8703Y7034D1*
X8741D1*
X8760Y7044D1*
X8779Y7063D1*
X8789Y7082D1*
X8860Y7187D2*
Y7197D1*
X8870Y7216D1*
X8879Y7226D1*
X8899Y7235D1*
X8937D1*
X8956Y7226D1*
X8965Y7216D1*
X8975Y7197D1*
Y7178D1*
X8965Y7159D1*
X8946Y7130D1*
X8851Y7034D1*
X8985D1*
X6721Y5332D2*
X6702Y5323D1*
X6683Y5304D1*
X6673Y5284D1*
X6664Y5256D1*
Y5208D1*
X6673Y5179D1*
X6683Y5160D1*
X6702Y5141D1*
X6721Y5131D1*
X6759D1*
X6778Y5141D1*
X6797Y5160D1*
X6807Y5179D1*
X6817Y5208D1*
Y5256D1*
X6807Y5284D1*
X6797Y5304D1*
X6778Y5323D1*
X6759Y5332D1*
X6721D1*
X6750Y5170D2*
X6807Y5112D1*
X6888Y5284D2*
Y5294D1*
X6898Y5313D1*
X6907Y5322D1*
X6926Y5332D1*
X6965D1*
X6984Y5322D1*
X6993Y5313D1*
X7003Y5294D1*
Y5275D1*
X6993Y5255D1*
X6974Y5227D1*
X6878Y5131D1*
X7012D1*
X6872Y9076D2*
X6863D1*
X6844Y9086D1*
X6834Y9095D1*
X6824Y9115D1*
Y9153D1*
X6834Y9172D1*
X6844Y9181D1*
X6863Y9191D1*
X6882D1*
X6901Y9181D1*
X6930Y9162D1*
X7025Y9067D1*
Y9201D1*
X6872Y9272D2*
X6863D1*
X6844Y9282D1*
X6834Y9291D1*
X6825Y9310D1*
Y9349D1*
X6834Y9368D1*
X6844Y9377D1*
X6863Y9387D1*
X6882D1*
X6901Y9377D1*
X6930Y9358D1*
X7025Y9262D1*
Y9396D1*
X6824Y9458D2*
X7025D1*
X6891Y9554D2*
X6987Y9458D1*
X6949Y9496D2*
X7025Y9563D1*
X4512Y7507D2*
X4531Y7517D1*
X4560Y7545D1*
Y7344D1*
X4679Y7545D2*
X4650Y7536D1*
X4631Y7507D1*
X4622Y7459D1*
Y7430D1*
X4631Y7383D1*
X4650Y7354D1*
X4679Y7344D1*
X4698D1*
X4727Y7354D1*
X4746Y7383D1*
X4755Y7430D1*
Y7459D1*
X4746Y7507D1*
X4727Y7536D1*
X4698Y7545D1*
X4679D1*
X4746Y7507D2*
X4631Y7383D1*
X4875Y7545D2*
X4846Y7536D1*
X4827Y7507D1*
X4817Y7459D1*
Y7430D1*
X4827Y7383D1*
X4846Y7354D1*
X4875Y7344D1*
X4894D1*
X4922Y7354D1*
X4941Y7383D1*
X4951Y7430D1*
Y7459D1*
X4941Y7507D1*
X4922Y7536D1*
X4894Y7545D1*
X4875D1*
X4941Y7507D2*
X4827Y7383D1*
X5013Y7545D2*
Y7344D1*
X5109Y7478D2*
X5013Y7383D1*
X5051Y7421D2*
X5118Y7344D1*
X7609Y4360D2*
X7599Y4379D1*
X7570Y4408D1*
X7771D1*
X7570Y4527D2*
X7580Y4498D1*
X7609Y4479D1*
X7656Y4469D1*
X7685D1*
X7733Y4479D1*
X7762Y4498D1*
X7771Y4527D1*
Y4546D1*
X7762Y4575D1*
X7733Y4594D1*
X7685Y4603D1*
X7656D1*
X7609Y4594D1*
X7580Y4575D1*
X7570Y4546D1*
Y4527D1*
X7609Y4594D2*
X7733Y4479D1*
X7570Y4665D2*
X7771D1*
X7637Y4761D2*
X7733Y4665D1*
X7695Y4703D2*
X7771Y4770D1*
X6596Y7380D2*
X6587Y7399D1*
X6567Y7418D1*
X6548Y7428D1*
X6510D1*
X6491Y7418D1*
X6472Y7399D1*
X6462Y7380D1*
X6453Y7351D1*
Y7303D1*
X6462Y7275D1*
X6472Y7255D1*
X6491Y7236D1*
X6510Y7227D1*
X6548D1*
X6567Y7236D1*
X6587Y7255D1*
X6596Y7275D1*
Y7303D1*
X6548D1*
X6811Y7227D2*
Y7428D1*
X6734Y7227D1*
X6658Y7428D1*
Y7227D1*
X7067Y7327D2*
X7177D1*
M02*
