G04 DipTrace 2.4.0.2*
%INBottomSilk.gbr*%
%MOIN*%
%ADD58C,0.0139*%
%ADD59C,0.0062*%
%ADD60C,0.0154*%
%FSLAX44Y44*%
G04*
G70*
G90*
G75*
G01*
%LNBotSilk*%
%LPD*%
X16285Y8583D2*
D58*
X16371Y8669D1*
X16500Y8712D1*
X16672D1*
X16801Y8669D1*
X16888Y8583D1*
Y8497D1*
X16844Y8410D1*
X16801Y8368D1*
X16716Y8325D1*
X16457Y8238D1*
X16371Y8196D1*
X16328Y8152D1*
X16285Y8066D1*
Y7937D1*
X16371Y7851D1*
X16500Y7808D1*
X16672D1*
X16801Y7851D1*
X16888Y7937D1*
X15491Y8410D2*
Y7808D1*
Y8281D2*
X15576Y8368D1*
X15663Y8410D1*
X15791D1*
X15878Y8368D1*
X15963Y8281D1*
X16007Y8152D1*
Y8066D1*
X15963Y7937D1*
X15878Y7851D1*
X15791Y7808D1*
X15663D1*
X15576Y7851D1*
X15491Y7937D1*
X15213Y8410D2*
X15041Y7808D1*
X14869Y8410D1*
X14697Y7808D1*
X14525Y8410D1*
X13730D2*
Y7808D1*
Y8281D2*
X13816Y8368D1*
X13902Y8410D1*
X14031D1*
X14117Y8368D1*
X14203Y8281D1*
X14247Y8152D1*
Y8066D1*
X14203Y7937D1*
X14117Y7851D1*
X14031Y7808D1*
X13902D1*
X13816Y7851D1*
X13730Y7937D1*
X13452Y8712D2*
X13410Y8669D1*
X13366Y8712D1*
X13410Y8756D1*
X13452Y8712D1*
X13410Y8410D2*
Y7808D1*
X13088Y8410D2*
X12614D1*
X13088Y7808D1*
X12614D1*
X10859Y8583D2*
X10944Y8669D1*
X11074Y8712D1*
X11246D1*
X11375Y8669D1*
X11462Y8583D1*
Y8497D1*
X11418Y8410D1*
X11375Y8368D1*
X11290Y8325D1*
X11031Y8238D1*
X10944Y8196D1*
X10902Y8152D1*
X10859Y8066D1*
Y7937D1*
X10944Y7851D1*
X11074Y7808D1*
X11246D1*
X11375Y7851D1*
X11462Y7937D1*
X10537Y8410D2*
X10279Y7808D1*
X10365Y7636D1*
X10452Y7549D1*
X10537Y7506D1*
X10581D1*
X10021Y8410D2*
X10279Y7808D1*
X9743Y8152D2*
X9227D1*
Y8238D1*
X9269Y8325D1*
X9312Y8368D1*
X9399Y8410D1*
X9528D1*
X9614Y8368D1*
X9700Y8281D1*
X9743Y8152D1*
Y8066D1*
X9700Y7937D1*
X9614Y7851D1*
X9528Y7808D1*
X9399D1*
X9312Y7851D1*
X9227Y7937D1*
X8432Y8712D2*
Y7808D1*
Y8281D2*
X8518Y8368D1*
X8604Y8410D1*
X8734D1*
X8819Y8368D1*
X8906Y8281D1*
X8949Y8152D1*
Y8066D1*
X8906Y7937D1*
X8819Y7851D1*
X8734Y7808D1*
X8604D1*
X8518Y7851D1*
X8432Y7937D1*
X15525Y6497D2*
X15567Y6583D1*
X15654Y6669D1*
X15739Y6712D1*
X15912D1*
X15998Y6669D1*
X16084Y6583D1*
X16127Y6497D1*
X16170Y6368D1*
Y6152D1*
X16127Y6024D1*
X16084Y5937D1*
X15998Y5851D1*
X15912Y5808D1*
X15739D1*
X15654Y5851D1*
X15567Y5937D1*
X15525Y6024D1*
Y6152D1*
X15739D1*
X15247Y6712D2*
X15204Y6669D1*
X15160Y6712D1*
X15204Y6756D1*
X15247Y6712D1*
X15204Y6410D2*
Y5808D1*
X14882Y6152D2*
X14366D1*
Y6238D1*
X14409Y6325D1*
X14451Y6368D1*
X14538Y6410D1*
X14667D1*
X14753Y6368D1*
X14839Y6281D1*
X14882Y6152D1*
Y6066D1*
X14839Y5937D1*
X14753Y5851D1*
X14667Y5808D1*
X14538D1*
X14451Y5851D1*
X14366Y5937D1*
X13572Y6368D2*
Y5678D1*
X13614Y5550D1*
X13657Y5506D1*
X13744Y5463D1*
X13873D1*
X13959Y5506D1*
X13572Y6238D2*
X13657Y6324D1*
X13744Y6368D1*
X13873D1*
X13959Y6324D1*
X14045Y6238D1*
X14088Y6109D1*
Y6023D1*
X14045Y5894D1*
X13959Y5808D1*
X13873Y5765D1*
X13744D1*
X13657Y5808D1*
X13572Y5894D1*
X13294Y6152D2*
X12777D1*
Y6238D1*
X12820Y6325D1*
X12863Y6368D1*
X12949Y6410D1*
X13079D1*
X13164Y6368D1*
X13251Y6281D1*
X13294Y6152D1*
Y6066D1*
X13251Y5937D1*
X13164Y5851D1*
X13079Y5808D1*
X12949D1*
X12863Y5851D1*
X12777Y5937D1*
X12499Y6410D2*
Y5808D1*
Y6152D2*
X12456Y6281D1*
X12370Y6368D1*
X12284Y6410D1*
X12154D1*
X11002Y6712D2*
X10657Y5808D1*
X10313Y6712D1*
X9519Y6711D2*
X9949D1*
X9991Y6324D1*
X9949Y6367D1*
X9819Y6410D1*
X9691D1*
X9562Y6367D1*
X9475Y6281D1*
X9432Y6152D1*
Y6066D1*
X9475Y5937D1*
X9562Y5850D1*
X9691Y5808D1*
X9819D1*
X9949Y5850D1*
X9991Y5894D1*
X10035Y5980D1*
X4549Y7404D2*
D59*
X4511Y7423D1*
X4473Y7462D1*
X4454Y7500D1*
Y7576D1*
X4473Y7615D1*
X4511Y7653D1*
X4549Y7672D1*
X4607Y7691D1*
X4702D1*
X4760Y7672D1*
X4798Y7653D1*
X4836Y7615D1*
X4855Y7576D1*
Y7500D1*
X4836Y7462D1*
X4798Y7423D1*
X4760Y7404D1*
X4702D1*
Y7500D1*
X4454Y7013D2*
X4855D1*
X4454Y7281D1*
X4855D1*
X4454Y6889D2*
X4855D1*
Y6756D1*
X4836Y6698D1*
X4798Y6660D1*
X4760Y6641D1*
X4702Y6622D1*
X4607D1*
X4549Y6641D1*
X4511Y6660D1*
X4473Y6698D1*
X4454Y6756D1*
Y6889D1*
X7434Y6178D2*
D60*
Y5173D1*
X6764Y6178D2*
Y5173D1*
X7434Y5699D2*
X6764D1*
X6455Y6178D2*
X6072Y5173D1*
X5690Y6178D1*
M02*
