M48
INCH
T01C0.0191
T02C0.0354
%
T01
X+016190Y+007190
T02
X+004690Y+004690
X+005690Y+004690
X+005690Y+005690
X+004690Y+005690
X+006690Y+005690
X+007690Y+005690
X+008690Y+005690
X+008690Y+004690
X+007690Y+004690
X+006690Y+004690
X+009690Y+004690
X+010690Y+004690
X+011690Y+004690
X+011690Y+005690
X+010690Y+005690
X+009690Y+005690
X+012690Y+005690
X+013690Y+005690
X+014690Y+005690
X+014690Y+006690
X+013690Y+006690
X+013690Y+007690
X+014690Y+007690
X+015690Y+007690
X+016690Y+007690
X+016690Y+006690
X+015690Y+006690
X+015690Y+005690
X+016690Y+005690
X+016690Y+004690
X+015690Y+004690
X+014690Y+004690
X+013690Y+004690
X+012690Y+004690
T00
M30
