G04 DipTrace 2.4.0.1*
%INTopPaste.gbr*%
%MOIN*%
%ADD48R,0.0707X0.0156*%
%ADD50R,0.0432X0.0511*%
%ADD56R,0.0511X0.0432*%
%ADD58R,0.0766X0.12*%
%ADD60R,0.0766X0.0294*%
%ADD62R,0.11X0.102*%
%ADD64R,0.0747X0.0471*%
%ADD66R,0.055X0.0629*%
%FSLAX44Y44*%
G04*
G70*
G90*
G75*
G01*
%LNTopPaste*%
%LPD*%
D66*
X6315Y22565D3*
X5213D3*
D64*
X9065Y21565D3*
Y20030D3*
D62*
X9565Y17065D3*
X5515D3*
D60*
X7815Y19565D3*
Y20471D3*
Y21376D3*
D58*
X5532Y20471D3*
D56*
X7565Y22815D3*
Y23563D3*
D50*
X7819Y27565D3*
X7071D3*
D56*
X9565Y25815D3*
Y25067D3*
D50*
X9819Y19065D3*
X9071D3*
G36*
X6815Y13700D2*
X6835Y13702D1*
X6854Y13707D1*
X6872Y13716D1*
X6889Y13727D1*
X6903Y13741D1*
X6914Y13758D1*
X6923Y13776D1*
X6928Y13795D1*
X6930Y13815D1*
D1*
X6928Y13835D1*
X6923Y13854D1*
X6914Y13872D1*
X6903Y13889D1*
X6889Y13903D1*
X6872Y13914D1*
X6854Y13923D1*
X6835Y13928D1*
X6815Y13930D1*
D1*
X6795Y13928D1*
X6776Y13923D1*
X6758Y13914D1*
X6741Y13903D1*
X6727Y13889D1*
X6716Y13872D1*
X6707Y13854D1*
X6702Y13835D1*
X6700Y13815D1*
D1*
X6702Y13795D1*
X6707Y13776D1*
X6716Y13758D1*
X6727Y13741D1*
X6741Y13727D1*
X6758Y13716D1*
X6776Y13707D1*
X6795Y13702D1*
X6815Y13700D1*
G37*
G36*
Y13200D2*
X6835Y13202D1*
X6854Y13207D1*
X6872Y13216D1*
X6889Y13227D1*
X6903Y13241D1*
X6914Y13258D1*
X6923Y13276D1*
X6928Y13295D1*
X6930Y13315D1*
D1*
X6928Y13335D1*
X6923Y13354D1*
X6914Y13372D1*
X6903Y13389D1*
X6889Y13403D1*
X6872Y13414D1*
X6854Y13423D1*
X6835Y13428D1*
X6815Y13430D1*
D1*
X6795Y13428D1*
X6776Y13423D1*
X6758Y13414D1*
X6741Y13403D1*
X6727Y13389D1*
X6716Y13372D1*
X6707Y13354D1*
X6702Y13335D1*
X6700Y13315D1*
D1*
X6702Y13295D1*
X6707Y13276D1*
X6716Y13258D1*
X6727Y13241D1*
X6741Y13227D1*
X6758Y13216D1*
X6776Y13207D1*
X6795Y13202D1*
X6815Y13200D1*
G37*
G36*
Y12700D2*
X6835Y12702D1*
X6854Y12707D1*
X6872Y12716D1*
X6889Y12727D1*
X6903Y12741D1*
X6914Y12758D1*
X6923Y12776D1*
X6928Y12795D1*
X6930Y12815D1*
D1*
X6928Y12835D1*
X6923Y12854D1*
X6914Y12872D1*
X6903Y12889D1*
X6889Y12903D1*
X6872Y12914D1*
X6854Y12923D1*
X6835Y12928D1*
X6815Y12930D1*
D1*
X6795Y12928D1*
X6776Y12923D1*
X6758Y12914D1*
X6741Y12903D1*
X6727Y12889D1*
X6716Y12872D1*
X6707Y12854D1*
X6702Y12835D1*
X6700Y12815D1*
D1*
X6702Y12795D1*
X6707Y12776D1*
X6716Y12758D1*
X6727Y12741D1*
X6741Y12727D1*
X6758Y12716D1*
X6776Y12707D1*
X6795Y12702D1*
X6815Y12700D1*
G37*
G36*
X6315D2*
X6335Y12702D1*
X6354Y12707D1*
X6372Y12716D1*
X6389Y12727D1*
X6403Y12741D1*
X6414Y12758D1*
X6423Y12776D1*
X6428Y12795D1*
X6430Y12815D1*
D1*
X6428Y12835D1*
X6423Y12854D1*
X6414Y12872D1*
X6403Y12889D1*
X6389Y12903D1*
X6372Y12914D1*
X6354Y12923D1*
X6335Y12928D1*
X6315Y12930D1*
D1*
X6295Y12928D1*
X6276Y12923D1*
X6258Y12914D1*
X6241Y12903D1*
X6227Y12889D1*
X6216Y12872D1*
X6207Y12854D1*
X6202Y12835D1*
X6200Y12815D1*
D1*
X6202Y12795D1*
X6207Y12776D1*
X6216Y12758D1*
X6227Y12741D1*
X6241Y12727D1*
X6258Y12716D1*
X6276Y12707D1*
X6295Y12702D1*
X6315Y12700D1*
G37*
G36*
Y13200D2*
X6335Y13202D1*
X6354Y13207D1*
X6372Y13216D1*
X6389Y13227D1*
X6403Y13241D1*
X6414Y13258D1*
X6423Y13276D1*
X6428Y13295D1*
X6430Y13315D1*
D1*
X6428Y13335D1*
X6423Y13354D1*
X6414Y13372D1*
X6403Y13389D1*
X6389Y13403D1*
X6372Y13414D1*
X6354Y13423D1*
X6335Y13428D1*
X6315Y13430D1*
D1*
X6295Y13428D1*
X6276Y13423D1*
X6258Y13414D1*
X6241Y13403D1*
X6227Y13389D1*
X6216Y13372D1*
X6207Y13354D1*
X6202Y13335D1*
X6200Y13315D1*
D1*
X6202Y13295D1*
X6207Y13276D1*
X6216Y13258D1*
X6227Y13241D1*
X6241Y13227D1*
X6258Y13216D1*
X6276Y13207D1*
X6295Y13202D1*
X6315Y13200D1*
G37*
G36*
Y13700D2*
X6335Y13702D1*
X6354Y13707D1*
X6372Y13716D1*
X6389Y13727D1*
X6403Y13741D1*
X6414Y13758D1*
X6423Y13776D1*
X6428Y13795D1*
X6430Y13815D1*
D1*
X6428Y13835D1*
X6423Y13854D1*
X6414Y13872D1*
X6403Y13889D1*
X6389Y13903D1*
X6372Y13914D1*
X6354Y13923D1*
X6335Y13928D1*
X6315Y13930D1*
D1*
X6295Y13928D1*
X6276Y13923D1*
X6258Y13914D1*
X6241Y13903D1*
X6227Y13889D1*
X6216Y13872D1*
X6207Y13854D1*
X6202Y13835D1*
X6200Y13815D1*
D1*
X6202Y13795D1*
X6207Y13776D1*
X6216Y13758D1*
X6227Y13741D1*
X6241Y13727D1*
X6258Y13716D1*
X6276Y13707D1*
X6295Y13702D1*
X6315Y13700D1*
G37*
D48*
X5815Y11315D3*
Y10815D3*
Y10315D3*
Y9815D3*
Y9315D3*
Y8815D3*
Y8315D3*
Y7815D3*
Y7315D3*
Y6815D3*
X9515D3*
Y7315D3*
Y7815D3*
Y8315D3*
Y8815D3*
Y9315D3*
Y9815D3*
Y10315D3*
Y10815D3*
Y11315D3*
M02*
