G04 DipTrace 2.0*
%INTop Paste.gbr*%
%MOIN*%
%ADD10C,0.0098*%
%ADD11C,0.006*%
%ADD12C,0.003*%
%ADD13C,0.0374*%
%ADD14C,0.008*%
%ADD15C,0.0093*%
%FSLAX44Y44*%
%SFA1B1*%
%OFA0B0*%
G04*
G70*
G90*
G75*
G01*
%LNTopPaste*%
%LPD*%
G36*
X6755Y6190D2*
X6753Y6210D1*
X6748Y6229D1*
X6739Y6247D1*
X6728Y6264D1*
X6714Y6278D1*
X6697Y6289D1*
X6679Y6298D1*
X6660Y6303D1*
X6640Y6305D1*
D1*
X6620Y6303D1*
X6601Y6298D1*
X6583Y6289D1*
X6566Y6278D1*
X6552Y6264D1*
X6541Y6247D1*
X6532Y6229D1*
X6527Y6210D1*
X6525Y6190D1*
D1*
X6527Y6170D1*
X6532Y6151D1*
X6541Y6133D1*
X6552Y6116D1*
X6566Y6102D1*
X6583Y6091D1*
X6601Y6082D1*
X6620Y6077D1*
X6640Y6075D1*
D1*
X6660Y6077D1*
X6679Y6082D1*
X6697Y6091D1*
X6714Y6102D1*
X6728Y6116D1*
X6739Y6133D1*
X6748Y6151D1*
X6753Y6170D1*
X6755Y6190D1*
G37*
G36*
X7255D2*
X7253Y6210D1*
X7248Y6229D1*
X7239Y6247D1*
X7228Y6264D1*
X7214Y6278D1*
X7197Y6289D1*
X7179Y6298D1*
X7160Y6303D1*
X7140Y6305D1*
D1*
X7120Y6303D1*
X7101Y6298D1*
X7083Y6289D1*
X7066Y6278D1*
X7052Y6264D1*
X7041Y6247D1*
X7032Y6229D1*
X7027Y6210D1*
X7025Y6190D1*
D1*
X7027Y6170D1*
X7032Y6151D1*
X7041Y6133D1*
X7052Y6116D1*
X7066Y6102D1*
X7083Y6091D1*
X7101Y6082D1*
X7120Y6077D1*
X7140Y6075D1*
D1*
X7160Y6077D1*
X7179Y6082D1*
X7197Y6091D1*
X7214Y6102D1*
X7228Y6116D1*
X7239Y6133D1*
X7248Y6151D1*
X7253Y6170D1*
X7255Y6190D1*
G37*
G36*
X7755D2*
X7753Y6210D1*
X7748Y6229D1*
X7739Y6247D1*
X7728Y6264D1*
X7714Y6278D1*
X7697Y6289D1*
X7679Y6298D1*
X7660Y6303D1*
X7640Y6305D1*
D1*
X7620Y6303D1*
X7601Y6298D1*
X7583Y6289D1*
X7566Y6278D1*
X7552Y6264D1*
X7541Y6247D1*
X7532Y6229D1*
X7527Y6210D1*
X7525Y6190D1*
D1*
X7527Y6170D1*
X7532Y6151D1*
X7541Y6133D1*
X7552Y6116D1*
X7566Y6102D1*
X7583Y6091D1*
X7601Y6082D1*
X7620Y6077D1*
X7640Y6075D1*
D1*
X7660Y6077D1*
X7679Y6082D1*
X7697Y6091D1*
X7714Y6102D1*
X7728Y6116D1*
X7739Y6133D1*
X7748Y6151D1*
X7753Y6170D1*
X7755Y6190D1*
G37*
G36*
Y5690D2*
X7753Y5710D1*
X7748Y5729D1*
X7739Y5747D1*
X7728Y5764D1*
X7714Y5778D1*
X7697Y5789D1*
X7679Y5798D1*
X7660Y5803D1*
X7640Y5805D1*
D1*
X7620Y5803D1*
X7601Y5798D1*
X7583Y5789D1*
X7566Y5778D1*
X7552Y5764D1*
X7541Y5747D1*
X7532Y5729D1*
X7527Y5710D1*
X7525Y5690D1*
D1*
X7527Y5670D1*
X7532Y5651D1*
X7541Y5633D1*
X7552Y5616D1*
X7566Y5602D1*
X7583Y5591D1*
X7601Y5582D1*
X7620Y5577D1*
X7640Y5575D1*
D1*
X7660Y5577D1*
X7679Y5582D1*
X7697Y5591D1*
X7714Y5602D1*
X7728Y5616D1*
X7739Y5633D1*
X7748Y5651D1*
X7753Y5670D1*
X7755Y5690D1*
G37*
G36*
X7255D2*
X7253Y5710D1*
X7248Y5729D1*
X7239Y5747D1*
X7228Y5764D1*
X7214Y5778D1*
X7197Y5789D1*
X7179Y5798D1*
X7160Y5803D1*
X7140Y5805D1*
D1*
X7120Y5803D1*
X7101Y5798D1*
X7083Y5789D1*
X7066Y5778D1*
X7052Y5764D1*
X7041Y5747D1*
X7032Y5729D1*
X7027Y5710D1*
X7025Y5690D1*
D1*
X7027Y5670D1*
X7032Y5651D1*
X7041Y5633D1*
X7052Y5616D1*
X7066Y5602D1*
X7083Y5591D1*
X7101Y5582D1*
X7120Y5577D1*
X7140Y5575D1*
D1*
X7160Y5577D1*
X7179Y5582D1*
X7197Y5591D1*
X7214Y5602D1*
X7228Y5616D1*
X7239Y5633D1*
X7248Y5651D1*
X7253Y5670D1*
X7255Y5690D1*
G37*
G36*
X6755D2*
X6753Y5710D1*
X6748Y5729D1*
X6739Y5747D1*
X6728Y5764D1*
X6714Y5778D1*
X6697Y5789D1*
X6679Y5798D1*
X6660Y5803D1*
X6640Y5805D1*
D1*
X6620Y5803D1*
X6601Y5798D1*
X6583Y5789D1*
X6566Y5778D1*
X6552Y5764D1*
X6541Y5747D1*
X6532Y5729D1*
X6527Y5710D1*
X6525Y5690D1*
D1*
X6527Y5670D1*
X6532Y5651D1*
X6541Y5633D1*
X6552Y5616D1*
X6566Y5602D1*
X6583Y5591D1*
X6601Y5582D1*
X6620Y5577D1*
X6640Y5575D1*
D1*
X6660Y5577D1*
X6679Y5582D1*
X6697Y5591D1*
X6714Y5602D1*
X6728Y5616D1*
X6739Y5633D1*
X6748Y5651D1*
X6753Y5670D1*
X6755Y5690D1*
G37*
M02*
