M48
INCH
T01C0.014
T02C0.019
T03C0.0354
T04C0.0374
T05C0.05
T06C0.228
%
T01
X+009565Y+013815
T02
X+006539Y+011315
X+006539Y+010815
X+006539Y+010315
X+006539Y+009815
X+006539Y+009315
X+006539Y+008815
X+006539Y+008315
X+006539Y+007815
X+006565Y+007315
X+006539Y+006815
X+008792Y+006815
X+008792Y+007315
X+008792Y+007815
X+008792Y+008315
X+008792Y+008815
X+008792Y+009315
X+008792Y+009815
X+008792Y+010315
X+008792Y+010815
X+008792Y+011315
X+007700Y+012815
X+007300Y+013315
X+007700Y+013815
X+007315Y+014815
X+008565Y+015815
X+008565Y+016315
X+010065Y+015815
X+005830Y+013815
X+005505Y+013315
X+005830Y+012815
X+006565Y+019565
X+006565Y+021065
X+008315Y+023315
T03
X+004815Y+025602
X+004815Y+024815
X+004815Y+014815
X+004815Y+013815
X+004815Y+012815
X+004815Y+011815
X+004815Y+010815
X+004815Y+009815
X+004815Y+008815
X+004815Y+007815
X+004815Y+006815
X+004815Y+005815
X+006065Y+005565
X+007065Y+005565
X+008065Y+005565
X+009065Y+005565
X+009065Y+004565
X+008065Y+004565
X+007065Y+004565
X+006065Y+004565
X+010815Y+005815
X+010815Y+006815
X+010815Y+007815
X+010815Y+008815
X+010815Y+009815
X+010815Y+010815
X+010815Y+011815
X+010815Y+012815
X+010815Y+013815
X+010815Y+014815
X+009565Y+014315
X+008565Y+014315
X+008565Y+013315
X+008565Y+012315
X+009565Y+012315
X+009565Y+013315
T04
X+006565Y+014315
X+006965Y+012315
X+006165Y+012315
T05
X+009333Y+023797
X+005797Y+023797
X+005797Y+027333
X+009333Y+027333
T06
X+007565Y+025565
T00
M30
