G04 DipTrace 2.4.0.2*
%INBottomMask.gbr*%
%MOIN*%
%ADD19R,0.0709X0.0709*%
%ADD33C,0.068*%
%ADD35C,0.068*%
%ADD37O,0.0474X0.0867*%
%ADD39C,0.087*%
%ADD40C,0.071*%
%ADD41C,0.0789*%
%ADD43R,0.0789X0.0789*%
%ADD46C,0.0671*%
%ADD48R,0.0671X0.0671*%
%FSLAX44Y44*%
G04*
G70*
G90*
G75*
G01*
%LNBotMask*%
%LPD*%
D48*
X8440Y4940D3*
D46*
X9440D3*
D40*
X10940Y7940D3*
D19*
Y4940D3*
D43*
X12440Y4590D3*
D41*
Y8940D3*
D39*
X12190Y13690D3*
Y11721D3*
X10615D3*
X10613Y13686D3*
G36*
X10203Y9128D2*
X10325Y9006D1*
X10555D1*
X10677Y9128D1*
Y9752D1*
X10555Y9874D1*
X10325D1*
X10203Y9752D1*
Y9128D1*
G37*
D37*
X10940Y9440D3*
X11440D3*
D35*
X9190Y7690D3*
D33*
Y11690D3*
D40*
X6440Y6690D3*
D19*
X9440D3*
G36*
X7427Y5752D2*
X7305Y5874D1*
X7075D1*
X6953Y5752D1*
Y5128D1*
X7075Y5006D1*
X7305D1*
X7427Y5128D1*
Y5752D1*
G37*
D37*
X6690Y5440D3*
X6190D3*
D35*
X8190Y7690D3*
D33*
Y11690D3*
D35*
X7190D3*
D33*
Y7690D3*
D35*
X6190Y11690D3*
D33*
Y7690D3*
D48*
X4940Y13940D3*
D46*
Y12940D3*
Y11940D3*
Y10940D3*
Y9940D3*
Y8940D3*
Y7940D3*
Y6940D3*
Y5940D3*
Y4940D3*
D48*
X13940D3*
D46*
Y5940D3*
Y6940D3*
Y7940D3*
Y8940D3*
Y9940D3*
Y10940D3*
Y11940D3*
Y12940D3*
Y13940D3*
M02*
