G04 DipTrace 2.4.0.2*
%INTop.gbr*%
%MOIN*%
%ADD13C,0.013*%
%ADD14C,0.025*%
%ADD15R,0.0591X0.0591*%
%ADD16C,0.0591*%
%ADD17C,0.063*%
%ADD18R,0.063X0.063*%
%ADD19R,0.0709X0.0709*%
%ADD20C,0.0709*%
%ADD22C,0.079*%
%ADD23O,0.0394X0.0787*%
%ADD24C,0.06*%
%ADD25C,0.06*%
%FSLAX44Y44*%
G04*
G70*
G90*
G75*
G01*
%LNTop*%
%LPD*%
X9440Y4940D2*
D13*
Y6690D1*
X8190Y7690D2*
Y6940D1*
X8440Y6690D1*
X9440D1*
X6190Y7690D2*
X5940Y7440D1*
Y5690D1*
X6190Y5440D1*
Y7690D2*
Y8690D1*
X5940Y8940D1*
X4940D1*
X7190Y5440D2*
Y4940D1*
X6940Y4690D1*
X5190D1*
X4940Y4940D1*
X10940Y7940D2*
X10440Y8440D1*
Y9440D1*
X11440D2*
X12940D1*
X13190Y9190D1*
Y8690D1*
X13940Y7940D1*
Y13940D2*
X13440Y14440D1*
X11367D1*
X10613Y13686D1*
X10615Y11721D2*
Y13683D1*
X10613Y13686D1*
X6190Y11690D2*
Y13940D1*
X6440Y14190D1*
X10108D1*
X10613Y13686D1*
X12190Y11721D2*
X11971D1*
X10940Y10690D1*
Y9440D1*
X12440Y8940D2*
X11940Y8440D1*
X11190D1*
X10940Y8690D1*
Y9440D1*
X12190Y13690D2*
Y11721D1*
X12440Y4590D2*
X11290D1*
X10940Y4940D1*
Y6940D1*
X9190Y8690D1*
Y11690D1*
X8190D2*
X7690D1*
X7190D1*
X6690Y5440D2*
Y5940D1*
X6940Y6190D1*
X7440D1*
X7690Y6440D1*
Y11690D1*
X6440Y6690D2*
X6940D1*
X7190Y6940D1*
Y7690D1*
X5526Y14316D2*
D14*
X6073D1*
X14381D2*
X14540D1*
X5526Y14068D2*
X5862D1*
X11486D2*
X11626D1*
X12756D2*
X13319D1*
X5526Y13819D2*
X5835D1*
X6561D2*
X9940D1*
X11283D2*
X11519D1*
X12861D2*
X13366D1*
X5526Y13570D2*
X5835D1*
X6545D2*
X9936D1*
X11287D2*
X11515D1*
X12865D2*
X13495D1*
X14385D2*
X14540D1*
X4340Y13322D2*
X4507D1*
X5373D2*
X5835D1*
X6545D2*
X10038D1*
X11190D2*
X11616D1*
X12764D2*
X13507D1*
X14373D2*
X14540D1*
X5510Y13073D2*
X5835D1*
X6545D2*
X10261D1*
X10971D2*
X11835D1*
X12545D2*
X13370D1*
X5514Y12824D2*
X5835D1*
X6545D2*
X10261D1*
X10971D2*
X11835D1*
X12545D2*
X13366D1*
X4340Y12575D2*
X4491D1*
X5389D2*
X5835D1*
X6545D2*
X10261D1*
X10971D2*
X11835D1*
X12545D2*
X13491D1*
X14389D2*
X14540D1*
X4340Y12327D2*
X4511D1*
X5369D2*
X5835D1*
X6545D2*
X10261D1*
X10971D2*
X11835D1*
X12545D2*
X13511D1*
X14369D2*
X14540D1*
X5506Y12078D2*
X5753D1*
X6627D2*
X6753D1*
X7627D2*
X7753D1*
X8627D2*
X8753D1*
X9627D2*
X10034D1*
X11194D2*
X11608D1*
X12772D2*
X13374D1*
X5514Y11829D2*
X5618D1*
X9764D2*
X9940D1*
X11291D2*
X11515D1*
X12865D2*
X13366D1*
X4340Y11581D2*
X4483D1*
X5397D2*
X5612D1*
X9768D2*
X9944D1*
X12861D2*
X13483D1*
X14397D2*
X14540D1*
X4340Y11332D2*
X4515D1*
X5365D2*
X5729D1*
X6651D2*
X6728D1*
X8651D2*
X8728D1*
X9651D2*
X10058D1*
X12748D2*
X13515D1*
X14365D2*
X14540D1*
X5506Y11083D2*
X7335D1*
X8045D2*
X8835D1*
X9545D2*
X10421D1*
X11826D2*
X11995D1*
X12385D2*
X13374D1*
X5514Y10835D2*
X7335D1*
X8045D2*
X8835D1*
X9545D2*
X10620D1*
X11576D2*
X13366D1*
X4340Y10586D2*
X4479D1*
X5401D2*
X7335D1*
X8045D2*
X8835D1*
X9545D2*
X10585D1*
X11326D2*
X13479D1*
X14401D2*
X14540D1*
X4340Y10337D2*
X4519D1*
X5361D2*
X7335D1*
X8045D2*
X8835D1*
X9545D2*
X10585D1*
X11295D2*
X13519D1*
X14361D2*
X14540D1*
X5506Y10089D2*
X7335D1*
X8045D2*
X8835D1*
X9545D2*
X10245D1*
X11559D2*
X13374D1*
X5518Y9840D2*
X7335D1*
X8045D2*
X8835D1*
X9545D2*
X9976D1*
X11881D2*
X13362D1*
X4340Y9591D2*
X4476D1*
X5404D2*
X7335D1*
X8045D2*
X8835D1*
X9545D2*
X9952D1*
X13279D2*
X13476D1*
X14404D2*
X14540D1*
X4340Y9343D2*
X4526D1*
X5354D2*
X7335D1*
X8045D2*
X8835D1*
X9545D2*
X9952D1*
X14354D2*
X14540D1*
X6279Y9094D2*
X7335D1*
X8045D2*
X8835D1*
X9545D2*
X9960D1*
X6506Y8845D2*
X7335D1*
X8045D2*
X8835D1*
X9545D2*
X10085D1*
X4340Y8596D2*
X4472D1*
X5408D2*
X5792D1*
X6545D2*
X7335D1*
X8045D2*
X8851D1*
X9776D2*
X10085D1*
X14408D2*
X14540D1*
X4340Y8348D2*
X4530D1*
X5350D2*
X5835D1*
X6545D2*
X7335D1*
X8045D2*
X9042D1*
X12647D2*
X13042D1*
X14350D2*
X14540D1*
X5502Y8099D2*
X5776D1*
X6604D2*
X6779D1*
X8604D2*
X8779D1*
X11522D2*
X13288D1*
X5518Y7850D2*
X5625D1*
X11537D2*
X13362D1*
X4340Y7602D2*
X4468D1*
X5412D2*
X5608D1*
X11436D2*
X13468D1*
X14412D2*
X14540D1*
X4340Y7353D2*
X4538D1*
X5342D2*
X5585D1*
X9670D2*
X10034D1*
X11018D2*
X13538D1*
X14342D2*
X14540D1*
X5502Y7104D2*
X5588D1*
X8545D2*
X8835D1*
X10045D2*
X10284D1*
X11252D2*
X13378D1*
X10045Y6856D2*
X10534D1*
X11295D2*
X13362D1*
X4340Y6607D2*
X4464D1*
X5416D2*
X5585D1*
X10045D2*
X10585D1*
X11295D2*
X13464D1*
X14416D2*
X14540D1*
X4340Y6358D2*
X4542D1*
X5338D2*
X5585D1*
X8033D2*
X8835D1*
X10045D2*
X10585D1*
X11295D2*
X13542D1*
X14338D2*
X14540D1*
X5498Y6110D2*
X5587D1*
X7850D2*
X9085D1*
X9795D2*
X10585D1*
X11295D2*
X13382D1*
X7647Y5861D2*
X9085D1*
X9795D2*
X10585D1*
X11295D2*
X13362D1*
X4340Y5612D2*
X4460D1*
X5420D2*
X5593D1*
X7678D2*
X9085D1*
X9795D2*
X10585D1*
X11295D2*
X13460D1*
X14420D2*
X14540D1*
X4340Y5364D2*
X4550D1*
X5330D2*
X5702D1*
X7678D2*
X7854D1*
X9830D2*
X10335D1*
X11545D2*
X13354D1*
X5498Y5115D2*
X5722D1*
X7674D2*
X7854D1*
X9998D2*
X10335D1*
X11545D2*
X11796D1*
X13084D2*
X13354D1*
X7537Y4866D2*
X7854D1*
X10022D2*
X10335D1*
X13084D2*
X13354D1*
X4340Y4617D2*
X4456D1*
X7358D2*
X7854D1*
X9924D2*
X10335D1*
X13084D2*
X13354D1*
X4340Y4369D2*
X5089D1*
X7041D2*
X10335D1*
X13084D2*
X14540D1*
X8005Y5500D2*
X9000D1*
Y5285D1*
X9110Y5389D1*
Y6108D1*
X8860Y6110D1*
Y6364D1*
X8440Y6360D1*
X8318Y6383D1*
X8207Y6457D1*
X8018Y6645D1*
X8020Y6440D1*
X7997Y6318D1*
X7923Y6207D1*
X7670Y5955D1*
X7592Y5898D1*
X7627Y5847D1*
X7652Y5735D1*
Y5145D1*
X7626Y5031D1*
X7574Y4957D1*
X7519Y4902D1*
X7506Y4844D1*
X7448Y4734D1*
X7173Y4457D1*
X7070Y4387D1*
X6940Y4360D1*
X5190D1*
X5065Y4386D1*
X5090Y4376D1*
X5065Y4315D1*
X11108D1*
X11061Y4353D1*
X10895Y4360D1*
X10360D1*
Y5520D1*
X10614D1*
X10610Y5940D1*
Y6803D1*
X9754Y7660D1*
X9741Y7566D1*
X9701Y7448D1*
X9635Y7342D1*
X9567Y7272D1*
X10020Y7270D1*
Y6110D1*
X9766D1*
X9770Y5690D1*
X9776Y5389D1*
X9867Y5303D1*
X9936Y5200D1*
X9982Y5084D1*
X10000Y4940D1*
X9986Y4816D1*
X9945Y4698D1*
X9879Y4592D1*
X9792Y4504D1*
X9686Y4437D1*
X9569Y4395D1*
X9445Y4380D1*
X9321Y4393D1*
X9203Y4432D1*
X9096Y4497D1*
X9001Y4594D1*
X9000Y4380D1*
X7880D1*
Y5500D1*
X8005D1*
X11507Y7816D2*
X11467Y7698D1*
X11403Y7591D1*
X11317Y7500D1*
X11215Y7429D1*
X11099Y7382D1*
X10988Y7363D1*
X11173Y7173D1*
X11243Y7070D1*
X11270Y6940D1*
Y5522D1*
X11520Y5520D1*
Y4922D1*
X11818Y4920D1*
X11821Y5209D1*
X13059D1*
X13065Y4315D1*
X14565D1*
Y14565D1*
X13780D1*
X13853Y14494D1*
X13925Y14500D1*
X14049Y14490D1*
X14168Y14452D1*
X14276Y14389D1*
X14367Y14303D1*
X14436Y14200D1*
X14482Y14084D1*
X14500Y13940D1*
X14486Y13816D1*
X14445Y13698D1*
X14379Y13592D1*
X14292Y13504D1*
X14190Y13439D1*
X14276Y13389D1*
X14367Y13303D1*
X14436Y13200D1*
X14482Y13084D1*
X14500Y12940D1*
X14486Y12816D1*
X14445Y12698D1*
X14379Y12592D1*
X14292Y12504D1*
X14190Y12439D1*
X14276Y12389D1*
X14367Y12303D1*
X14436Y12200D1*
X14482Y12084D1*
X14500Y11940D1*
X14486Y11816D1*
X14445Y11698D1*
X14379Y11592D1*
X14292Y11504D1*
X14190Y11439D1*
X14276Y11389D1*
X14367Y11303D1*
X14436Y11200D1*
X14482Y11084D1*
X14500Y10940D1*
X14486Y10816D1*
X14445Y10698D1*
X14379Y10592D1*
X14292Y10504D1*
X14190Y10439D1*
X14276Y10389D1*
X14367Y10303D1*
X14436Y10200D1*
X14482Y10084D1*
X14500Y9940D1*
X14486Y9816D1*
X14445Y9698D1*
X14379Y9592D1*
X14292Y9504D1*
X14190Y9439D1*
X14276Y9389D1*
X14367Y9303D1*
X14436Y9200D1*
X14482Y9084D1*
X14500Y8940D1*
X14486Y8816D1*
X14445Y8698D1*
X14379Y8592D1*
X14292Y8504D1*
X14190Y8439D1*
X14276Y8389D1*
X14367Y8303D1*
X14436Y8200D1*
X14482Y8084D1*
X14500Y7940D1*
X14486Y7816D1*
X14445Y7698D1*
X14379Y7592D1*
X14292Y7504D1*
X14190Y7439D1*
X14276Y7389D1*
X14367Y7303D1*
X14436Y7200D1*
X14482Y7084D1*
X14500Y6940D1*
X14486Y6816D1*
X14445Y6698D1*
X14379Y6592D1*
X14292Y6504D1*
X14190Y6439D1*
X14276Y6389D1*
X14367Y6303D1*
X14436Y6200D1*
X14482Y6084D1*
X14500Y5940D1*
X14486Y5816D1*
X14445Y5698D1*
X14379Y5592D1*
X14288Y5502D1*
X14500Y5500D1*
Y4380D1*
X13380D1*
Y5500D1*
X13595D1*
X13507Y5584D1*
X13439Y5689D1*
X13396Y5806D1*
X13380Y5930D1*
X13391Y6054D1*
X13430Y6173D1*
X13494Y6280D1*
X13581Y6370D1*
X13688Y6440D1*
X13596Y6497D1*
X13507Y6584D1*
X13439Y6689D1*
X13396Y6806D1*
X13380Y6930D1*
X13391Y7054D1*
X13430Y7173D1*
X13494Y7280D1*
X13581Y7370D1*
X13688Y7440D1*
X13596Y7497D1*
X13507Y7584D1*
X13439Y7689D1*
X13396Y7806D1*
X13380Y7930D1*
X13389Y8027D1*
X12955Y8460D1*
X12868Y8493D1*
X12770Y8416D1*
X12658Y8360D1*
X12537Y8328D1*
X12413Y8321D1*
X12301Y8338D1*
X12173Y8207D1*
X12070Y8137D1*
X11940Y8110D1*
X11491D1*
X11520Y7959D1*
X11507Y7816D1*
X10363Y7981D2*
X10372Y8043D1*
X10207Y8207D1*
X10137Y8310D1*
X10110Y8440D1*
Y8905D1*
X10056Y8957D1*
X10003Y9033D1*
X9978Y9145D1*
Y9735D1*
X10004Y9849D1*
X10056Y9923D1*
X10154Y10021D1*
X10230Y10074D1*
X10342Y10099D1*
X10566Y10097D1*
X10610Y10190D1*
Y10690D1*
X10633Y10812D1*
X10707Y10923D1*
X10919Y11136D1*
X10775Y11081D1*
X10652Y11063D1*
X10527Y11067D1*
X10406Y11096D1*
X10292Y11146D1*
X10189Y11218D1*
X10102Y11307D1*
X10033Y11411D1*
X9985Y11526D1*
X9959Y11648D1*
X9957Y11773D1*
X9979Y11896D1*
X10023Y12013D1*
X10088Y12119D1*
X10173Y12211D1*
X10283Y12291D1*
X10285Y13116D1*
X10186Y13182D1*
X10099Y13271D1*
X10030Y13375D1*
X9982Y13490D1*
X9957Y13612D1*
X9955Y13737D1*
X9975Y13856D1*
X9108Y13860D1*
X6573D1*
X6520Y13690D1*
Y12147D1*
X6603Y12076D1*
X6688Y11951D1*
X6730Y12018D1*
X6813Y12111D1*
X6915Y12183D1*
X7030Y12232D1*
X7153Y12254D1*
X7277Y12248D1*
X7398Y12216D1*
X7508Y12157D1*
X7603Y12076D1*
X7642Y12023D1*
X7733Y12020D1*
X7813Y12111D1*
X7915Y12183D1*
X8030Y12232D1*
X8153Y12254D1*
X8277Y12248D1*
X8398Y12216D1*
X8508Y12157D1*
X8603Y12076D1*
X8688Y11951D1*
X8730Y12018D1*
X8813Y12111D1*
X8915Y12183D1*
X9030Y12232D1*
X9153Y12254D1*
X9277Y12248D1*
X9398Y12216D1*
X9508Y12157D1*
X9603Y12076D1*
X9677Y11976D1*
X9728Y11862D1*
X9755Y11690D1*
X9741Y11566D1*
X9701Y11448D1*
X9635Y11342D1*
X9518Y11234D1*
X9520Y8827D1*
X10360Y7987D1*
X12838Y13566D2*
X12803Y13446D1*
X12746Y13335D1*
X12669Y13236D1*
X12576Y13154D1*
X12518Y13121D1*
X12520Y12295D1*
X12654Y12191D1*
X12734Y12095D1*
X12795Y11986D1*
X12834Y11867D1*
X12850Y11721D1*
X12838Y11597D1*
X12803Y11477D1*
X12746Y11366D1*
X12669Y11268D1*
X12576Y11186D1*
X12468Y11123D1*
X12350Y11081D1*
X12227Y11063D1*
X12102Y11067D1*
X11980Y11096D1*
X11863Y11149D1*
X11268Y10552D1*
X11270Y10069D1*
X11389Y10096D1*
X11513Y10093D1*
X11633Y10057D1*
X11738Y9990D1*
X11821Y9897D1*
X11881Y9767D1*
X12690Y9770D1*
X12940D1*
X13062Y9747D1*
X13173Y9673D1*
X13423Y9423D1*
X13494Y9317D1*
X13482Y9342D1*
X13581Y9370D1*
X13688Y9440D1*
X13596Y9497D1*
X13507Y9584D1*
X13439Y9689D1*
X13396Y9806D1*
X13380Y9930D1*
X13391Y10054D1*
X13430Y10173D1*
X13494Y10280D1*
X13581Y10370D1*
X13688Y10440D1*
X13596Y10497D1*
X13507Y10584D1*
X13439Y10689D1*
X13396Y10806D1*
X13380Y10930D1*
X13391Y11054D1*
X13430Y11173D1*
X13494Y11280D1*
X13581Y11370D1*
X13688Y11440D1*
X13596Y11497D1*
X13507Y11584D1*
X13439Y11689D1*
X13396Y11806D1*
X13380Y11930D1*
X13391Y12054D1*
X13430Y12173D1*
X13494Y12280D1*
X13581Y12370D1*
X13688Y12440D1*
X13596Y12497D1*
X13507Y12584D1*
X13439Y12689D1*
X13396Y12806D1*
X13380Y12930D1*
X13391Y13054D1*
X13430Y13173D1*
X13494Y13280D1*
X13581Y13370D1*
X13688Y13440D1*
X13596Y13497D1*
X13507Y13584D1*
X13439Y13689D1*
X13396Y13806D1*
X13380Y13930D1*
X13389Y14027D1*
X13301Y14113D1*
X12702Y14110D1*
X12795Y13954D1*
X12834Y13836D1*
X12850Y13690D1*
X12838Y13566D1*
X11863Y13117D2*
X11764Y13186D1*
X11677Y13275D1*
X11608Y13379D1*
X11560Y13495D1*
X11534Y13617D1*
X11532Y13741D1*
X11553Y13864D1*
X11598Y13981D1*
X11682Y14108D1*
X11506Y14110D1*
X11249Y13856D1*
X11273Y13686D1*
X11261Y13561D1*
X11226Y13442D1*
X11169Y13331D1*
X11092Y13232D1*
X10998Y13150D1*
X10948Y13121D1*
X10945Y12296D1*
X11079Y12191D1*
X11159Y12095D1*
X11220Y11986D1*
X11259Y11867D1*
X11275Y11721D1*
X11263Y11597D1*
X11228Y11477D1*
X11195Y11411D1*
X11533Y11749D1*
X11553Y11896D1*
X11598Y12013D1*
X11663Y12119D1*
X11747Y12211D1*
X11858Y12291D1*
X11860Y13116D1*
X8862Y7231D2*
X8761Y7323D1*
X8689Y7429D1*
X8635Y7342D1*
X8518Y7234D1*
X8520Y7077D1*
X8690Y7020D1*
X8858D1*
X8860Y7231D1*
X8690Y7947D2*
X8730Y8018D1*
X8813Y8111D1*
X8915Y8183D1*
X9030Y8232D1*
X9156Y8254D1*
X8957Y8457D1*
X8887Y8560D1*
X8860Y8690D1*
Y11233D1*
X8761Y11323D1*
X8689Y11429D1*
X8635Y11342D1*
X8548Y11253D1*
X8443Y11185D1*
X8326Y11142D1*
X8202Y11125D1*
X8078Y11136D1*
X8023Y11154D1*
X8020Y9565D1*
Y8225D1*
X8153Y8254D1*
X8277Y8248D1*
X8398Y8216D1*
X8508Y8157D1*
X8603Y8076D1*
X8688Y7951D1*
X5790Y5019D2*
X5771Y5048D1*
X5734Y5168D1*
X5728Y5243D1*
Y5435D1*
X5637Y5560D1*
X5610Y5690D1*
Y7440D1*
X5636Y7565D1*
X5626Y7540D1*
X5634Y7789D1*
X5669Y7909D1*
X5730Y8018D1*
X5813Y8111D1*
X5861Y8145D1*
X5860Y8553D1*
X5690Y8610D1*
X5389D1*
X5292Y8504D1*
X5190Y8439D1*
X5276Y8389D1*
X5367Y8303D1*
X5436Y8200D1*
X5482Y8084D1*
X5500Y7940D1*
X5486Y7816D1*
X5445Y7698D1*
X5379Y7592D1*
X5292Y7504D1*
X5190Y7439D1*
X5276Y7389D1*
X5367Y7303D1*
X5436Y7200D1*
X5482Y7084D1*
X5500Y6940D1*
X5486Y6816D1*
X5445Y6698D1*
X5379Y6592D1*
X5292Y6504D1*
X5190Y6439D1*
X5276Y6389D1*
X5367Y6303D1*
X5436Y6200D1*
X5482Y6084D1*
X5500Y5940D1*
X5486Y5816D1*
X5445Y5698D1*
X5379Y5592D1*
X5292Y5504D1*
X5190Y5439D1*
X5276Y5389D1*
X5367Y5303D1*
X5436Y5200D1*
X5482Y5084D1*
X5491Y5018D1*
X5788Y5020D1*
X4686Y5443D2*
X4596Y5497D1*
X4507Y5584D1*
X4439Y5689D1*
X4396Y5806D1*
X4380Y5930D1*
X4391Y6054D1*
X4430Y6173D1*
X4494Y6280D1*
X4581Y6370D1*
X4686Y6443D1*
X4596Y6497D1*
X4507Y6584D1*
X4439Y6689D1*
X4396Y6806D1*
X4380Y6930D1*
X4391Y7054D1*
X4430Y7173D1*
X4494Y7280D1*
X4581Y7370D1*
X4686Y7443D1*
X4596Y7497D1*
X4507Y7584D1*
X4439Y7689D1*
X4396Y7806D1*
X4380Y7930D1*
X4391Y8054D1*
X4430Y8173D1*
X4494Y8280D1*
X4581Y8370D1*
X4686Y8443D1*
X4596Y8497D1*
X4507Y8584D1*
X4439Y8689D1*
X4396Y8806D1*
X4380Y8930D1*
X4391Y9054D1*
X4430Y9173D1*
X4494Y9280D1*
X4581Y9370D1*
X4686Y9443D1*
X4596Y9497D1*
X4507Y9584D1*
X4439Y9689D1*
X4396Y9806D1*
X4380Y9930D1*
X4391Y10054D1*
X4430Y10173D1*
X4494Y10280D1*
X4581Y10370D1*
X4686Y10443D1*
X4596Y10497D1*
X4507Y10584D1*
X4439Y10689D1*
X4396Y10806D1*
X4380Y10930D1*
X4391Y11054D1*
X4430Y11173D1*
X4494Y11280D1*
X4581Y11370D1*
X4686Y11443D1*
X4596Y11497D1*
X4507Y11584D1*
X4439Y11689D1*
X4396Y11806D1*
X4380Y11930D1*
X4391Y12054D1*
X4430Y12173D1*
X4494Y12280D1*
X4581Y12370D1*
X4686Y12443D1*
X4596Y12497D1*
X4507Y12584D1*
X4439Y12689D1*
X4396Y12806D1*
X4380Y12930D1*
X4391Y13054D1*
X4430Y13173D1*
X4494Y13280D1*
X4597Y13381D1*
X4380Y13380D1*
Y14500D1*
X5500D1*
Y13380D1*
X5285D1*
X5367Y13303D1*
X5436Y13200D1*
X5482Y13084D1*
X5500Y12940D1*
X5486Y12816D1*
X5445Y12698D1*
X5379Y12592D1*
X5292Y12504D1*
X5190Y12439D1*
X5276Y12389D1*
X5367Y12303D1*
X5436Y12200D1*
X5482Y12084D1*
X5500Y11940D1*
X5486Y11816D1*
X5445Y11698D1*
X5379Y11592D1*
X5292Y11504D1*
X5190Y11439D1*
X5276Y11389D1*
X5367Y11303D1*
X5436Y11200D1*
X5482Y11084D1*
X5500Y10940D1*
X5486Y10816D1*
X5445Y10698D1*
X5379Y10592D1*
X5292Y10504D1*
X5190Y10439D1*
X5276Y10389D1*
X5367Y10303D1*
X5436Y10200D1*
X5482Y10084D1*
X5500Y9940D1*
X5486Y9816D1*
X5445Y9698D1*
X5379Y9592D1*
X5292Y9504D1*
X5190Y9439D1*
X5276Y9389D1*
X5367Y9303D1*
X5391Y9268D1*
X5940Y9270D1*
X6062Y9247D1*
X6173Y9173D1*
X6423Y8923D1*
X6493Y8820D1*
X6520Y8690D1*
X6523Y8144D1*
X6603Y8076D1*
X6690Y7947D1*
X6730Y8018D1*
X6813Y8111D1*
X6915Y8183D1*
X7030Y8232D1*
X7153Y8254D1*
X7277Y8248D1*
X7364Y8225D1*
X7360Y8940D1*
X7359Y11154D1*
X7202Y11125D1*
X7078Y11136D1*
X6959Y11174D1*
X6852Y11237D1*
X6761Y11323D1*
X6689Y11429D1*
X6635Y11342D1*
X6548Y11253D1*
X6443Y11185D1*
X6326Y11142D1*
X6202Y11125D1*
X6078Y11136D1*
X5959Y11174D1*
X5852Y11237D1*
X5761Y11323D1*
X5691Y11426D1*
X5645Y11542D1*
X5626Y11665D1*
X5634Y11789D1*
X5669Y11909D1*
X5730Y12018D1*
X5813Y12111D1*
X5861Y12145D1*
X5860Y13940D1*
X5883Y14062D1*
X5957Y14173D1*
X6207Y14423D1*
X6310Y14493D1*
X6440Y14520D1*
X10108D1*
X10230Y14497D1*
X10342Y14423D1*
X10446Y14321D1*
X10503Y14337D1*
X10627Y14346D1*
X10785Y14320D1*
X11023Y14563D1*
X9065Y14565D1*
X4315D1*
Y4315D1*
X5065D1*
X5050Y4392D1*
X4945Y4380D1*
X4821Y4393D1*
X4703Y4432D1*
X4596Y4497D1*
X4507Y4584D1*
X4439Y4689D1*
X4396Y4806D1*
X4380Y4930D1*
X4391Y5054D1*
X4430Y5173D1*
X4494Y5280D1*
X4581Y5370D1*
X4688Y5440D1*
D15*
X8440Y4940D3*
D16*
X9440D3*
D17*
X10940Y7940D3*
D18*
Y4940D3*
D19*
X12440Y4590D3*
D20*
Y8940D3*
D22*
X12190Y13690D3*
Y11721D3*
X10615D3*
X10613Y13686D3*
G36*
X10243Y9145D2*
X10342Y9046D1*
X10538D1*
X10637Y9145D1*
Y9735D1*
X10538Y9834D1*
X10342D1*
X10243Y9735D1*
Y9145D1*
G37*
D23*
X10940Y9440D3*
X11440D3*
D24*
X9190Y7690D3*
D25*
Y11690D3*
D17*
X6440Y6690D3*
D18*
X9440D3*
G36*
X7387Y5735D2*
X7288Y5834D1*
X7092D1*
X6993Y5735D1*
Y5145D1*
X7092Y5046D1*
X7288D1*
X7387Y5145D1*
Y5735D1*
G37*
D23*
X6690Y5440D3*
X6190D3*
D24*
X8190Y7690D3*
D25*
Y11690D3*
D24*
X7190D3*
D25*
Y7690D3*
D24*
X6190Y11690D3*
D25*
Y7690D3*
D15*
X4940Y13940D3*
D16*
Y12940D3*
Y11940D3*
Y10940D3*
Y9940D3*
Y8940D3*
Y7940D3*
Y6940D3*
Y5940D3*
Y4940D3*
D15*
X13940D3*
D16*
Y5940D3*
Y6940D3*
Y7940D3*
Y8940D3*
Y9940D3*
Y10940D3*
Y11940D3*
Y12940D3*
Y13940D3*
M02*
