G04 DipTrace 2.4.0.1*
%INBottomSilk.gbr*%
%MOIN*%
%ADD16C,0.0154*%
%ADD41C,0.0077*%
%FSLAX44Y44*%
G04*
G70*
G90*
G75*
G01*
%LNBotSilk*%
%LPD*%
X8364Y4939D2*
D16*
X8412Y5034D1*
X8508Y5130D1*
X8603Y5178D1*
X8794D1*
X8891Y5130D1*
X8986Y5034D1*
X9034Y4939D1*
X9082Y4796D1*
Y4556D1*
X9034Y4413D1*
X8986Y4317D1*
X8891Y4222D1*
X8794Y4173D1*
X8603D1*
X8508Y4222D1*
X8412Y4317D1*
X8364Y4413D1*
Y4556D1*
X8603D1*
X7291Y4173D2*
Y5178D1*
X7673Y4173D1*
X8056Y5178D1*
Y4173D1*
X6010Y5178D2*
X5627Y4173D1*
X5245Y5178D1*
X4363Y5034D2*
X4410Y5129D1*
X4554Y5177D1*
X4649D1*
X4793Y5129D1*
X4889Y4986D1*
X4936Y4747D1*
Y4508D1*
X4889Y4317D1*
X4793Y4221D1*
X4649Y4173D1*
X4601D1*
X4459Y4221D1*
X4363Y4317D1*
X4315Y4461D1*
Y4508D1*
X4363Y4652D1*
X4459Y4747D1*
X4601Y4794D1*
X4649D1*
X4793Y4747D1*
X4889Y4652D1*
X4936Y4508D1*
X7691Y9651D2*
D41*
X7738Y9699D1*
X7810Y9723D1*
X7906D1*
X7978Y9699D1*
X8026Y9651D1*
Y9603D1*
X8001Y9555D1*
X7978Y9531D1*
X7930Y9508D1*
X7786Y9460D1*
X7738Y9436D1*
X7714Y9411D1*
X7691Y9364D1*
Y9292D1*
X7738Y9245D1*
X7810Y9220D1*
X7906D1*
X7978Y9245D1*
X8026Y9292D1*
X7249Y9555D2*
Y9220D1*
Y9483D2*
X7297Y9531D1*
X7345Y9555D1*
X7416D1*
X7464Y9531D1*
X7512Y9483D1*
X7536Y9411D1*
Y9364D1*
X7512Y9292D1*
X7464Y9245D1*
X7416Y9220D1*
X7345D1*
X7297Y9245D1*
X7249Y9292D1*
X7095Y9555D2*
X6999Y9220D1*
X6904Y9555D1*
X6808Y9220D1*
X6713Y9555D1*
X6271D2*
Y9220D1*
Y9483D2*
X6319Y9531D1*
X6367Y9555D1*
X6438D1*
X6486Y9531D1*
X6534Y9483D1*
X6558Y9411D1*
Y9364D1*
X6534Y9292D1*
X6486Y9245D1*
X6438Y9220D1*
X6367D1*
X6319Y9245D1*
X6271Y9292D1*
X6117Y9723D2*
X6093Y9699D1*
X6069Y9723D1*
X6093Y9747D1*
X6117Y9723D1*
X6093Y9555D2*
Y9220D1*
X5914Y9555D2*
X5651D1*
X5914Y9220D1*
X5651D1*
X8671Y7973D2*
X8647D1*
X8599Y7949D1*
X8575Y7925D1*
X8551Y7877D1*
Y7782D1*
X8575Y7734D1*
X8599Y7710D1*
X8647Y7686D1*
X8695D1*
X8743Y7710D1*
X8814Y7758D1*
X9053Y7997D1*
Y7662D1*
X8551Y7364D2*
X8575Y7436D1*
X8647Y7484D1*
X8766Y7508D1*
X8838D1*
X8958Y7484D1*
X9030Y7436D1*
X9053Y7364D1*
Y7317D1*
X9030Y7245D1*
X8958Y7197D1*
X8838Y7173D1*
X8766D1*
X8647Y7197D1*
X8575Y7245D1*
X8551Y7317D1*
Y7364D1*
X8647Y7197D2*
X8958Y7484D1*
X8647Y7018D2*
X8623Y6970D1*
X8551Y6899D1*
X9053D1*
Y6505D2*
X8551D1*
X8886Y6744D1*
Y6385D1*
M02*
