G04 DipTrace 2.4.0.2*
%INBottom.gbr*%
%MOIN*%
%ADD13C,0.013*%
%ADD14C,0.025*%
%ADD15C,0.063*%
%ADD16R,0.063X0.063*%
%ADD17C,0.3*%
%ADD18C,0.1*%
%ADD19O,0.0394X0.0787*%
%ADD20C,0.06*%
%ADD21C,0.06*%
%FSLAX44Y44*%
G04*
G70*
G90*
G75*
G01*
%LNBottom*%
%LPD*%
X4502Y10378D2*
D13*
X5190Y9690D1*
Y8378D1*
X4752Y7940D1*
X10440Y8503D2*
Y8065D1*
X9815Y7440D1*
X9190D1*
X8440Y8190D1*
X6002D1*
X5922Y8270D1*
X4502Y9378D2*
X4262Y9138D1*
Y5430D1*
X4752Y4940D1*
X5086Y10306D2*
D14*
X7915D1*
X9086D2*
X10779D1*
X5313Y10058D2*
X8013D1*
X8993D2*
X9724D1*
X4350Y9809D2*
X4579D1*
X5524D2*
X8114D1*
X8891D2*
X9486D1*
X4350Y9560D2*
X4829D1*
X5543D2*
X7943D1*
X9063D2*
X9454D1*
X4350Y9312D2*
X4833D1*
X5543D2*
X7915D1*
X9090D2*
X9454D1*
X4350Y9063D2*
X4833D1*
X5543D2*
X8009D1*
X8996D2*
X9489D1*
X4350Y8814D2*
X4833D1*
X6485D2*
X8896D1*
X4350Y8565D2*
X4833D1*
X6653D2*
X8728D1*
X5356Y7571D2*
X5587D1*
X4350Y7322D2*
X6103D1*
X4350Y7073D2*
X5993D1*
X4350Y6825D2*
X5931D1*
X4350Y6576D2*
X5904D1*
X4350Y6327D2*
X5907D1*
X4350Y6079D2*
X5950D1*
X4350Y5830D2*
X6032D1*
X4350Y5581D2*
X6161D1*
X4350Y5333D2*
X6345D1*
X4350Y5084D2*
X6614D1*
X4350Y4835D2*
X7087D1*
X8293D2*
X8673D1*
X4350Y4586D2*
X8681D1*
X4350Y4338D2*
X8779D1*
X4325Y8520D2*
X4864D1*
X4860Y9253D1*
Y9553D1*
X4595Y9818D1*
X4515Y9813D1*
X4391Y9824D1*
X4328Y9844D1*
X4325Y8805D1*
Y8520D1*
X5332Y7782D2*
Y7360D1*
X4329D1*
X4325Y6805D1*
Y4325D1*
X8813D1*
X8743Y4463D1*
X8708Y4582D1*
X8693Y4706D1*
X8699Y4831D1*
X8725Y4953D1*
X8770Y5070D1*
X8812Y5140D1*
X8656Y5025D1*
X8438Y4904D1*
X8205Y4814D1*
X7961Y4758D1*
X7712Y4738D1*
X7463Y4752D1*
X7218Y4802D1*
X6983Y4885D1*
X6762Y5001D1*
X6559Y5147D1*
X6379Y5321D1*
X6225Y5518D1*
X6101Y5734D1*
X6008Y5966D1*
X5950Y6209D1*
X5926Y6458D1*
X5937Y6707D1*
X5983Y6953D1*
X6064Y7189D1*
X6177Y7412D1*
X6323Y7619D1*
X6239Y7574D1*
X6122Y7532D1*
X5999Y7509D1*
X5874Y7507D1*
X5750Y7525D1*
X5631Y7563D1*
X5520Y7619D1*
X5420Y7694D1*
X5330Y7786D1*
X5523Y8920D2*
X5580Y8954D1*
X5696Y9001D1*
X5818Y9028D1*
X5942Y9035D1*
X6066Y9022D1*
X6187Y8988D1*
X6300Y8936D1*
X6403Y8865D1*
X6493Y8779D1*
X6569Y8679D1*
X6643Y8521D1*
X8440Y8520D1*
X8562Y8497D1*
X8673Y8423D1*
X8704Y8393D1*
X8725Y8489D1*
X8770Y8605D1*
X8834Y8713D1*
X8914Y8808D1*
X9009Y8890D1*
X9115Y8954D1*
X9231Y9001D1*
X9353Y9028D1*
X9528Y9030D1*
X9484Y9168D1*
X9478Y9243D1*
X9481Y9686D1*
X9511Y9807D1*
X9572Y9915D1*
X9660Y10004D1*
X9768Y10065D1*
X9889Y10096D1*
X10013Y10093D1*
X10133Y10057D1*
X10188Y10021D1*
X10268Y10065D1*
X10389Y10096D1*
X10513Y10093D1*
X10633Y10057D1*
X10738Y9990D1*
X10803Y9918D1*
X10805Y10555D1*
X9041Y10550D1*
X9067Y10378D1*
X9054Y10254D1*
X9013Y10136D1*
X8948Y10029D1*
X8860Y9940D1*
X8765Y9879D1*
X8820Y9845D1*
X8915Y9764D1*
X8990Y9664D1*
X9041Y9550D1*
X9067Y9378D1*
X9054Y9254D1*
X9013Y9136D1*
X8948Y9029D1*
X8860Y8940D1*
X8756Y8872D1*
X8639Y8829D1*
X8515Y8813D1*
X8391Y8824D1*
X8272Y8862D1*
X8164Y8925D1*
X8073Y9010D1*
X8003Y9113D1*
X7957Y9229D1*
X7938Y9353D1*
X7946Y9477D1*
X7982Y9597D1*
X8042Y9706D1*
X8126Y9798D1*
X8238Y9875D1*
X8164Y9925D1*
X8073Y10010D1*
X8003Y10113D1*
X7957Y10229D1*
X7938Y10353D1*
X7946Y10477D1*
X7970Y10555D1*
X5035D1*
X5065Y10427D1*
X5058Y10288D1*
X5423Y9923D1*
X5493Y9821D1*
X5520Y9690D1*
Y8920D1*
D15*
X4752Y4940D3*
D16*
Y7940D3*
D17*
X7690Y6502D3*
D18*
X9458Y4735D3*
X5922D3*
Y8270D3*
X9458D3*
G36*
X9243Y9145D2*
X9342Y9046D1*
X9538D1*
X9637Y9145D1*
Y9735D1*
X9538Y9834D1*
X9342D1*
X9243Y9735D1*
Y9145D1*
G37*
D19*
X9940Y9440D3*
X10440D3*
D20*
X4502Y10378D3*
D21*
X8502D3*
D20*
Y9378D3*
D21*
X4502D3*
D20*
X10440Y4502D3*
D21*
Y8503D3*
M02*
