G04 DipTrace 2.4.0.2*
%INTopSilk.gbr*%
%MOIN*%
%ADD10C,0.0098*%
%ADD42C,0.0077*%
%ADD44C,0.0093*%
%FSLAX44Y44*%
G04*
G70*
G90*
G75*
G01*
%LNTopSilk*%
%LPD*%
X4152Y8142D2*
D10*
Y4738D1*
X5353Y8142D2*
Y4738D1*
X4152D2*
G03X5353Y4738I600J2D01*
G01*
Y8142D2*
G03X4152Y8142I-600J-2D01*
G01*
X9184Y8909D2*
G02X10696Y8909I756J666D01*
G01*
X9184D1*
X7501Y9878D2*
X5504D1*
Y10878D2*
Y9878D1*
X7501Y10878D2*
X5504D1*
X7501D2*
Y9878D1*
X5504D2*
X7501D1*
Y8878D2*
Y9878D1*
X5504Y8878D2*
X7501D1*
X5504D2*
Y9878D1*
X10940Y7501D2*
Y5504D1*
X9940D2*
X10940D1*
X9940Y7501D2*
Y5504D1*
Y7501D2*
X10940D1*
G36*
X11190Y5190D2*
X9940Y3940D1*
X11190D1*
Y5190D1*
G37*
X4591Y6375D2*
D42*
X4543Y6351D1*
X4495Y6303D1*
X4471Y6255D1*
Y6160D1*
X4495Y6112D1*
X4543Y6064D1*
X4591Y6040D1*
X4662Y6016D1*
X4782D1*
X4854Y6040D1*
X4902Y6064D1*
X4949Y6112D1*
X4974Y6160D1*
Y6255D1*
X4949Y6303D1*
X4902Y6351D1*
X4854Y6375D1*
X4591Y6553D2*
X4567D1*
X4519Y6577D1*
X4495Y6601D1*
X4472Y6649D1*
Y6745D1*
X4495Y6792D1*
X4519Y6816D1*
X4567Y6840D1*
X4615D1*
X4663Y6816D1*
X4734Y6768D1*
X4974Y6529D1*
Y6864D1*
X9648Y10026D2*
X9600Y10003D1*
X9552Y9955D1*
X9528Y9907D1*
X9504Y9835D1*
Y9716D1*
X9528Y9644D1*
X9552Y9596D1*
X9600Y9548D1*
X9648Y9525D1*
X9743D1*
X9791Y9548D1*
X9839Y9596D1*
X9863Y9644D1*
X9887Y9716D1*
Y9835D1*
X9863Y9907D1*
X9839Y9955D1*
X9791Y10003D1*
X9743Y10026D1*
X9648D1*
X9719Y9620D2*
X9863Y9477D1*
X10066Y9907D2*
Y9930D1*
X10089Y9978D1*
X10113Y10002D1*
X10161Y10026D1*
X10257D1*
X10304Y10002D1*
X10328Y9978D1*
X10352Y9930D1*
Y9883D1*
X10328Y9835D1*
X10281Y9763D1*
X10041Y9524D1*
X10376D1*
X5906Y10539D2*
Y10563D1*
X5930Y10611D1*
X5953Y10635D1*
X6002Y10658D1*
X6097D1*
X6145Y10635D1*
X6168Y10611D1*
X6193Y10563D1*
Y10515D1*
X6168Y10467D1*
X6121Y10396D1*
X5882Y10156D1*
X6217D1*
X6395Y10539D2*
Y10563D1*
X6419Y10611D1*
X6443Y10635D1*
X6491Y10658D1*
X6587D1*
X6634Y10635D1*
X6658Y10611D1*
X6682Y10563D1*
Y10515D1*
X6658Y10467D1*
X6610Y10396D1*
X6371Y10156D1*
X6706D1*
X6860Y10659D2*
Y10156D1*
X7100Y10491D2*
X6860Y10252D1*
X6956Y10348D2*
X7123Y10156D1*
X5744Y9563D2*
X5793Y9587D1*
X5864Y9658D1*
Y9156D1*
X6162Y9658D2*
X6091Y9635D1*
X6043Y9563D1*
X6019Y9443D1*
Y9371D1*
X6043Y9252D1*
X6091Y9180D1*
X6162Y9156D1*
X6210D1*
X6282Y9180D1*
X6329Y9252D1*
X6354Y9371D1*
Y9443D1*
X6329Y9563D1*
X6282Y9635D1*
X6210Y9658D1*
X6162D1*
X6329Y9563D2*
X6043Y9252D1*
X6652Y9658D2*
X6580Y9635D1*
X6532Y9563D1*
X6508Y9443D1*
Y9371D1*
X6532Y9252D1*
X6580Y9180D1*
X6652Y9156D1*
X6699D1*
X6771Y9180D1*
X6819Y9252D1*
X6843Y9371D1*
Y9443D1*
X6819Y9563D1*
X6771Y9635D1*
X6699Y9658D1*
X6652D1*
X6819Y9563D2*
X6532Y9252D1*
X6997Y9659D2*
Y9156D1*
X7237Y9491D2*
X6997Y9252D1*
X7093Y9348D2*
X7261Y9156D1*
X10255Y5989D2*
X10231Y6037D1*
X10159Y6109D1*
X10661D1*
X10159Y6407D2*
X10183Y6335D1*
X10255Y6287D1*
X10374Y6263D1*
X10446D1*
X10565Y6287D1*
X10637Y6335D1*
X10661Y6407D1*
Y6455D1*
X10637Y6527D1*
X10565Y6574D1*
X10446Y6598D1*
X10374D1*
X10255Y6574D1*
X10183Y6527D1*
X10159Y6455D1*
Y6407D1*
X10255Y6574D2*
X10565Y6287D1*
X10159Y6753D2*
X10661D1*
X10326Y6992D2*
X10565Y6753D1*
X10470Y6848D2*
X10661Y7016D1*
X6736Y4776D2*
X6689Y4824D1*
X6617Y4848D1*
X6521D1*
X6449Y4824D1*
X6401Y4776D1*
Y4728D1*
X6426Y4680D1*
X6449Y4656D1*
X6497Y4633D1*
X6641Y4585D1*
X6689Y4561D1*
X6713Y4536D1*
X6736Y4489D1*
Y4417D1*
X6689Y4370D1*
X6617Y4345D1*
X6521D1*
X6449Y4370D1*
X6401Y4417D1*
X7178Y4680D2*
Y4345D1*
Y4608D2*
X7130Y4656D1*
X7082Y4680D1*
X7011D1*
X6963Y4656D1*
X6915Y4608D1*
X6891Y4536D1*
Y4489D1*
X6915Y4417D1*
X6963Y4370D1*
X7011Y4345D1*
X7082D1*
X7130Y4370D1*
X7178Y4417D1*
X7332Y4680D2*
X7428Y4345D1*
X7523Y4680D1*
X7619Y4345D1*
X7714Y4680D1*
X8156D2*
Y4345D1*
Y4608D2*
X8108Y4656D1*
X8060Y4680D1*
X7989D1*
X7941Y4656D1*
X7893Y4608D1*
X7869Y4536D1*
Y4489D1*
X7893Y4417D1*
X7941Y4370D1*
X7989Y4345D1*
X8060D1*
X8108Y4370D1*
X8156Y4417D1*
X8310Y4848D2*
X8334Y4824D1*
X8358Y4848D1*
X8334Y4872D1*
X8310Y4848D1*
X8334Y4680D2*
Y4345D1*
X8513Y4680D2*
X8776D1*
X8513Y4345D1*
X8776D1*
X7659Y8814D2*
D44*
X7889Y8211D1*
X8118Y8814D1*
X8648Y8813D2*
X8361D1*
X8333Y8555D1*
X8361Y8584D1*
X8447Y8613D1*
X8533D1*
X8619Y8584D1*
X8677Y8527D1*
X8705Y8440D1*
Y8383D1*
X8677Y8297D1*
X8619Y8239D1*
X8533Y8211D1*
X8447D1*
X8361Y8239D1*
X8333Y8269D1*
X8303Y8326D1*
M02*
