G04 DipTrace 2.4.0.2*
%INBottom.gbr*%
%MOIN*%
%ADD13C,0.013*%
%ADD14C,0.025*%
%ADD15C,0.063*%
%ADD16R,0.063X0.063*%
%ADD17R,0.0709X0.0709*%
%ADD18C,0.0709*%
%ADD19C,0.3*%
%ADD20C,0.1*%
%ADD21R,0.0591X0.0591*%
%ADD22C,0.0591*%
%ADD24O,0.0394X0.0787*%
%ADD25C,0.06*%
%ADD26C,0.06*%
%FSLAX44Y44*%
G04*
G70*
G90*
G75*
G01*
%LNBottom*%
%LPD*%
X16190Y5190D2*
D13*
Y5690D1*
X15190Y6690D1*
Y7190D1*
X4690Y10690D2*
X5190Y10190D1*
X11190D1*
X11690Y9690D1*
Y9190D1*
X12190Y8690D1*
X14690D1*
X15190Y8190D1*
Y7190D1*
Y5190D2*
X8190D1*
X7690Y4690D1*
X4350Y10806D2*
D14*
X5118D1*
X14274D2*
X16044D1*
X4350Y10558D2*
X5122D1*
X14274D2*
X14587D1*
X15793D2*
X16044D1*
X4350Y10309D2*
X5255D1*
X6125D2*
X6254D1*
X7125D2*
X7254D1*
X8125D2*
X8254D1*
X10125D2*
X10254D1*
X11125D2*
X11254D1*
X12125D2*
X12254D1*
X14274D2*
X14587D1*
X15793D2*
X16044D1*
X5418Y10060D2*
X7962D1*
X10141D2*
X13239D1*
X14141D2*
X14587D1*
X15793D2*
X17029D1*
X5625Y9812D2*
X7755D1*
X10266D2*
X13114D1*
X14266D2*
X14587D1*
X15793D2*
X17029D1*
X5704Y9563D2*
X7677D1*
X10266D2*
X13114D1*
X14266D2*
X17029D1*
X5700Y9314D2*
X5974D1*
X7407D2*
X7681D1*
X10137D2*
X13243D1*
X14137D2*
X17029D1*
X9141Y9065D2*
X17029D1*
X4350Y8817D2*
X4482D1*
X8899D2*
X17029D1*
X4350Y8568D2*
X5134D1*
X8246D2*
X17029D1*
X4350Y8319D2*
X5017D1*
X8364D2*
X17029D1*
X4350Y8071D2*
X4943D1*
X8438D2*
X17029D1*
X4350Y7822D2*
X4904D1*
X8473D2*
X17029D1*
X4350Y7573D2*
X4904D1*
X8477D2*
X17029D1*
X4350Y7325D2*
X4939D1*
X8442D2*
X17029D1*
X4350Y7076D2*
X5009D1*
X8371D2*
X17029D1*
X4350Y6827D2*
X5126D1*
X8254D2*
X16282D1*
X4350Y6579D2*
X5294D1*
X8875D2*
X16095D1*
X4350Y6330D2*
X5540D1*
X9129D2*
X16044D1*
X4350Y6081D2*
X5939D1*
X7442D2*
X7685D1*
X9231D2*
X16103D1*
X4350Y5833D2*
X7673D1*
X9243D2*
X15044D1*
X15336D2*
X15544D1*
X15836D2*
X16310D1*
X4350Y5584D2*
X7747D1*
X9168D2*
X14747D1*
X16133D2*
X17029D1*
X4350Y5335D2*
X7845D1*
X16176D2*
X17029D1*
X6110Y5086D2*
X6266D1*
X7110D2*
X7266D1*
X16176D2*
X17029D1*
X14254Y4838D2*
X14732D1*
X16149D2*
X17029D1*
X14266Y4589D2*
X14943D1*
X15938D2*
X17029D1*
X14153Y4340D2*
X17029D1*
X8451Y7565D2*
X8415Y7318D1*
X8345Y7078D1*
X8243Y6850D1*
X8108Y6640D1*
X8052Y6569D1*
X8115Y6606D1*
X8231Y6653D1*
X8353Y6680D1*
X8478Y6687D1*
X8602Y6674D1*
X8722Y6640D1*
X8835Y6587D1*
X8939Y6517D1*
X9029Y6431D1*
X9104Y6331D1*
X9162Y6221D1*
X9201Y6102D1*
X9223Y5922D1*
X9213Y5798D1*
X9182Y5677D1*
X9105Y5519D1*
X14749Y5520D1*
X14822Y5665D1*
X14910Y5754D1*
X15018Y5815D1*
X15139Y5846D1*
X15263Y5843D1*
X15383Y5807D1*
X15438Y5771D1*
X15518Y5815D1*
X15639Y5846D1*
X15763Y5843D1*
X15883Y5807D1*
X15988Y5740D1*
X16071Y5647D1*
X16127Y5536D1*
X16152Y5387D1*
X16148Y4993D1*
X16135Y4870D1*
X16086Y4755D1*
X16008Y4658D1*
X15907Y4585D1*
X15790Y4542D1*
X15665Y4532D1*
X15543Y4555D1*
X15442Y4605D1*
X15290Y4542D1*
X15165Y4532D1*
X15043Y4555D1*
X14931Y4611D1*
X14838Y4694D1*
X14771Y4798D1*
X14752Y4862D1*
X14225Y4860D1*
X14250Y4690D1*
X14236Y4566D1*
X14195Y4448D1*
X14110Y4323D1*
X17055Y4325D1*
Y5837D1*
X16908Y5760D1*
X16787Y5728D1*
X16663Y5721D1*
X16539Y5739D1*
X16422Y5781D1*
X16316Y5846D1*
X16224Y5931D1*
X16152Y6033D1*
X16101Y6147D1*
X16075Y6269D1*
X16073Y6394D1*
X16096Y6516D1*
X16144Y6632D1*
X16214Y6735D1*
X16303Y6823D1*
X16407Y6891D1*
X16524Y6936D1*
X16647Y6957D1*
X16771Y6954D1*
X16893Y6925D1*
X17006Y6872D1*
X17053Y6838D1*
X17055Y10071D1*
X16071D1*
Y11059D1*
X15805Y11055D1*
X14246D1*
X14250Y10625D1*
Y10130D1*
X14043D1*
X14103Y10076D1*
X14177Y9976D1*
X14228Y9862D1*
X14255Y9690D1*
X14241Y9566D1*
X14201Y9448D1*
X14135Y9342D1*
X14048Y9253D1*
X13943Y9185D1*
X13826Y9142D1*
X13702Y9125D1*
X13578Y9136D1*
X13459Y9174D1*
X13352Y9237D1*
X13261Y9323D1*
X13191Y9426D1*
X13145Y9542D1*
X13126Y9665D1*
X13134Y9789D1*
X13169Y9909D1*
X13230Y10018D1*
X13342Y10131D1*
X13130Y10130D1*
X13129Y10342D1*
X13042Y10254D1*
X12936Y10187D1*
X12819Y10145D1*
X12695Y10130D1*
X12571Y10143D1*
X12453Y10182D1*
X12346Y10247D1*
X12257Y10334D1*
X12191Y10436D1*
X12129Y10342D1*
X12042Y10254D1*
X11936Y10187D1*
X11819Y10145D1*
X11695Y10130D1*
X11571Y10143D1*
X11453Y10182D1*
X11346Y10247D1*
X11257Y10334D1*
X11191Y10436D1*
X11129Y10342D1*
X11042Y10254D1*
X10936Y10187D1*
X10819Y10145D1*
X10695Y10130D1*
X10571Y10143D1*
X10453Y10182D1*
X10346Y10247D1*
X10257Y10334D1*
X10191Y10436D1*
X10129Y10342D1*
X10042Y10254D1*
X9946Y10193D1*
X10008Y10157D1*
X10103Y10076D1*
X10177Y9976D1*
X10228Y9862D1*
X10255Y9690D1*
X10241Y9566D1*
X10201Y9448D1*
X10135Y9342D1*
X10048Y9253D1*
X9943Y9185D1*
X9826Y9142D1*
X9702Y9125D1*
X9578Y9136D1*
X9459Y9174D1*
X9352Y9237D1*
X9261Y9323D1*
X9219Y9384D1*
X9182Y9212D1*
X9133Y9098D1*
X9065Y8993D1*
X8981Y8900D1*
X8884Y8822D1*
X8775Y8761D1*
X8657Y8719D1*
X8534Y8697D1*
X8409Y8694D1*
X8286Y8712D1*
X8167Y8750D1*
X8059Y8805D1*
X8198Y8607D1*
X8312Y8385D1*
X8394Y8149D1*
X8442Y7904D1*
X8455Y7690D1*
X8451Y7565D1*
X7810Y6327D2*
X7656Y6213D1*
X7438Y6091D1*
X7205Y6002D1*
X6961Y5946D1*
X6712Y5925D1*
X6463Y5940D1*
X6218Y5989D1*
X5983Y6073D1*
X5762Y6189D1*
X5559Y6335D1*
X5379Y6508D1*
X5225Y6705D1*
X5101Y6922D1*
X5008Y7154D1*
X4950Y7396D1*
X4926Y7645D1*
X4937Y7895D1*
X4983Y8140D1*
X5064Y8376D1*
X5177Y8599D1*
X5323Y8807D1*
X5239Y8761D1*
X5122Y8719D1*
X4999Y8697D1*
X4874Y8694D1*
X4750Y8712D1*
X4631Y8750D1*
X4520Y8807D1*
X4420Y8881D1*
X4326Y8980D1*
X4325Y5246D1*
X4755Y5250D1*
X5250D1*
Y5035D1*
X5331Y5120D1*
X5435Y5189D1*
X5551Y5233D1*
X5675Y5250D1*
X5799Y5240D1*
X5918Y5202D1*
X6026Y5139D1*
X6117Y5053D1*
X6191Y4939D1*
X6244Y5030D1*
X6331Y5120D1*
X6435Y5189D1*
X6551Y5233D1*
X6675Y5250D1*
X6799Y5240D1*
X6918Y5202D1*
X7026Y5139D1*
X7117Y5053D1*
X7191Y4939D1*
X7244Y5030D1*
X7331Y5120D1*
X7435Y5189D1*
X7551Y5233D1*
X7675Y5250D1*
X7772Y5242D1*
X7915Y5382D1*
X7797Y5537D1*
X7743Y5650D1*
X7708Y5770D1*
X7693Y5894D1*
X7699Y6019D1*
X7725Y6141D1*
X7770Y6257D1*
X7812Y6328D1*
X5571Y9055D2*
X5687Y9142D1*
X5902Y9269D1*
X6132Y9365D1*
X6374Y9427D1*
X6623Y9454D1*
X6872Y9446D1*
X7118Y9402D1*
X7356Y9325D1*
X7580Y9214D1*
X7786Y9073D1*
X7807Y9056D1*
X7743Y9186D1*
X7708Y9305D1*
X7693Y9429D1*
X7699Y9554D1*
X7725Y9676D1*
X7770Y9793D1*
X7834Y9900D1*
X7914Y9996D1*
X8009Y10077D1*
X8115Y10142D1*
X8231Y10188D1*
X8388Y10218D1*
X8257Y10334D1*
X8191Y10436D1*
X8129Y10342D1*
X8042Y10254D1*
X7936Y10187D1*
X7819Y10145D1*
X7695Y10130D1*
X7571Y10143D1*
X7453Y10182D1*
X7346Y10247D1*
X7257Y10334D1*
X7191Y10436D1*
X7129Y10342D1*
X7042Y10254D1*
X6936Y10187D1*
X6819Y10145D1*
X6695Y10130D1*
X6571Y10143D1*
X6453Y10182D1*
X6346Y10247D1*
X6257Y10334D1*
X6191Y10436D1*
X6129Y10342D1*
X6042Y10254D1*
X5936Y10187D1*
X5819Y10145D1*
X5695Y10130D1*
X5571Y10143D1*
X5453Y10182D1*
X5346Y10247D1*
X5257Y10334D1*
X5189Y10439D1*
X5146Y10556D1*
X5130Y10680D1*
X5141Y10804D1*
X5180Y10923D1*
X5269Y11055D1*
X4325D1*
Y9934D1*
X4378Y9996D1*
X4473Y10077D1*
X4580Y10142D1*
X4696Y10188D1*
X4818Y10216D1*
X4942Y10223D1*
X5066Y10209D1*
X5187Y10176D1*
X5300Y10123D1*
X5403Y10053D1*
X5493Y9967D1*
X5569Y9867D1*
X5627Y9756D1*
X5666Y9638D1*
X5687Y9458D1*
X5677Y9333D1*
X5647Y9212D1*
X5570Y9055D1*
X14735Y10770D2*
X15770D1*
Y9610D1*
X14610D1*
Y10770D1*
X14735D1*
D15*
X15190Y7190D3*
D16*
Y10190D3*
D17*
X16690Y10690D3*
D18*
Y6340D3*
D19*
X6690Y7690D3*
D20*
X8458Y5922D3*
X4922D3*
Y9458D3*
X8458D3*
D21*
X13690Y10690D3*
D22*
X12690D3*
X11690D3*
X10690D3*
X9690D3*
X8690D3*
X7690D3*
X6690D3*
X5690D3*
X4690D3*
D21*
Y4690D3*
D22*
X5690D3*
X6690D3*
X7690D3*
X8690D3*
X9690D3*
X10690D3*
X11690D3*
X12690D3*
X13690D3*
G36*
X16387Y5485D2*
X16288Y5584D1*
X16092D1*
X15993Y5485D1*
Y4895D1*
X16092Y4796D1*
X16288D1*
X16387Y4895D1*
Y5485D1*
G37*
D24*
X15690Y5190D3*
X15190D3*
D25*
X9690Y9690D3*
D26*
X13690D3*
M02*
