G04 DipTrace 2.4.0.2*
%INTop.gbr*%
%MOIN*%
%ADD13C,0.013*%
%ADD14C,0.025*%
%ADD15C,0.063*%
%ADD16R,0.063X0.063*%
%ADD17R,0.0709X0.0709*%
%ADD18C,0.0709*%
%ADD19C,0.3*%
%ADD20C,0.1*%
%ADD21R,0.0591X0.0591*%
%ADD22C,0.0591*%
%ADD23R,0.118X0.11*%
%ADD24O,0.0394X0.0787*%
%ADD25C,0.06*%
%ADD26C,0.06*%
%FSLAX44Y44*%
G04*
G70*
G90*
G75*
G01*
%LNTop*%
%LPD*%
X9690Y9690D2*
D13*
Y9190D1*
X8190Y7690D1*
X6690D1*
X4922Y9458D2*
X7458D1*
X8690Y10690D1*
X4922Y5922D2*
Y5958D1*
X4260Y6620D1*
Y10260D1*
X4690Y10690D1*
X13690Y7190D2*
Y6158D1*
Y5963D1*
Y5697D1*
Y4690D1*
X8458Y5922D2*
X13465D1*
X13537Y5851D1*
X13690Y5697D1*
X13537Y5851D2*
Y6004D1*
X13586Y6053D1*
X13690Y6158D1*
X13537Y5851D2*
X13578D1*
X13690Y5963D1*
X13586Y6053D1*
X9640Y7190D2*
X9690D1*
X10690Y8190D1*
X16190D1*
X16690Y7690D1*
Y6340D1*
X15690Y5190D2*
Y5690D1*
X16190Y6190D1*
X16540D1*
X16690Y6340D1*
X13690Y9690D2*
X14690D1*
X15190Y10190D1*
Y10690D1*
X16690D1*
X4350Y10806D2*
D14*
X5150D1*
X4350Y10558D2*
X5154D1*
X4350Y10309D2*
X5298D1*
X6082D2*
X6298D1*
X7082D2*
X7298D1*
X10082D2*
X10298D1*
X11082D2*
X11298D1*
X12082D2*
X12298D1*
X15766D2*
X16075D1*
X4350Y10060D2*
X4478D1*
X5368D2*
X7611D1*
X10102D2*
X13279D1*
X15766D2*
X17029D1*
X5590Y9812D2*
X7361D1*
X10235D2*
X13146D1*
X15766D2*
X17029D1*
X10235Y9563D2*
X13146D1*
X15012D2*
X17029D1*
X10094Y9314D2*
X13286D1*
X14094D2*
X17029D1*
X9989Y9065D2*
X17029D1*
X4350Y8817D2*
X4536D1*
X9766D2*
X17029D1*
X4350Y8568D2*
X5169D1*
X9516D2*
X17029D1*
X4350Y8319D2*
X5048D1*
X9270D2*
X10372D1*
X16508D2*
X17029D1*
X4350Y8071D2*
X4974D1*
X9020D2*
X10122D1*
X16758D2*
X17029D1*
X4350Y7822D2*
X4935D1*
X10770D2*
X12841D1*
X14539D2*
X16111D1*
X4350Y7573D2*
X4935D1*
X8524D2*
X8790D1*
X10524D2*
X12841D1*
X14539D2*
X16357D1*
X4350Y7325D2*
X4970D1*
X8411D2*
X8790D1*
X10489D2*
X12841D1*
X14539D2*
X16364D1*
X4350Y7076D2*
X5044D1*
X8336D2*
X8790D1*
X10489D2*
X12841D1*
X14539D2*
X16364D1*
X4350Y6827D2*
X5161D1*
X8219D2*
X8790D1*
X10489D2*
X12841D1*
X14539D2*
X16333D1*
X4350Y6579D2*
X5333D1*
X10489D2*
X12841D1*
X14539D2*
X16126D1*
X4350Y6330D2*
X5587D1*
X9094D2*
X13364D1*
X14016D2*
X15880D1*
X4350Y6081D2*
X6017D1*
X7364D2*
X7716D1*
X14016D2*
X15634D1*
X4350Y5833D2*
X7704D1*
X14016D2*
X15400D1*
X4350Y5584D2*
X7779D1*
X9133D2*
X13353D1*
X14016D2*
X14782D1*
X16098D2*
X17029D1*
X4350Y5335D2*
X7989D1*
X8926D2*
X13364D1*
X14016D2*
X14732D1*
X16145D2*
X17029D1*
X6067Y5086D2*
X6314D1*
X7067D2*
X7314D1*
X8067D2*
X8314D1*
X9067D2*
X9314D1*
X10067D2*
X10314D1*
X11067D2*
X11314D1*
X12067D2*
X12314D1*
X13067D2*
X13314D1*
X14067D2*
X14732D1*
X16145D2*
X17029D1*
X14223Y4838D2*
X14763D1*
X16118D2*
X17029D1*
X14235Y4589D2*
X15013D1*
X15368D2*
X15510D1*
X15868D2*
X17029D1*
X14114Y4340D2*
X17029D1*
X15740Y10392D2*
Y9640D1*
X15064D1*
X14902Y9478D1*
X14794Y9410D1*
X14690Y9390D1*
X14131D1*
X14099Y9345D1*
X14008Y9260D1*
X13900Y9198D1*
X13780Y9163D1*
X13655Y9156D1*
X13533Y9179D1*
X13419Y9229D1*
X13319Y9304D1*
X13240Y9401D1*
X13185Y9513D1*
X13158Y9634D1*
X13159Y9759D1*
X13190Y9880D1*
X13247Y9991D1*
X13329Y10085D1*
X13434Y10159D1*
X13160Y10160D1*
Y10445D1*
X13093Y10345D1*
X13002Y10261D1*
X12893Y10200D1*
X12773Y10166D1*
X12648Y10161D1*
X12526Y10186D1*
X12412Y10238D1*
X12315Y10315D1*
X12238Y10413D1*
X12190Y10516D1*
X12162Y10449D1*
X12093Y10345D1*
X12002Y10261D1*
X11893Y10200D1*
X11773Y10166D1*
X11648Y10161D1*
X11526Y10186D1*
X11412Y10238D1*
X11315Y10315D1*
X11238Y10413D1*
X11190Y10516D1*
X11162Y10449D1*
X11093Y10345D1*
X11002Y10261D1*
X10893Y10200D1*
X10773Y10166D1*
X10648Y10161D1*
X10526Y10186D1*
X10412Y10238D1*
X10315Y10315D1*
X10238Y10413D1*
X10190Y10516D1*
X10162Y10449D1*
X10093Y10345D1*
X10002Y10261D1*
X9866Y10193D1*
X9912Y10177D1*
X10019Y10112D1*
X10107Y10025D1*
X10174Y9919D1*
X10213Y9801D1*
X10225Y9690D1*
X10210Y9566D1*
X10168Y9449D1*
X10099Y9345D1*
X9991Y9250D1*
X9990Y9190D1*
X9962Y9065D1*
X9902Y8978D1*
X8899Y7975D1*
X10053D1*
X10478Y8402D1*
X10586Y8470D1*
X10690Y8490D1*
X16190D1*
X16315Y8462D1*
X16402Y8402D1*
X16902Y7902D1*
X16970Y7794D1*
X16990Y7690D1*
Y6850D1*
X17057Y6797D1*
X17055Y9325D1*
Y10102D1*
X16101Y10101D1*
Y10394D1*
X15741Y10390D1*
X17057Y5882D2*
X16978Y5825D1*
X16863Y5776D1*
X16741Y5752D1*
X16616Y5755D1*
X16495Y5784D1*
X16382Y5837D1*
X16311Y5892D1*
X16051Y5627D1*
X16113Y5475D1*
X16122Y5387D1*
X16118Y4993D1*
X16104Y4870D1*
X16051Y4757D1*
X15969Y4664D1*
X15863Y4598D1*
X15743Y4565D1*
X15619Y4567D1*
X15500Y4605D1*
X15445Y4643D1*
X15363Y4598D1*
X15243Y4565D1*
X15119Y4567D1*
X15000Y4605D1*
X14897Y4676D1*
X14819Y4772D1*
X14771Y4888D1*
X14758Y4993D1*
X14762Y5387D1*
X14782Y5528D1*
X14839Y5638D1*
X14925Y5728D1*
X15034Y5789D1*
X15155Y5817D1*
X15279Y5809D1*
X15399Y5764D1*
X15436Y5849D1*
X15566Y5991D1*
X15978Y6402D1*
X16119Y6487D1*
X16163Y6603D1*
X16230Y6708D1*
X16318Y6797D1*
X16387Y6842D1*
X16389Y7566D1*
X16065Y7890D1*
X14514D1*
X14515Y6405D1*
X13988D1*
X13990Y5963D1*
Y5131D1*
X14120Y5001D1*
X14180Y4892D1*
X14214Y4771D1*
X14220Y4690D1*
X14206Y4566D1*
X14162Y4449D1*
X14073Y4327D1*
X15700Y4325D1*
X17055D1*
Y5876D1*
X8412Y7491D2*
X8385Y7318D1*
X8314Y7078D1*
X8209Y6852D1*
X8073Y6642D1*
X7908Y6454D1*
X7718Y6292D1*
X7507Y6159D1*
X7278Y6058D1*
X7038Y5990D1*
X6790Y5958D1*
X6541Y5961D1*
X6294Y6001D1*
X6055Y6075D1*
X5830Y6183D1*
X5623Y6322D1*
X5437Y6490D1*
X5278Y6682D1*
X5148Y6895D1*
X5050Y7125D1*
X4985Y7366D1*
X4957Y7614D1*
X4964Y7864D1*
X5007Y8110D1*
X5084Y8347D1*
X5195Y8571D1*
X5337Y8777D1*
X5508Y8960D1*
X5702Y9116D1*
X5765Y9156D1*
X5594Y9158D1*
X5494Y8995D1*
X5407Y8905D1*
X5307Y8831D1*
X5195Y8775D1*
X5076Y8739D1*
X4952Y8723D1*
X4827Y8729D1*
X4705Y8756D1*
X4589Y8802D1*
X4483Y8868D1*
X4390Y8951D1*
X4324Y9033D1*
X4325Y5223D1*
X5220Y5220D1*
Y4935D1*
X5262Y5002D1*
X5346Y5094D1*
X5450Y5163D1*
X5567Y5206D1*
X5691Y5220D1*
X5815Y5205D1*
X5932Y5162D1*
X6035Y5092D1*
X6120Y5001D1*
X6188Y4865D1*
X6262Y5002D1*
X6346Y5094D1*
X6450Y5163D1*
X6567Y5206D1*
X6691Y5220D1*
X6815Y5205D1*
X6932Y5162D1*
X7035Y5092D1*
X7120Y5001D1*
X7188Y4865D1*
X7262Y5002D1*
X7346Y5094D1*
X7450Y5163D1*
X7567Y5206D1*
X7691Y5220D1*
X7815Y5205D1*
X7932Y5162D1*
X8035Y5092D1*
X8120Y5001D1*
X8188Y4865D1*
X8262Y5002D1*
X8346Y5094D1*
X8450Y5163D1*
X8527Y5191D1*
X8363Y5193D1*
X8241Y5220D1*
X8125Y5267D1*
X8019Y5333D1*
X7925Y5416D1*
X7847Y5513D1*
X7787Y5622D1*
X7746Y5740D1*
X7725Y5863D1*
X7726Y5988D1*
X7747Y6111D1*
X7790Y6229D1*
X7851Y6337D1*
X7930Y6434D1*
X8024Y6516D1*
X8131Y6581D1*
X8247Y6626D1*
X8369Y6652D1*
X8494Y6656D1*
X8618Y6640D1*
X8737Y6602D1*
X8817Y6561D1*
X8815Y7893D1*
X8416Y7491D1*
X9127Y5624D2*
X9099Y5563D1*
X9029Y5460D1*
X8943Y5370D1*
X8842Y5296D1*
X8731Y5240D1*
X8667Y5220D1*
X8815Y5205D1*
X8932Y5162D1*
X9035Y5092D1*
X9120Y5001D1*
X9188Y4865D1*
X9262Y5002D1*
X9346Y5094D1*
X9450Y5163D1*
X9567Y5206D1*
X9691Y5220D1*
X9815Y5205D1*
X9932Y5162D1*
X10035Y5092D1*
X10120Y5001D1*
X10188Y4865D1*
X10262Y5002D1*
X10346Y5094D1*
X10450Y5163D1*
X10567Y5206D1*
X10691Y5220D1*
X10815Y5205D1*
X10932Y5162D1*
X11035Y5092D1*
X11120Y5001D1*
X11188Y4865D1*
X11262Y5002D1*
X11346Y5094D1*
X11450Y5163D1*
X11567Y5206D1*
X11691Y5220D1*
X11815Y5205D1*
X11932Y5162D1*
X12035Y5092D1*
X12120Y5001D1*
X12188Y4865D1*
X12262Y5002D1*
X12346Y5094D1*
X12450Y5163D1*
X12567Y5206D1*
X12691Y5220D1*
X12815Y5205D1*
X12932Y5162D1*
X13035Y5092D1*
X13120Y5001D1*
X13188Y4865D1*
X13262Y5002D1*
X13346Y5094D1*
X13389Y5122D1*
Y5574D1*
X13346Y5614D1*
X13090Y5622D1*
X9125D1*
X9009Y6405D2*
X9102Y6275D1*
X9126Y6222D1*
X13329D1*
X13390Y6283D1*
Y6405D1*
X12865D1*
Y7893D1*
X12190Y7890D1*
X10814Y7889D1*
X10463Y7539D1*
X10465Y6405D1*
X9008D1*
X4323Y9882D2*
X4395Y9969D1*
X4489Y10051D1*
X4595Y10116D1*
X4712Y10162D1*
X4834Y10187D1*
X4959Y10192D1*
X5082Y10175D1*
X5201Y10138D1*
X5312Y10081D1*
X5412Y10006D1*
X5498Y9915D1*
X5567Y9811D1*
X5591Y9757D1*
X7334Y9758D1*
X7740Y10164D1*
X7648Y10161D1*
X7526Y10186D1*
X7412Y10238D1*
X7315Y10315D1*
X7238Y10413D1*
X7190Y10516D1*
X7162Y10449D1*
X7093Y10345D1*
X7002Y10261D1*
X6893Y10200D1*
X6773Y10166D1*
X6648Y10161D1*
X6526Y10186D1*
X6412Y10238D1*
X6315Y10315D1*
X6238Y10413D1*
X6190Y10516D1*
X6162Y10449D1*
X6093Y10345D1*
X6002Y10261D1*
X5893Y10200D1*
X5773Y10166D1*
X5648Y10161D1*
X5526Y10186D1*
X5412Y10238D1*
X5315Y10315D1*
X5238Y10413D1*
X5185Y10527D1*
X5161Y10649D1*
X5166Y10774D1*
X5200Y10894D1*
X5262Y11002D1*
X5305Y11055D1*
X4325D1*
Y9887D1*
D15*
X15190Y7190D3*
D16*
Y10190D3*
D17*
X16690Y10690D3*
D18*
Y6340D3*
D19*
X6690Y7690D3*
D20*
X8458Y5922D3*
X4922D3*
Y9458D3*
X8458D3*
D21*
X13690Y10690D3*
D22*
X12690D3*
X11690D3*
X10690D3*
X9690D3*
X8690D3*
X7690D3*
X6690D3*
X5690D3*
X4690D3*
D21*
Y4690D3*
D22*
X5690D3*
X6690D3*
X7690D3*
X8690D3*
X9690D3*
X10690D3*
X11690D3*
X12690D3*
X13690D3*
D23*
Y7190D3*
X9640D3*
G36*
X16387Y5485D2*
X16288Y5584D1*
X16092D1*
X15993Y5485D1*
Y4895D1*
X16092Y4796D1*
X16288D1*
X16387Y4895D1*
Y5485D1*
G37*
D24*
X15690Y5190D3*
X15190D3*
D25*
X9690Y9690D3*
D26*
X13690D3*
M02*
