G04 DipTrace 2.4.0.2*
%INTopSilk.gbr*%
%MOIN*%
%ADD10C,0.0098*%
%ADD14C,0.025*%
%ADD57C,0.0077*%
%FSLAX44Y44*%
G04*
G70*
G90*
G75*
G01*
%LNTopSilk*%
%LPD*%
X14590Y10392D2*
D10*
Y6988D1*
X15790Y10392D2*
Y6988D1*
X14590D2*
G03X15790Y6988I600J2D01*
G01*
Y10392D2*
G03X14590Y10392I-600J-2D01*
G01*
X16139Y9461D2*
X17241D1*
Y9441D2*
Y7589D1*
X16139Y9162D2*
X17241D1*
X16139Y7589D2*
X17241D1*
X16139Y9441D2*
Y7589D1*
X4190Y11190D2*
Y10190D1*
X14190Y11190D2*
X4190D1*
X14190D2*
Y10190D1*
X13440D1*
X4190D1*
X14190Y4190D2*
Y5190D1*
X4190Y4190D2*
X14190D1*
X4190D2*
Y5190D1*
X4940D1*
X14190D1*
D14*
X12790Y7190D3*
X14165D2*
D10*
Y6190D1*
X12165Y5190D1*
X11165D1*
X9165Y6190D1*
Y8190D1*
X11165Y9190D1*
X12165D1*
X14165Y8190D1*
Y7190D1*
X16446Y5721D2*
G02X14934Y5721I-756J-666D01*
G01*
X16446D1*
X12688Y9190D2*
X10692D1*
Y10190D2*
Y9190D1*
X12688Y10190D2*
X10692D1*
X12688D2*
Y9190D1*
G36*
X16190Y3940D2*
X17440Y5190D1*
Y3940D1*
X16190D1*
G37*
X15028Y8732D2*
D57*
X14981Y8708D1*
X14932Y8660D1*
X14909Y8613D1*
Y8517D1*
X14932Y8469D1*
X14981Y8422D1*
X15028Y8397D1*
X15100Y8373D1*
X15220D1*
X15291Y8397D1*
X15339Y8422D1*
X15387Y8469D1*
X15411Y8517D1*
Y8613D1*
X15387Y8660D1*
X15339Y8708D1*
X15291Y8732D1*
X15005Y8887D2*
X14981Y8935D1*
X14909Y9007D1*
X15411D1*
X16409Y8210D2*
X16911D1*
Y8378D1*
X16887Y8449D1*
X16839Y8498D1*
X16791Y8521D1*
X16720Y8545D1*
X16600D1*
X16528Y8521D1*
X16481Y8498D1*
X16432Y8449D1*
X16409Y8378D1*
Y8210D1*
X16505Y8699D2*
X16481Y8748D1*
X16409Y8819D1*
X16911D1*
X11384Y7471D2*
Y6969D1*
X11671D1*
X11826Y7375D2*
X11874Y7399D1*
X11946Y7471D1*
Y6969D1*
X15505Y4666D2*
X15457Y4643D1*
X15409Y4595D1*
X15386Y4547D1*
X15361Y4475D1*
Y4356D1*
X15386Y4284D1*
X15409Y4236D1*
X15457Y4188D1*
X15505Y4164D1*
X15601D1*
X15649Y4188D1*
X15696Y4236D1*
X15720Y4284D1*
X15744Y4356D1*
Y4475D1*
X15720Y4547D1*
X15696Y4595D1*
X15649Y4643D1*
X15601Y4666D1*
X15505D1*
X15577Y4260D2*
X15720Y4116D1*
X15899Y4570D2*
X15947Y4594D1*
X16019Y4666D1*
Y4164D1*
X11136Y9469D2*
Y9971D1*
X10896Y9636D1*
X11255D1*
X11433Y9517D2*
X11409Y9493D1*
X11433Y9469D1*
X11457Y9493D1*
X11433Y9517D1*
X11708Y9469D2*
X11947Y9971D1*
X11612D1*
X12484Y9469D2*
Y9971D1*
X12292Y9469D1*
X12101Y9971D1*
Y9469D1*
M02*
