G04 DipTrace 2.4.0.2*
%INTop.gbr*%
%MOIN*%
%ADD13C,0.013*%
%ADD14C,0.025*%
%ADD15C,0.063*%
%ADD16R,0.063X0.063*%
%ADD17C,0.3*%
%ADD18C,0.1*%
%ADD19O,0.0394X0.0787*%
%ADD20C,0.06*%
%ADD21C,0.06*%
%FSLAX44Y44*%
G04*
G70*
G90*
G75*
G01*
%LNTop*%
%LPD*%
X4752Y7940D2*
D13*
Y6878D1*
X5127Y6502D1*
X7690D1*
X10440Y8503D2*
Y9440D1*
X4752Y4940D2*
X5252Y4440D1*
X5627D1*
X5922Y4735D1*
X9440Y9440D2*
X8940Y8940D1*
X4940D1*
X4502Y9378D1*
X9458Y4735D2*
X9690Y4502D1*
X10440D1*
X8502Y9378D2*
Y10378D1*
X9752D1*
X9940Y10190D1*
Y9440D1*
X5059Y10306D2*
D14*
X7946D1*
X4957Y10058D2*
X8048D1*
X8957D2*
X9614D1*
X4350Y9809D2*
X8161D1*
X8844D2*
X9521D1*
X4350Y9560D2*
X7974D1*
X9032D2*
X9482D1*
X4350Y9312D2*
X7946D1*
X9059D2*
X9482D1*
X4350Y9063D2*
X8044D1*
X8961D2*
X9525D1*
X4350Y8814D2*
X5404D1*
X6442D2*
X8939D1*
X4350Y8565D2*
X5224D1*
X6621D2*
X8759D1*
X6680Y8317D2*
X8700D1*
X6653Y8068D2*
X6919D1*
X8461D2*
X8728D1*
X10063Y7819D2*
X10779D1*
X5329Y7571D2*
X5673D1*
X9082D2*
X9208D1*
X9707D2*
X10779D1*
X5079Y7322D2*
X6134D1*
X9243D2*
X10779D1*
X5079Y7073D2*
X6029D1*
X9352D2*
X10779D1*
X5254Y6825D2*
X5962D1*
X9418D2*
X10779D1*
X4350Y6576D2*
X4607D1*
X9450D2*
X10779D1*
X4350Y6327D2*
X4853D1*
X9442D2*
X10779D1*
X4350Y6079D2*
X5982D1*
X9399D2*
X10779D1*
X4350Y5830D2*
X6068D1*
X9313D2*
X10779D1*
X4350Y5581D2*
X6196D1*
X9184D2*
X10779D1*
X4350Y5333D2*
X6384D1*
X9911D2*
X10779D1*
X4350Y5084D2*
X6665D1*
X10129D2*
X10779D1*
X4350Y4835D2*
X7185D1*
X8196D2*
X8704D1*
X4350Y4586D2*
X8712D1*
X4350Y4338D2*
X8814D1*
X4324Y8490D2*
X5218D1*
X5254Y8577D1*
X5316Y8685D1*
X5395Y8782D1*
X5489Y8864D1*
X5595Y8929D1*
X5712Y8974D1*
X5834Y9000D1*
X5959Y9004D1*
X6082Y8988D1*
X6201Y8950D1*
X6312Y8893D1*
X6412Y8818D1*
X6498Y8727D1*
X6567Y8623D1*
X6617Y8509D1*
X6648Y8388D1*
X6657Y8270D1*
X6647Y8146D1*
X6615Y8025D1*
X6564Y7911D1*
X6494Y7808D1*
X6407Y7718D1*
X6307Y7644D1*
X6195Y7588D1*
X6076Y7551D1*
X5952Y7536D1*
X5827Y7541D1*
X5705Y7568D1*
X5589Y7615D1*
X5483Y7681D1*
X5390Y7764D1*
X5302Y7878D1*
Y7390D1*
X5049D1*
X5053Y7001D1*
X5252Y6803D1*
X5983D1*
X6041Y7043D1*
X6136Y7274D1*
X6263Y7489D1*
X6419Y7684D1*
X6602Y7854D1*
X6807Y7996D1*
X7031Y8107D1*
X7268Y8185D1*
X7514Y8229D1*
X7764Y8236D1*
X8012Y8207D1*
X8254Y8143D1*
X8483Y8045D1*
X8697Y7916D1*
X8889Y7756D1*
X9057Y7571D1*
X9196Y7364D1*
X9304Y7139D1*
X9379Y6900D1*
X9418Y6654D1*
X9425Y6502D1*
X9407Y6253D1*
X9353Y6009D1*
X9265Y5776D1*
X9145Y5557D1*
X8994Y5358D1*
X8816Y5183D1*
X8615Y5034D1*
X8394Y4917D1*
X8159Y4832D1*
X7915Y4782D1*
X7665Y4768D1*
X7416Y4789D1*
X7173Y4846D1*
X6941Y4938D1*
X6724Y5061D1*
X6527Y5215D1*
X6354Y5395D1*
X6209Y5599D1*
X6095Y5821D1*
X6013Y6057D1*
X5981Y6206D1*
X5315Y6202D1*
X5127D1*
X5003Y6230D1*
X4915Y6290D1*
X4540Y6665D1*
X4472Y6773D1*
X4452Y6878D1*
Y7389D1*
X4322Y7390D1*
X4325Y6305D1*
Y4325D1*
X8847D1*
X8787Y4435D1*
X8746Y4553D1*
X8725Y4676D1*
X8726Y4801D1*
X8747Y4924D1*
X8790Y5041D1*
X8851Y5150D1*
X8930Y5246D1*
X9024Y5328D1*
X9131Y5393D1*
X9247Y5439D1*
X9369Y5464D1*
X9494Y5469D1*
X9618Y5452D1*
X9737Y5415D1*
X9848Y5358D1*
X9948Y5283D1*
X10033Y5192D1*
X10102Y5088D1*
X10158Y4955D1*
X10296Y5018D1*
X10419Y5037D1*
X10543Y5027D1*
X10662Y4989D1*
X10769Y4925D1*
X10805Y4889D1*
Y8110D1*
X10758Y8072D1*
X10650Y8010D1*
X10530Y7975D1*
X10405Y7969D1*
X10283Y7991D1*
X10159Y8049D1*
X10099Y7911D1*
X10029Y7808D1*
X9943Y7718D1*
X9842Y7644D1*
X9731Y7588D1*
X9611Y7551D1*
X9487Y7536D1*
X9363Y7541D1*
X9241Y7568D1*
X9125Y7615D1*
X9019Y7681D1*
X8925Y7764D1*
X8847Y7861D1*
X8787Y7970D1*
X8746Y8088D1*
X8725Y8211D1*
X8726Y8336D1*
X8747Y8459D1*
X8790Y8577D1*
X8851Y8685D1*
X8930Y8782D1*
X9024Y8864D1*
X9131Y8929D1*
X9247Y8974D1*
X9369Y9000D1*
X9494Y9004D1*
X9591Y8991D1*
X9569Y9022D1*
X9521Y9138D1*
X9508Y9243D1*
X9512Y9637D1*
X9532Y9778D1*
X9589Y9888D1*
X9640Y9942D1*
X9639Y10066D1*
X9627Y10078D1*
X8944D1*
X8911Y10032D1*
X8803Y9938D1*
X8802Y9819D1*
X8920Y9712D1*
X8986Y9606D1*
X9026Y9488D1*
X9037Y9378D1*
X9023Y9254D1*
X8980Y9137D1*
X8911Y9032D1*
X8820Y8947D1*
X8712Y8885D1*
X8592Y8850D1*
X8468Y8844D1*
X8345Y8866D1*
X8231Y8916D1*
X8132Y8992D1*
X8053Y9088D1*
X7998Y9200D1*
X7970Y9322D1*
X7972Y9447D1*
X8002Y9568D1*
X8060Y9678D1*
X8142Y9772D1*
X8202Y9816D1*
Y9936D1*
X8132Y9992D1*
X8053Y10088D1*
X7998Y10200D1*
X7970Y10322D1*
X7972Y10447D1*
X8000Y10556D1*
X5004Y10555D1*
X5026Y10488D1*
X5037Y10378D1*
X5023Y10254D1*
X4980Y10137D1*
X4911Y10032D1*
X4820Y9947D1*
X4712Y9885D1*
X4592Y9850D1*
X4468Y9844D1*
X4327Y9874D1*
X4325Y8489D1*
D15*
X4752Y4940D3*
D16*
Y7940D3*
D17*
X7690Y6502D3*
D18*
X9458Y4735D3*
X5922D3*
Y8270D3*
X9458D3*
G36*
X9243Y9145D2*
X9342Y9046D1*
X9538D1*
X9637Y9145D1*
Y9735D1*
X9538Y9834D1*
X9342D1*
X9243Y9735D1*
Y9145D1*
G37*
D19*
X9940Y9440D3*
X10440D3*
D20*
X4502Y10378D3*
D21*
X8502D3*
D20*
Y9378D3*
D21*
X4502D3*
D20*
X10440Y4502D3*
D21*
Y8503D3*
M02*
