G04 DipTrace 2.4.0.1*
%INTopMask.gbr*%
%MOIN*%
%ADD18R,0.0709X0.0709*%
%ADD36C,0.068*%
%ADD38C,0.068*%
%ADD40O,0.0474X0.0867*%
%ADD42C,0.087*%
%ADD43C,0.071*%
%ADD44C,0.0789*%
%ADD46R,0.0789X0.0789*%
%ADD49C,0.0671*%
%ADD51R,0.0671X0.0671*%
%FSLAX44Y44*%
G04*
G70*
G90*
G75*
G01*
%LNTopMask*%
%LPD*%
D51*
X7290Y43426D3*
D49*
Y42639D3*
D43*
X10040Y34676D3*
D18*
Y31676D3*
D43*
X8290Y23926D3*
D18*
X11290D3*
D43*
X8040Y26426D3*
D18*
Y27426D3*
X8290Y29676D3*
D43*
X7290D3*
D46*
X11540Y31426D3*
D44*
Y35777D3*
D51*
X7290Y37926D3*
D49*
Y38926D3*
D51*
X10540Y21176D3*
D49*
Y20176D3*
X9540Y21176D3*
Y20176D3*
X8540Y21176D3*
Y20176D3*
D51*
X7040Y9676D3*
D49*
Y10676D3*
Y11676D3*
Y12676D3*
Y13676D3*
Y14676D3*
Y15676D3*
Y16676D3*
Y17676D3*
Y18676D3*
D51*
X12040Y9676D3*
D49*
Y10676D3*
Y11676D3*
Y12676D3*
Y13676D3*
Y14676D3*
Y15676D3*
Y16676D3*
Y17676D3*
Y18676D3*
D51*
X11040Y8176D3*
D49*
Y7176D3*
X10040Y8176D3*
Y7176D3*
X9040Y8176D3*
Y7176D3*
X8040Y8176D3*
Y7176D3*
D42*
X10787Y42930D3*
Y40962D3*
X9213D3*
X9210Y42926D3*
G36*
X9803Y38114D2*
X9925Y37993D1*
X10155D1*
X10277Y38114D1*
Y38738D1*
X10155Y38860D1*
X9925D1*
X9803Y38738D1*
Y38114D1*
G37*
D40*
X10540Y38426D3*
X11040D3*
G36*
X11277Y37238D2*
X11155Y37360D1*
X10925D1*
X10803Y37238D1*
Y36614D1*
X10925Y36493D1*
X11155D1*
X11277Y36614D1*
Y37238D1*
G37*
D40*
X10540Y36926D3*
X10040D3*
D38*
X7290Y36676D3*
D36*
Y31676D3*
D38*
X11290Y25176D3*
D36*
Y30176D3*
D38*
X9790D3*
D36*
Y25176D3*
D38*
X8790Y39676D3*
D36*
Y34676D3*
D38*
X7040Y22426D3*
D36*
X12040D3*
D51*
X8040Y18676D3*
D49*
Y17676D3*
Y16676D3*
Y15676D3*
Y14676D3*
Y13676D3*
Y12676D3*
Y11676D3*
Y10676D3*
Y9676D3*
X11040Y18676D3*
Y17676D3*
Y16676D3*
Y15676D3*
Y14676D3*
Y13676D3*
Y12676D3*
Y11676D3*
Y10676D3*
Y9676D3*
M02*
