G04 DipTrace 2.4.0.1*
%INBottomSilk.gbr*%
%MOIN*%
%ADD54C,0.0124*%
%ADD55C,0.0093*%
%FSLAX44Y44*%
G04*
G70*
G90*
G75*
G01*
%LNBotSilk*%
%LPD*%
X9904Y10056D2*
D54*
X9981Y9980D1*
X10019Y9865D1*
Y9712D1*
X9981Y9597D1*
X9904Y9520D1*
X9828D1*
X9751Y9559D1*
X9713Y9597D1*
X9675Y9673D1*
X9598Y9903D1*
X9560Y9980D1*
X9521Y10018D1*
X9445Y10056D1*
X9330D1*
X9254Y9980D1*
X9215Y9865D1*
Y9712D1*
X9254Y9597D1*
X9330Y9520D1*
X9751Y10762D2*
X9215D1*
X9636D2*
X9713Y10686D1*
X9751Y10609D1*
Y10495D1*
X9713Y10418D1*
X9636Y10342D1*
X9521Y10303D1*
X9445D1*
X9330Y10342D1*
X9254Y10418D1*
X9215Y10495D1*
Y10609D1*
X9254Y10686D1*
X9330Y10762D1*
X9751Y11009D2*
X9215Y11162D1*
X9751Y11315D1*
X9215Y11468D1*
X9751Y11621D1*
Y12327D2*
X9215D1*
X9636D2*
X9713Y12251D1*
X9751Y12174D1*
Y12060D1*
X9713Y11983D1*
X9636Y11907D1*
X9521Y11868D1*
X9445D1*
X9330Y11907D1*
X9254Y11983D1*
X9215Y12060D1*
Y12174D1*
X9254Y12251D1*
X9330Y12327D1*
X10019Y12574D2*
X9981Y12612D1*
X10019Y12651D1*
X10058Y12612D1*
X10019Y12574D1*
X9751Y12612D2*
X9215D1*
X9751Y12898D2*
Y13319D1*
X9215Y12898D1*
Y13319D1*
X9904Y14879D2*
X9981Y14803D1*
X10019Y14688D1*
Y14535D1*
X9981Y14421D1*
X9904Y14344D1*
X9828D1*
X9751Y14382D1*
X9713Y14421D1*
X9675Y14497D1*
X9598Y14726D1*
X9560Y14803D1*
X9521Y14841D1*
X9445Y14879D1*
X9330D1*
X9254Y14803D1*
X9215Y14688D1*
Y14535D1*
X9254Y14421D1*
X9330Y14344D1*
X9751Y15165D2*
X9215Y15394D1*
X9062Y15318D1*
X8985Y15241D1*
X8947Y15165D1*
Y15126D1*
X9751Y15624D2*
X9215Y15394D1*
X9521Y15871D2*
Y16330D1*
X9598D1*
X9675Y16292D1*
X9713Y16254D1*
X9751Y16177D1*
Y16062D1*
X9713Y15986D1*
X9636Y15909D1*
X9521Y15871D1*
X9445D1*
X9330Y15909D1*
X9254Y15986D1*
X9215Y16062D1*
Y16177D1*
X9254Y16254D1*
X9330Y16330D1*
X10019Y17036D2*
X9215D1*
X9636D2*
X9713Y16960D1*
X9751Y16883D1*
Y16768D1*
X9713Y16692D1*
X9636Y16615D1*
X9521Y16577D1*
X9445D1*
X9330Y16615D1*
X9254Y16692D1*
X9215Y16768D1*
Y16883D1*
X9254Y16960D1*
X9330Y17036D1*
X10019Y18061D2*
X9215Y18367D1*
X10019Y18673D1*
X9865Y18920D2*
X9904Y18997D1*
X10018Y19112D1*
X9215D1*
X7193Y23957D2*
D55*
X7250Y23928D1*
X7308Y23871D1*
X7336Y23814D1*
Y23699D1*
X7308Y23641D1*
X7250Y23584D1*
X7193Y23555D1*
X7107Y23526D1*
X6963D1*
X6878Y23555D1*
X6820Y23584D1*
X6763Y23641D1*
X6734Y23699D1*
Y23814D1*
X6763Y23871D1*
X6820Y23928D1*
X6878Y23957D1*
X6963D1*
Y23814D1*
X7336Y24142D2*
X7308Y24171D1*
X7336Y24200D1*
X7366Y24171D1*
X7336Y24142D1*
X7136Y24171D2*
X6734D1*
X6963Y24385D2*
Y24729D1*
X7021D1*
X7078Y24701D1*
X7107Y24672D1*
X7136Y24615D1*
Y24528D1*
X7107Y24471D1*
X7049Y24414D1*
X6963Y24385D1*
X6906D1*
X6820Y24414D1*
X6763Y24471D1*
X6734Y24528D1*
Y24615D1*
X6763Y24672D1*
X6820Y24729D1*
X7107Y25259D2*
X6647D1*
X6562Y25230D1*
X6533Y25202D1*
X6504Y25144D1*
Y25058D1*
X6533Y25001D1*
X7021Y25259D2*
X7078Y25202D1*
X7107Y25144D1*
Y25058D1*
X7078Y25001D1*
X7021Y24943D1*
X6935Y24915D1*
X6877D1*
X6791Y24943D1*
X6734Y25001D1*
X6705Y25058D1*
Y25144D1*
X6734Y25202D1*
X6791Y25259D1*
X6963Y25444D2*
Y25788D1*
X7021D1*
X7078Y25760D1*
X7107Y25731D1*
X7136Y25673D1*
Y25587D1*
X7107Y25530D1*
X7049Y25473D1*
X6963Y25444D1*
X6906D1*
X6820Y25473D1*
X6763Y25530D1*
X6734Y25587D1*
Y25673D1*
X6763Y25731D1*
X6820Y25788D1*
X7136Y25973D2*
X6734D1*
X6963D2*
X7049Y26003D1*
X7107Y26060D1*
X7136Y26117D1*
Y26204D1*
X6734Y27432D2*
X7336Y27202D1*
X6734Y26972D1*
X6935Y27058D2*
Y27346D1*
X7336Y27617D2*
X6734Y27846D1*
X7336Y28076D1*
X7049Y28261D2*
Y28519D1*
X7078Y28605D1*
X7107Y28635D1*
X7164Y28663D1*
X7222D1*
X7279Y28635D1*
X7308Y28605D1*
X7336Y28519D1*
Y28261D1*
X6734D1*
X7049Y28462D2*
X6734Y28663D1*
M02*
