M48
INCH
T01C0.0191
T02C0.0276
T03C0.0354
T04C0.038
T05C0.0394
T06C0.0472
T07C0.051
%
T01
X+008790Y+032176
X+008040Y+031176
X+010790Y+025926
X+006790Y+020176
X+009290Y+010676
X+009290Y+038176
T02
X+010040Y+038426
X+010540Y+038426
X+011040Y+038426
X+011040Y+036926
X+010540Y+036926
X+010040Y+036926
T03
X+007290Y+043426
X+007290Y+042639
X+007290Y+038926
X+007290Y+037926
X+007290Y+029676
X+008290Y+029676
X+008540Y+021176
X+009540Y+021176
X+009540Y+020176
X+008540Y+020176
X+008040Y+018676
X+008040Y+017676
X+007040Y+017676
X+007040Y+018676
X+007040Y+016676
X+007040Y+015676
X+007040Y+014676
X+007040Y+013676
X+007040Y+012676
X+007040Y+011676
X+007040Y+010676
X+007040Y+009676
X+008040Y+009676
X+008040Y+010676
X+008040Y+011676
X+008040Y+012676
X+008040Y+013676
X+008040Y+014676
X+008040Y+015676
X+008040Y+016676
X+011040Y+016676
X+011040Y+015676
X+012040Y+015676
X+012040Y+016676
X+012040Y+017676
X+012040Y+018676
X+011040Y+018676
X+011040Y+017676
X+010540Y+020176
X+010540Y+021176
X+011040Y+014676
X+011040Y+013676
X+011040Y+012676
X+012040Y+012676
X+012040Y+013676
X+012040Y+014676
X+012040Y+011676
X+012040Y+010676
X+012040Y+009676
X+011040Y+009676
X+011040Y+010676
X+011040Y+011676
X+011040Y+008176
X+010040Y+008176
X+010040Y+007176
X+011040Y+007176
X+009040Y+007176
X+008040Y+007176
X+008040Y+008176
X+009040Y+008176
T04
X+007290Y+036676
X+008790Y+034676
X+007290Y+031676
X+009790Y+030176
X+011290Y+030176
X+011290Y+025176
X+009790Y+025176
X+012040Y+022426
X+007040Y+022426
X+008790Y+039676
T05
X+010040Y+034676
X+010040Y+031676
X+008040Y+027426
X+008040Y+026426
X+008290Y+023926
X+011290Y+023926
T06
X+011540Y+031426
X+011540Y+035777
T07
X+010787Y+042930
X+009210Y+042926
X+009213Y+040962
X+010787Y+040962
T00
M30
