G04 DipTrace 2.4.0.1*
%INTopSilk.gbr*%
%MOIN*%
%ADD10C,0.0098*%
%ADD20C,0.0197*%
%ADD53C,0.0077*%
%FSLAX44Y44*%
G04*
G70*
G90*
G75*
G01*
%LNTopSilk*%
%LPD*%
X7762Y42166D2*
D10*
X6818D1*
Y43899D1*
X7762D1*
Y42166D1*
X10640Y31474D2*
Y34878D1*
X9440Y31474D2*
Y34878D1*
X10640D2*
G03X9440Y34878I-600J-2D01*
G01*
Y31474D2*
G03X10640Y31474I600J2D01*
G01*
X11492Y24526D2*
X8088D1*
X11492Y23326D2*
X8088D1*
Y24526D2*
G03X8088Y23326I2J-600D01*
G01*
X11492D2*
G03X11492Y24526I-2J600D01*
G01*
X7440Y27626D2*
Y26227D1*
X8640Y27626D2*
Y26227D1*
X7440D2*
G03X8640Y26227I600J-1D01*
G01*
Y27626D2*
G03X7440Y27626I-600J1D01*
G01*
X9089Y29794D2*
Y29558D1*
X9207Y29676D2*
X8971D1*
X6790D2*
G02X6790Y29676I1000J0D01*
G01*
X12091Y32655D2*
X10989D1*
Y32676D2*
Y34527D1*
X12091Y32954D2*
X10989D1*
X12091Y34527D2*
X10989D1*
X12091Y32676D2*
Y34527D1*
X7790Y39426D2*
X6790D1*
X7790Y37426D2*
Y39426D1*
Y37426D2*
X6790D1*
Y39426D1*
X9957Y21676D2*
X8040D1*
X11040D2*
X8040D1*
X11040Y19676D2*
X8040D1*
X11040Y21676D2*
Y19676D1*
X8040Y21676D2*
Y19676D1*
X7540Y19176D2*
X6540D1*
X7540Y9176D2*
Y19176D1*
Y9176D2*
X6540D1*
Y9926D1*
Y19176D1*
X12540D2*
X11540D1*
X12540Y9176D2*
Y19176D1*
Y9176D2*
X11540D1*
Y9926D1*
Y19176D1*
Y8676D2*
X7540D1*
X11540Y6676D2*
X7540D1*
X11540Y8676D2*
Y6676D1*
X7540Y8676D2*
Y6676D1*
X7932Y41946D2*
X7937Y42090D1*
X7952Y42234D1*
X7977Y42376D1*
X8012Y42515D1*
X8057Y42652D1*
X8111Y42786D1*
X8174Y42916D1*
X8246Y43041D1*
X8327Y43160D1*
X8415Y43274D1*
X8512Y43381D1*
X8616Y43481D1*
X8726Y43573D1*
X8843Y43658D1*
X8965Y43735D1*
X9093Y43802D1*
X9224Y43861D1*
X9360Y43910D1*
X9499Y43950D1*
X9640Y43980D1*
X9782Y44000D1*
X9926Y44010D1*
X10071D1*
X10215Y44000D1*
X10357Y43980D1*
X10498Y43950D1*
X10637Y43910D1*
X10773Y43861D1*
X10904Y43802D1*
X11032Y43735D1*
X11154Y43658D1*
X11271Y43573D1*
X11381Y43481D1*
X11485Y43381D1*
X11582Y43274D1*
X11670Y43160D1*
X11751Y43041D1*
X11823Y42916D1*
X11886Y42786D1*
X11940Y42652D1*
X11985Y42515D1*
X12020Y42376D1*
X12045Y42234D1*
X12060Y42090D1*
X12065Y41946D1*
X12060Y41802D1*
X12045Y41659D1*
X12020Y41517D1*
X11985Y41377D1*
X11940Y41240D1*
X11886Y41106D1*
X11823Y40977D1*
X11751Y40852D1*
X11670Y40732D1*
X11582Y40619D1*
X11485Y40512D1*
X11381Y40412D1*
X11271Y40319D1*
X11154Y40234D1*
X11032Y40158D1*
X10904Y40090D1*
X10773Y40032D1*
X10637Y39982D1*
X10498Y39943D1*
X10357Y39913D1*
X10215Y39893D1*
X10071Y39882D1*
X9926D1*
X9782Y39893D1*
X9640Y39913D1*
X9499Y39943D1*
X9360Y39982D1*
X9224Y40032D1*
X9093Y40090D1*
X8965Y40158D1*
X8843Y40234D1*
X8726Y40319D1*
X8616Y40412D1*
X8512Y40512D1*
X8415Y40619D1*
X8327Y40732D1*
X8246Y40852D1*
X8174Y40977D1*
X8111Y41106D1*
X8057Y41240D1*
X8012Y41377D1*
X7977Y41517D1*
X7952Y41659D1*
X7937Y41802D1*
X7932Y41946D1*
D20*
X9508Y43619D3*
X9784Y37895D2*
D10*
G02X11296Y37895I756J666D01*
G01*
X9784D1*
X11296Y37458D2*
G02X9784Y37458I-756J-666D01*
G01*
X11296D1*
X6790Y32675D2*
Y35677D1*
X7790D2*
X6790D1*
X7790Y32675D2*
Y35677D1*
Y32675D2*
X6790D1*
X11790Y29177D2*
Y26175D1*
X10790D2*
X11790D1*
X10790Y29177D2*
Y26175D1*
Y29177D2*
X11790D1*
X9290Y26175D2*
Y29177D1*
X10290D2*
X9290D1*
X10290Y26175D2*
Y29177D1*
Y26175D2*
X9290D1*
X8290Y35675D2*
Y38677D1*
X9290D2*
X8290D1*
X9290Y35675D2*
Y38677D1*
Y35675D2*
X8290D1*
X11041Y21926D2*
X8039D1*
Y22926D2*
Y21926D1*
X11041Y22926D2*
X8039D1*
X11041D2*
Y21926D1*
X10564Y19294D2*
Y9058D1*
X8516D2*
X10564D1*
X8516Y19294D2*
Y9058D1*
Y19294D2*
X9304D1*
X10564D2*
X9776D1*
X9304D2*
G03X9776Y19294I236J1D01*
G01*
X6335Y42728D2*
D53*
X6838D1*
Y42943D1*
X6813Y43015D1*
X6790Y43039D1*
X6742Y43063D1*
X6670D1*
X6622Y43039D1*
X6598Y43015D1*
X6575Y42943D1*
X6550Y43015D1*
X6527Y43039D1*
X6479Y43063D1*
X6431D1*
X6383Y43039D1*
X6359Y43015D1*
X6335Y42943D1*
Y42728D1*
X6575D2*
Y42943D1*
X6431Y43217D2*
X6407Y43265D1*
X6336Y43337D1*
X6838D1*
X9878Y33218D2*
X9831Y33195D1*
X9782Y33147D1*
X9759Y33099D1*
Y33003D1*
X9782Y32955D1*
X9831Y32908D1*
X9878Y32883D1*
X9950Y32860D1*
X10070D1*
X10141Y32883D1*
X10189Y32908D1*
X10237Y32955D1*
X10261Y33003D1*
Y33099D1*
X10237Y33147D1*
X10189Y33195D1*
X10141Y33218D1*
X9855Y33373D2*
X9831Y33421D1*
X9759Y33493D1*
X10261D1*
X9725Y24088D2*
X9701Y24136D1*
X9653Y24184D1*
X9605Y24208D1*
X9510D1*
X9462Y24184D1*
X9414Y24136D1*
X9390Y24088D1*
X9366Y24016D1*
Y23896D1*
X9390Y23825D1*
X9414Y23777D1*
X9462Y23729D1*
X9510Y23705D1*
X9605D1*
X9653Y23729D1*
X9701Y23777D1*
X9725Y23825D1*
X9903Y24088D2*
Y24111D1*
X9927Y24159D1*
X9951Y24183D1*
X9999Y24207D1*
X10095D1*
X10142Y24183D1*
X10166Y24159D1*
X10190Y24111D1*
Y24064D1*
X10166Y24016D1*
X10118Y23944D1*
X9879Y23705D1*
X10214D1*
X6878Y26861D2*
X6831Y26837D1*
X6782Y26789D1*
X6759Y26742D1*
Y26646D1*
X6782Y26598D1*
X6831Y26550D1*
X6878Y26526D1*
X6950Y26502D1*
X7070D1*
X7141Y26526D1*
X7189Y26550D1*
X7237Y26598D1*
X7261Y26646D1*
Y26742D1*
X7237Y26789D1*
X7189Y26837D1*
X7141Y26861D1*
X6759Y27063D2*
Y27326D1*
X6950Y27183D1*
Y27255D1*
X6974Y27302D1*
X6998Y27326D1*
X7070Y27350D1*
X7117D1*
X7189Y27326D1*
X7237Y27278D1*
X7261Y27207D1*
Y27135D1*
X7237Y27063D1*
X7213Y27040D1*
X7165Y27015D1*
X7671Y30338D2*
X7648Y30386D1*
X7599Y30434D1*
X7552Y30458D1*
X7456D1*
X7408Y30434D1*
X7361Y30386D1*
X7336Y30338D1*
X7313Y30266D1*
Y30146D1*
X7336Y30075D1*
X7361Y30027D1*
X7408Y29979D1*
X7456Y29955D1*
X7552D1*
X7599Y29979D1*
X7648Y30027D1*
X7671Y30075D1*
X8065Y29955D2*
Y30457D1*
X7826Y30123D1*
X8184D1*
X11259Y33297D2*
X11761D1*
Y33464D1*
X11737Y33536D1*
X11689Y33584D1*
X11641Y33608D1*
X11570Y33632D1*
X11450D1*
X11378Y33608D1*
X11331Y33584D1*
X11282Y33536D1*
X11259Y33464D1*
Y33297D1*
X11355Y33786D2*
X11331Y33834D1*
X11259Y33906D1*
X11761D1*
X7272Y40158D2*
Y39776D1*
X7249Y39704D1*
X7224Y39680D1*
X7177Y39656D1*
X7129D1*
X7081Y39680D1*
X7057Y39704D1*
X7033Y39776D1*
Y39824D1*
X7427Y40062D2*
X7475Y40087D1*
X7547Y40158D1*
Y39656D1*
X6915Y19908D2*
Y19526D1*
X6891Y19454D1*
X6867Y19430D1*
X6819Y19406D1*
X6771D1*
X6724Y19430D1*
X6700Y19454D1*
X6676Y19526D1*
Y19574D1*
X7117Y19908D2*
X7380D1*
X7237Y19717D1*
X7309D1*
X7356Y19693D1*
X7380Y19669D1*
X7404Y19597D1*
Y19550D1*
X7380Y19478D1*
X7332Y19430D1*
X7261Y19406D1*
X7189D1*
X7117Y19430D1*
X7094Y19454D1*
X7069Y19502D1*
X11903Y19908D2*
Y19526D1*
X11879Y19454D1*
X11855Y19430D1*
X11807Y19406D1*
X11759D1*
X11712Y19430D1*
X11688Y19454D1*
X11664Y19526D1*
Y19574D1*
X12297Y19406D2*
Y19908D1*
X12058Y19574D1*
X12416D1*
X9415Y9408D2*
Y9026D1*
X9391Y8954D1*
X9367Y8930D1*
X9319Y8906D1*
X9271D1*
X9224Y8930D1*
X9200Y8954D1*
X9176Y9026D1*
Y9074D1*
X9856Y9408D2*
X9617D1*
X9594Y9193D1*
X9617Y9217D1*
X9689Y9241D1*
X9761D1*
X9832Y9217D1*
X9881Y9169D1*
X9904Y9097D1*
Y9050D1*
X9881Y8978D1*
X9832Y8930D1*
X9761Y8906D1*
X9689D1*
X9617Y8930D1*
X9594Y8954D1*
X9569Y9002D1*
X9718Y42243D2*
Y41741D1*
X10005D1*
X10159Y42147D2*
X10207Y42172D1*
X10279Y42243D1*
Y41741D1*
X10355Y39300D2*
X10307Y39277D1*
X10259Y39229D1*
X10236Y39181D1*
X10211Y39109D1*
Y38990D1*
X10236Y38918D1*
X10259Y38870D1*
X10307Y38822D1*
X10355Y38798D1*
X10451D1*
X10499Y38822D1*
X10546Y38870D1*
X10570Y38918D1*
X10594Y38990D1*
Y39109D1*
X10570Y39181D1*
X10546Y39229D1*
X10499Y39277D1*
X10451Y39300D1*
X10355D1*
X10427Y38894D2*
X10570Y38750D1*
X10749Y39204D2*
X10797Y39228D1*
X10869Y39300D1*
Y38798D1*
X10248Y36440D2*
X10200Y36417D1*
X10152Y36369D1*
X10128Y36320D1*
X10104Y36249D1*
Y36129D1*
X10128Y36057D1*
X10152Y36010D1*
X10200Y35962D1*
X10248Y35938D1*
X10343D1*
X10391Y35962D1*
X10439Y36010D1*
X10463Y36057D1*
X10487Y36129D1*
Y36249D1*
X10463Y36320D1*
X10439Y36369D1*
X10391Y36417D1*
X10343Y36440D1*
X10248D1*
X10319Y36034D2*
X10463Y35890D1*
X10666Y36320D2*
Y36344D1*
X10689Y36392D1*
X10713Y36416D1*
X10761Y36439D1*
X10857D1*
X10904Y36416D1*
X10928Y36392D1*
X10952Y36344D1*
Y36296D1*
X10928Y36248D1*
X10881Y36177D1*
X10641Y35937D1*
X10976D1*
X7248Y33872D2*
Y34087D1*
X7224Y34158D1*
X7200Y34183D1*
X7152Y34207D1*
X7104D1*
X7057Y34183D1*
X7032Y34158D1*
X7009Y34087D1*
Y33872D1*
X7511D1*
X7248Y34039D2*
X7511Y34207D1*
X7105Y34361D2*
X7081Y34409D1*
X7009Y34481D1*
X7511D1*
X11248Y27264D2*
Y27479D1*
X11224Y27551D1*
X11200Y27575D1*
X11152Y27599D1*
X11104D1*
X11057Y27575D1*
X11032Y27551D1*
X11009Y27479D1*
Y27264D1*
X11511D1*
X11248Y27432D2*
X11511Y27599D1*
X11129Y27778D2*
X11105D1*
X11057Y27802D1*
X11033Y27825D1*
X11009Y27873D1*
Y27969D1*
X11033Y28017D1*
X11057Y28040D1*
X11105Y28065D1*
X11152D1*
X11200Y28040D1*
X11272Y27993D1*
X11511Y27753D1*
Y28088D1*
X9748Y27264D2*
Y27479D1*
X9724Y27551D1*
X9700Y27575D1*
X9652Y27599D1*
X9604D1*
X9557Y27575D1*
X9532Y27551D1*
X9509Y27479D1*
Y27264D1*
X10011D1*
X9748Y27432D2*
X10011Y27599D1*
X9509Y27802D2*
Y28064D1*
X9700Y27921D1*
Y27993D1*
X9724Y28040D1*
X9748Y28064D1*
X9820Y28088D1*
X9867D1*
X9939Y28064D1*
X9987Y28016D1*
X10011Y27945D1*
Y27873D1*
X9987Y27802D1*
X9963Y27778D1*
X9915Y27753D1*
X8748Y36752D2*
Y36967D1*
X8724Y37039D1*
X8700Y37063D1*
X8652Y37087D1*
X8604D1*
X8557Y37063D1*
X8532Y37039D1*
X8509Y36967D1*
Y36752D1*
X9011D1*
X8748Y36920D2*
X9011Y37087D1*
Y37481D2*
X8509D1*
X8844Y37242D1*
Y37600D1*
X9128Y22468D2*
X9343D1*
X9415Y22493D1*
X9439Y22516D1*
X9463Y22564D1*
Y22612D1*
X9439Y22659D1*
X9415Y22684D1*
X9343Y22708D1*
X9128D1*
Y22205D1*
X9295Y22468D2*
X9463Y22205D1*
X9904Y22707D2*
X9665D1*
X9642Y22492D1*
X9665Y22516D1*
X9737Y22540D1*
X9808D1*
X9880Y22516D1*
X9928Y22468D1*
X9952Y22396D1*
Y22349D1*
X9928Y22277D1*
X9880Y22229D1*
X9808Y22205D1*
X9737D1*
X9665Y22229D1*
X9642Y22253D1*
X9617Y22301D1*
X9765Y11296D2*
X9262Y11104D1*
X9765Y10913D1*
X9597Y10985D2*
Y11224D1*
X9262Y11618D2*
X9765D1*
X9262Y11450D2*
Y11785D1*
Y11940D2*
X9765D1*
X9262Y12429D2*
X9765D1*
X9262Y12094D1*
X9765D1*
X9262Y12584D2*
X9502Y12775D1*
X9765D1*
X9262Y12966D2*
X9502Y12775D1*
X9382Y13145D2*
X9359D1*
X9311Y13168D1*
X9287Y13192D1*
X9263Y13240D1*
Y13336D1*
X9287Y13383D1*
X9311Y13407D1*
X9359Y13432D1*
X9406D1*
X9454Y13407D1*
X9526Y13360D1*
X9765Y13120D1*
Y13455D1*
X9263Y13658D2*
Y13920D1*
X9454Y13777D1*
Y13849D1*
X9478Y13897D1*
X9502Y13920D1*
X9574Y13945D1*
X9621D1*
X9693Y13920D1*
X9741Y13873D1*
X9765Y13801D1*
Y13729D1*
X9741Y13658D1*
X9717Y13634D1*
X9669Y13610D1*
X9359Y14099D2*
X9334Y14147D1*
X9263Y14219D1*
X9765D1*
X9263Y14421D2*
Y14684D1*
X9454Y14541D1*
Y14613D1*
X9478Y14660D1*
X9502Y14684D1*
X9574Y14708D1*
X9621D1*
X9693Y14684D1*
X9741Y14636D1*
X9765Y14565D1*
Y14493D1*
X9741Y14421D1*
X9717Y14398D1*
X9669Y14373D1*
X9848Y14863D2*
Y15317D1*
X9526Y15471D2*
Y15687D1*
X9502Y15758D1*
X9477Y15783D1*
X9430Y15806D1*
X9358D1*
X9311Y15783D1*
X9286Y15758D1*
X9262Y15687D1*
Y15471D1*
X9765D1*
X9262Y15961D2*
X9765D1*
Y16128D1*
X9741Y16200D1*
X9693Y16248D1*
X9645Y16272D1*
X9574Y16296D1*
X9454D1*
X9382Y16272D1*
X9334Y16248D1*
X9286Y16200D1*
X9262Y16128D1*
Y15961D1*
Y16450D2*
X9765D1*
X9526Y16604D2*
Y16820D1*
X9502Y16891D1*
X9477Y16916D1*
X9430Y16939D1*
X9358D1*
X9311Y16916D1*
X9286Y16891D1*
X9262Y16820D1*
Y16604D1*
X9765D1*
M02*
